<?xml version="1.0" encoding="UTF-8" standalone="no"?>
<!DOCTYPE svg PUBLIC "-//W3C//DTD SVG 1.1//EN" "http://www.w3.org/Graphics/SVG/1.1/DTD/svg11.dtd">
<svg width="100%" height="100%" viewBox="0 0 4803 832" version="1.1" xmlns="http://www.w3.org/2000/svg" xmlns:xlink="http://www.w3.org/1999/xlink" xml:space="preserve" xmlns:serif="http://www.serif.com/" style="fill-rule:evenodd;clip-rule:evenodd;stroke-linejoin:round;stroke-miterlimit:2;">
    <g transform="matrix(1,0,0,1,-13983.4,-13593.5)">
        <g transform="matrix(1,0,0,1,1230.8,8376.12)">
            <g transform="matrix(1.10819,0,0,1.10819,2502.28,-7793.22)">
                <g transform="matrix(833.333,0,0,833.333,10191.6,12323.7)">
                    <path d="M0.145,0L0.29,0L0.385,-0.36L0.405,-0.36L0.5,0L0.645,0L0.78,-0.5L0.675,-0.5L0.58,-0.13L0.56,-0.13L0.462,-0.5L0.328,-0.5L0.23,-0.13L0.21,-0.13L0.115,-0.5L0.01,-0.5L0.145,0Z" style="fill:white;fill-rule:nonzero;"/>
                </g>
                <g transform="matrix(833.333,0,0,833.333,10816.6,12323.7)">
                    <path d="M0.29,-0.08C0.205,-0.08 0.14,-0.145 0.14,-0.25C0.14,-0.355 0.205,-0.42 0.29,-0.42C0.375,-0.42 0.44,-0.355 0.44,-0.25C0.44,-0.145 0.375,-0.08 0.29,-0.08ZM0.29,0.01C0.435,0.01 0.54,-0.095 0.54,-0.25C0.54,-0.405 0.435,-0.51 0.29,-0.51C0.145,-0.51 0.04,-0.405 0.04,-0.25C0.04,-0.095 0.145,0.01 0.29,0.01Z" style="fill:white;fill-rule:nonzero;"/>
                </g>
                <g transform="matrix(833.333,0,0,833.333,11274.9,12323.7)">
                    <path d="M0.065,0L0.165,0L0.165,-0.306C0.165,-0.375 0.2,-0.41 0.27,-0.41L0.35,-0.41L0.35,-0.5L0.26,-0.5C0.2,-0.5 0.18,-0.475 0.165,-0.455L0.16,-0.455L0.15,-0.5L0.065,-0.5L0.065,0Z" style="fill:white;fill-rule:nonzero;"/>
                </g>
                <g transform="matrix(833.333,0,0,833.333,11549.9,12323.7)">
                    <path d="M0.07,0L0.17,0L0.17,-0.24L0.39,0L0.51,0L0.275,-0.255L0.5,-0.5L0.38,-0.5L0.17,-0.27L0.17,-0.7L0.07,-0.7L0.07,0Z" style="fill:white;fill-rule:nonzero;"/>
                </g>
                <g transform="matrix(833.333,0,0,833.333,11929.1,12323.7)">
                    <path d="M0.44,0L0.53,0L0.53,-0.7L0.43,-0.7L0.43,-0.44L0.425,-0.44C0.41,-0.46 0.365,-0.51 0.27,-0.51C0.14,-0.51 0.04,-0.41 0.04,-0.25C0.04,-0.09 0.14,0.01 0.27,0.01C0.365,0.01 0.41,-0.04 0.425,-0.06L0.43,-0.06L0.44,0ZM0.285,-0.08C0.205,-0.08 0.14,-0.145 0.14,-0.25C0.14,-0.355 0.205,-0.42 0.285,-0.42C0.365,-0.42 0.43,-0.355 0.43,-0.25C0.43,-0.145 0.365,-0.08 0.285,-0.08Z" style="fill:white;fill-rule:nonzero;"/>
                </g>
                <g transform="matrix(833.333,0,0,833.333,12404.1,12323.7)">
                    <path d="M0.065,0L0.165,0L0.165,-0.306C0.165,-0.375 0.2,-0.41 0.27,-0.41L0.35,-0.41L0.35,-0.5L0.26,-0.5C0.2,-0.5 0.18,-0.475 0.165,-0.455L0.16,-0.455L0.15,-0.5L0.065,-0.5L0.065,0Z" style="fill:white;fill-rule:nonzero;"/>
                </g>
                <g transform="matrix(833.333,0,0,833.333,12662.4,12323.7)">
                    <path d="M0.29,-0.08C0.205,-0.08 0.14,-0.145 0.14,-0.25C0.14,-0.355 0.205,-0.42 0.29,-0.42C0.375,-0.42 0.44,-0.355 0.44,-0.25C0.44,-0.145 0.375,-0.08 0.29,-0.08ZM0.29,0.01C0.435,0.01 0.54,-0.095 0.54,-0.25C0.54,-0.405 0.435,-0.51 0.29,-0.51C0.145,-0.51 0.04,-0.405 0.04,-0.25C0.04,-0.095 0.145,0.01 0.29,0.01Z" style="fill:white;fill-rule:nonzero;"/>
                </g>
                <g transform="matrix(833.333,0,0,833.333,13120.8,12323.7)">
                    <path d="M0.065,0.2L0.165,0.2L0.165,-0.06L0.17,-0.06C0.185,-0.04 0.23,0.01 0.325,0.01C0.455,0.01 0.555,-0.09 0.555,-0.25C0.555,-0.41 0.455,-0.51 0.325,-0.51C0.23,-0.51 0.185,-0.46 0.17,-0.44L0.165,-0.44L0.155,-0.5L0.065,-0.5L0.065,0.2ZM0.31,-0.08C0.23,-0.08 0.165,-0.145 0.165,-0.25C0.165,-0.355 0.23,-0.42 0.31,-0.42C0.39,-0.42 0.455,-0.355 0.455,-0.25C0.455,-0.145 0.39,-0.08 0.31,-0.08Z" style="fill:white;fill-rule:nonzero;"/>
                </g>
            </g>
            <g transform="matrix(0.277545,0,0,0.277545,8452.87,742.754)">
                <g id="final-icon">
                    <g>
                        <g transform="matrix(1,0,0,1,42.192,10.8489)">
                            <path d="M15450,18150L15750,18150L15750,18600L17850,18600L17850,18150L18150,18150L18150,18900L15600,18900L15450,18750L15450,18150Z" style="fill:white;"/>
                        </g>
                        <g transform="matrix(1,0,0,1,42.192,10.8489)">
                            <path d="M16125,17250L15900,17477.5L16650,18225L16950,18153.7L16950,16200L16650,16200L16650,17775L16125,17250Z" style="fill:white;"/>
                        </g>
                        <g transform="matrix(3.60302,0,0,3.60302,-34890.5,-32855.5)">
                            <path d="M14528.1,13926.9L14590.8,13989.6L14503.8,14076.1L14440.6,14076.1L14441.4,14013.6L14528.1,13926.9ZM14536.1,13918.9L14559.9,13895.1L14622.4,13958.2L14598.9,13981.6L14536.1,13918.9Z" style="fill:white;"/>
                        </g>
                    </g>
                </g>
            </g>
        </g>
    </g>
</svg>
