<?xml version="1.0" encoding="UTF-8" standalone="no"?><!DOCTYPE svg PUBLIC "-//W3C//DTD SVG 1.1//EN" "http://www.w3.org/Graphics/SVG/1.1/DTD/svg11.dtd"><svg width="100%" height="100%" viewBox="0 0 1558 2084" version="1.1" xmlns="http://www.w3.org/2000/svg" xmlns:xlink="http://www.w3.org/1999/xlink" xml:space="preserve" xmlns:serif="http://www.serif.com/" style="fill-rule:evenodd;clip-rule:evenodd;stroke-linejoin:round;stroke-miterlimit:2;"><g id="books-workdrop"><path d="M1385.38,471.25l171.792,-99.75l0,1033.33l-174.709,101.584l2.917,-1035.17Z" style="fill:#121212;fill-rule:nonzero;"/><path d="M1385.38,471.25l-2.917,1035.17l-643.5,-371.5l2.959,-1035.17l643.458,371.5Z" style="fill:#ff7b7b;fill-rule:nonzero;"/><path d="M1502.17,369.792l-120.25,70.125l-597.959,-345.834l119.917,-69.708l598.292,345.417Z" style="fill:#f4f6f9;fill-rule:nonzero;"/><path d="M1526,546.458l-113.917,65.792l2.042,718.583l113.917,-65.791l-2.042,-718.584Z" style="fill-opacity:0.2;fill-rule:nonzero;"/><path d="M1557.17,371.5l-25.917,15.083l-119.958,69.709l-25.959,15.083l-29.041,-16.792l-614.417,-354.75l25.958,-15.083l618.084,344.5l111,-62.458l-609.167,-351.709l25.917,-15.083l614.416,354.75l29.084,16.75Z" style="fill:#1e1e1e;fill-rule:nonzero;"/><path d="M1210.67,572.875l171.791,-99.75l0,1033.33l-174.708,101.584l2.917,-1035.17Z" style="fill:#0228f4;fill-rule:nonzero;"/><path d="M1210.67,572.875l-2.917,1035.17l-643.5,-371.5l2.958,-1035.17l643.459,371.5Z" style="fill:#1c3ffd;fill-rule:nonzero;"/><path d="M1327.46,471.417l-120.25,70.125l-597.958,-345.834l119.917,-69.708l598.291,345.417Z" style="fill:#f4f6f9;fill-rule:nonzero;"/><path d="M1351.29,648.083l-113.917,65.792l2.042,718.583l113.916,-65.791l-2.041,-718.584Z" style="fill-opacity:0.2;fill-rule:nonzero;"/><path d="M1382.46,473.125l-25.916,15.083l-119.959,69.709l-25.958,15.083l-29.042,-16.792l-614.416,-354.75l25.958,-15.083l618.083,344.5l111,-62.458l-609.166,-351.709l25.916,-15.083l614.417,354.75l29.083,16.75Z" style="fill:#0228f4;fill-rule:nonzero;"/><path d="M1416.29,969.417l19.958,-11.625l-3.125,1104.5l-20,11.625l3.167,-1104.5Z" style="fill:#121212;fill-rule:nonzero;"/><path d="M1436.25,957.792l-1373.08,-792.75l-20,11.625l686.541,396.375l686.584,396.375l19.958,-11.625Z" style="fill:#121212;fill-rule:nonzero;"/><path d="M1416.29,969.417l-3.167,1104.5l-686.542,-396.375l-110.333,-90.875l-18.792,16.291l-557.416,-321.833l3.125,-1104.46l686.541,396.375l686.584,396.375Z" style="fill:#1e1e1e;fill-rule:nonzero;"/><path d="M746.292,618.625l-119.815,-68.013l-623.56,-245.445l-2.917,1035.13l508.583,293.625c10.756,6.199 22.956,9.463 35.37,9.463c28.457,0 56.984,-14.432 68.013,-40.664l0,92.083l674.992,388.534l2.917,-1035.17l-543.583,-429.542" style="fill:#f4f6f9;fill-rule:nonzero;"/><path d="M611.935,626.573l0,1068.21l675.023,388.552l2.917,-1035.17l-677.94,-421.594Z" style="fill:#dadce5;fill-rule:nonzero;"/><path d="M1212.79,1751.25l-0.042,18.5l-469.042,-270.792l0.042,-18.5l469.042,270.792Z" style="fill:#b8c1d2;fill-rule:nonzero;"/><path d="M1213.04,1667.88l-0.084,18.5l-469,-270.792l0.042,-18.5l469.042,270.792Z" style="fill:#b8c1d2;fill-rule:nonzero;"/><path d="M1213.5,1501.13l-0.042,18.458l-469.041,-270.791l0.083,-18.459l469,270.792Z" style="fill:#b8c1d2;fill-rule:nonzero;"/><path d="M1213.75,1417.71l-0.083,18.542l-469,-270.792l0.041,-18.5l469.042,270.75Z" style="fill:#b8c1d2;fill-rule:nonzero;"/><path d="M1213.96,1334.38l-0.041,18.458l-469,-270.791l0.041,-18.459l469,270.792Z" style="fill:#b8c1d2;fill-rule:nonzero;"/><path d="M1213.25,1584.5l-0.042,18.458l-469,-270.75l0.042,-18.5l469,270.792Z" style="fill:#b8c1d2;fill-rule:nonzero;"/><path d="M1212.54,1834.63l-0.042,18.5l-469,-270.792l0.042,-18.5l469,270.792Z" style="fill:#b8c1d2;fill-rule:nonzero;"/><path d="M1212.33,1918.04l-0.083,18.458l-469,-270.792l0.042,-18.458l469.041,270.792Z" style="fill:#b8c1d2;fill-rule:nonzero;"/><path d="M1214.46,1167.58l-0.083,18.542l-469,-270.792l0.042,-18.5l469.041,270.75Z" style="fill:#b8c1d2;fill-rule:nonzero;"/><path d="M1214.67,1084.21l-0.042,18.5l-469,-270.791l0.042,-18.5l469,270.791Z" style="fill:#b8c1d2;fill-rule:nonzero;"/><path d="M1214.21,1251l-0.041,18.458l-469.042,-270.791l0.083,-18.459l469,270.792Z" style="fill:#b8c1d2;fill-rule:nonzero;"/><path d="M536.25,1528.29l-0.042,18.5l-469,-270.792l0.042,-18.458l469,270.75Z" style="fill:#b8c1d2;fill-rule:nonzero;"/><path d="M536.5,1444.92l-0.042,18.458l-469.041,-270.792l0.083,-18.458l469,270.792Z" style="fill:#b8c1d2;fill-rule:nonzero;"/><path d="M537.208,1194.79l-0.041,18.458l-469.042,-270.792l0.042,-18.458l469.041,270.792Z" style="fill:#b8c1d2;fill-rule:nonzero;"/><path d="M538.167,861.292l-0.084,18.458l-469,-270.792l0.042,-18.458l469.042,270.792Z" style="fill:#b8c1d2;fill-rule:nonzero;"/><path d="M538.375,777.875l-0.042,18.5l-469,-270.792l0.042,-18.5l469,270.792Z" style="fill:#b8c1d2;fill-rule:nonzero;"/><path d="M538.625,694.5l-0.042,18.5l-469.041,-270.792l0.083,-18.5l469,270.792Z" style="fill:#b8c1d2;fill-rule:nonzero;"/><path d="M537.917,944.667l-0.042,18.458l-469.042,-270.792l0.084,-18.458l469,270.792Z" style="fill:#b8c1d2;fill-rule:nonzero;"/><g><path d="M536.958,1278.13l-0.041,18.5l-469,-270.75l0.041,-18.542l469,270.792Z" style="fill:#b8c1d2;fill-rule:nonzero;"/><path d="M537.458,1111.42l-0.083,18.458l-469,-270.792l0.042,-18.458l469.041,270.792Z" style="fill:#b8c1d2;fill-rule:nonzero;"/><path d="M537.667,1028l-0.042,18.5l-469,-270.75l0.042,-18.542l469,270.792Z" style="fill:#b8c1d2;fill-rule:nonzero;"/></g><path d="M536.75,1361.54l-0.083,18.5l-469,-270.792l0.041,-18.5l469.042,270.792Z" style="fill:#b8c1d2;fill-rule:nonzero;"/><path d="M2.917,305.167l100,-58.084l542.125,314.292l-17.75,10.333c-50.749,29.439 -113.585,29.439 -164.334,0l-460.041,-266.541Z" style="fill:#e6e9ef;fill-rule:nonzero;"/><path d="M644.958,561.375l744.834,428.75l-100,58.042l-644.625,-371.084c-20.776,-11.846 -33.645,-33.998 -33.645,-57.913c0,-23.831 12.777,-45.917 33.436,-57.795Z" style="fill:#e6e9ef;fill-rule:nonzero;"/><path d="M1289.76,1048.23l99.916,-58.042l-2.843,1035.1l-99.875,58.041l2.802,-1035.1Z" style="fill:#e6e9ef;fill-rule:nonzero;"/><path d="M833,604.75c-12.792,21.208 -26.292,35.458 -43.458,53.25c-2.459,2.5 -8.709,0.333 -11.417,-0.458c-4.875,-1.417 -7.708,-3.334 -13,-1.25c-2.957,1.388 -5.823,2.961 -8.583,4.708c-4.263,2.421 -8.852,4.217 -13.625,5.333c1.496,-2.876 3.166,-5.659 5,-8.333c7.833,-11.417 19.291,-19.375 28.166,-30.042c9.54,-11.339 18.244,-23.357 26.042,-35.958c10.833,-22.25 22.625,-59.292 27.5,-73.958c8.333,-24.75 16.125,-61.375 22.083,-78.542c5.959,-17.167 16.667,-23.125 27.209,-25c12.5,-2.208 20.041,1.542 17.041,16.125c-5.208,25.667 -30.541,124.917 -62.958,174.125Z" style="fill:#ffcea9;fill-rule:nonzero;"/><path d="M862.208,1000.38c-10.5,8.333 -25.958,0.75 -26.75,1.542c-12.327,11.409 -25.248,22.16 -38.708,32.208c-6.542,5.167 -16.667,12.042 -14.875,21.917c3.292,17.666 31.583,12.25 42.25,6.833c10.667,-5.417 19.417,-14.375 29.5,-20.833c7.208,-4.5 14.292,-6.792 15.417,-15.917c0.708,-5.292 -5,-26.125 -6.834,-25.75Z" style="fill:#1c3ffd;fill-rule:nonzero;"/><path d="M868.917,1022.67c-1.375,8.708 -8.334,11.125 -15.542,15.541c-10.25,6.417 -19.292,15.584 -29.958,20.834c-9.875,5 -34.5,9.958 -41.417,-2.667c3.75,17.042 31.583,11.708 42.125,6.333c10.542,-5.375 19.417,-14.375 29.5,-20.833c7.208,-4.5 14.292,-6.792 15.417,-15.917c0.069,-1.098 0.027,-2.201 -0.125,-3.291Z" style="fill:#0228f4;fill-rule:nonzero;"/><path d="M755.792,939.083c-10.459,8.542 -28.834,-0.791 -29.625,0c-10.904,11.087 -22.452,21.522 -34.584,31.25c-6.541,5.125 -16.666,12 -14.875,21.917c3.292,17.667 31.584,12.208 42.292,6.833c10.708,-5.375 19.375,-14.375 29.5,-20.833c7.208,-4.458 14.292,-6.792 15.417,-15.875c0.666,-5.333 -6.25,-23.5 -8.125,-23.292Z" style="fill:#1c3ffd;fill-rule:nonzero;"/><path d="M763.583,960.083c-1.375,8.75 -8.333,11.125 -15.541,15.584c-10.25,6.375 -19.292,15.583 -29.959,20.833c-9.875,5 -34.5,9.958 -41.416,-2.667c3.791,17.042 31.583,11.709 42.125,6.375c10.541,-5.333 19.416,-14.375 29.5,-20.833c7.208,-4.458 14.291,-6.792 15.416,-15.875c0.076,-1.14 0.034,-2.285 -0.125,-3.417Z" style="fill:#0228f4;fill-rule:nonzero;"/><path d="M1002.46,664.167c11.625,72.625 -20.833,99.708 -62.5,115.166c-30.166,11.084 -73.291,28.167 -73.291,28.167c0,0 0.583,15.958 0.916,51.708c0.292,31.5 -3.833,146.542 -3.833,146.542c0,0 -17.375,9 -32.125,-0.375c0,0 -16.917,-88.125 -20.5,-127.833c-4.875,-53.917 -13.125,-89.167 -10.375,-100.75c2.417,-10.25 61.333,-39.209 80,-54.709l-123.375,41.375c2.452,13.387 3.638,26.975 3.542,40.584c-1.125,42.75 -3.459,135.291 -3.459,135.291c0,0 -16.958,12.25 -31.375,0.25c0,0 -31.041,-183.333 -27.291,-207.5c3.583,-23.041 112.5,-70.083 131.458,-86.291c6.786,-5.485 15.587,-7.848 24.208,-6.5l148,24.875Z" style="fill:#ffd10f;fill-rule:nonzero;"/><path d="M959.5,390.75c0,0 -1.75,34.583 -1,37.5c0.75,2.917 15.875,13.208 20.292,16.667c4.416,3.458 -23.917,31.583 -37.5,37.875c-13.584,6.291 -57.375,-10.292 -58.334,-31.75c-0.958,-21.459 7.5,-39.417 14.167,-40.334c6.667,-0.916 62.375,-19.958 62.375,-19.958Z" style="fill:#ffcea9;fill-rule:nonzero;"/><path d="M963.375,434.375c0,0 -25,37.5 -60.125,40.917c-11.042,-10.875 -12.042,-49.625 3.25,-62c0,0 -14.042,-11.334 -23.667,-9.125c-10.331,6.244 -18.026,16.06 -21.625,27.583c-8.95,25.71 -13.184,52.827 -12.5,80.042c0.584,36.708 0,129.5 0,129.5c0,0 5.25,35.458 36.875,53.125c25.299,14.281 55.119,18.382 83.334,11.458c17.75,-4.167 24.333,-14.083 30.458,-26.958c-1.583,-25.709 -11.792,-78.667 -7.5,-111c4.292,-32.334 11.125,-56.5 12.917,-82.667c1.791,-26.167 -3.459,-25.583 -16.667,-34.917c-7.855,-5.908 -16.127,-11.241 -24.75,-15.958Z" style="fill:#f4f4f4;fill-rule:nonzero;"/><path d="M971.458,745.75l-0.041,4.625l-116.5,67.708l0,-4.625l116.541,-67.708Z" style="fill:#1f232b;fill-rule:nonzero;"/><path d="M854.917,813.458l0,4.625l-181.167,-104.583l0.042,-4.625l181.125,104.583Z" style="fill:#2d323e;fill-rule:nonzero;"/><path d="M971.458,745.75l-116.541,67.708l-181.125,-104.583l116.5,-67.708l181.166,104.583Z" style="fill:#323846;fill-rule:nonzero;"/><path d="M959.083,730.083l-106.458,61.875l-78.792,-40.875l110.25,-64.375l75,43.375Z" style="fill:#dadce5;fill-rule:nonzero;"/><path d="M877.833,689.042l2.125,9.208l-110.166,59.667l-82.709,-61.625l106.417,-61.875l76.667,44.291c3.887,2.219 6.67,5.97 7.666,10.334Z" style="fill:#f4f6f9;fill-rule:nonzero;"/><path d="M880.375,689.167l-0.042,13.833l-104.125,57.417l-2.25,-9.417l106.417,-61.833Z" style="fill:#dadce5;fill-rule:nonzero;"/><path d="M852.625,791.958l0,13.875l-82.75,-47.791c0,-0.018 0,-0.037 0,-0.055c0,-4.388 3.611,-8 8,-8c1.42,0 2.816,0.379 4.042,1.096l70.708,40.875Z" style="fill:#e6e9ef;fill-rule:nonzero;"/><path d="M769.792,751.5l0,6.417l-82.75,-47.75l0,-13.875l76.291,44.041c3.992,2.295 6.46,6.563 6.459,11.167Z" style="fill:#e6e9ef;fill-rule:nonzero;"/><path d="M844.625,693.292l-1.958,1.125l-62.542,-36.084l1,-0.583l0.958,-0.583l62.542,36.125Z" style="fill-rule:nonzero;"/><path d="M856.625,686.292l-1.958,1.166l-62.542,-36.125l0.958,-0.541l1,-0.584l62.542,36.084Z" style="fill-rule:nonzero;"/><path d="M832.667,700.25l-2.042,1.167l-62.542,-36.125l1.042,-0.584l1,-0.583l62.542,36.125Z" style="fill-rule:nonzero;"/><path d="M820.667,707.208l-2,1.167l-62.542,-36.125l0.958,-0.542l1,-0.583l62.584,36.083Z" style="fill-rule:nonzero;"/><path d="M808.667,714.167l-2,1.166l-62.542,-36.083l2,-1.167l62.542,36.084Z" style="fill-rule:nonzero;"/><path d="M796.667,721.167l-2,1.166l-62.584,-36.125l1.042,-0.583l1,-0.583l62.542,36.125Z" style="fill-rule:nonzero;"/><path d="M784.667,728.125l-2,1.167l-62.542,-36.125l1,-0.584l1,-0.541l62.542,36.083Z" style="fill-rule:nonzero;"/><path d="M772.667,735.083l-2,1.209l-62.542,-36.125l2,-1.167l62.542,36.083Z" style="fill-rule:nonzero;"/><path d="M936.792,734.083l-2,1.125l-62.5,-36.083l1,-0.583l1,-0.542l62.5,36.083Z" style="fill-rule:nonzero;"/><path d="M924.833,741.042l-2.041,1.166l-62.5,-36.083l2,-1.167l62.541,36.084Z" style="fill-rule:nonzero;"/><path d="M912.792,748l-1.959,1.167l-62.541,-36.084l2,-1.166l62.5,36.083Z" style="fill-rule:nonzero;"/><path d="M900.792,755l-1.959,1.125l-62.541,-36.083l1.041,-0.584l0.959,-0.541l62.5,36.083Z" style="fill-rule:nonzero;"/><path d="M876.792,768.917l-1.959,1.166l-62.5,-36.083l0.959,-0.583l1,-0.584l62.5,36.084Z" style="fill-rule:nonzero;"/><path d="M888.833,761.958l-2.041,1.167l-62.5,-36.083l2,-1.167l62.541,36.083Z" style="fill-rule:nonzero;"/><path d="M864.792,775.917l-1.959,1.166l-62.541,-36.125l1,-0.583l1,-0.542l62.5,36.084Z" style="fill-rule:nonzero;"/><path d="M852.833,782.875l-2.041,1.167l-62.5,-36.084l1,-0.583l1.041,-0.583l62.5,36.083Z" style="fill-rule:nonzero;"/><path d="M959.083,730.083l0,13.875l-106.25,61.875l0,-13.875l106.25,-61.875Z" style="fill-rule:nonzero;"/><path d="M923.125,732.458c6.167,-3.041 10.667,-7.666 19.667,-11.291c6.29,-2.004 12.007,-5.491 16.666,-10.167c6.125,-6.042 16.209,-28.833 23.417,-51.083c7.168,-25.071 9.987,-51.186 8.333,-77.209c-3.041,-31.208 -14.291,-75 -17.125,-92.75c-2.833,-17.75 2.959,-25 11.292,-31.708c9.792,-7.75 23.333,-4.167 30.542,20.833c9.329,34.788 14.738,70.51 16.125,106.5c0.287,26.729 -3.838,53.323 -12.209,78.709c-7.541,23.583 -17.375,40.541 -30,61.833c-3.416,5.792 -4.541,10.958 -9.791,22.792c-5.084,11.89 -12.977,22.371 -23,30.541c-8.792,6.334 -12.959,7.209 -15,6c-2.042,-1.208 -2.084,-4.166 1.625,-7.666c6.218,-4.892 11.522,-10.845 15.666,-17.584c4.145,-6.739 -7.666,7.709 -12.708,11.917c-4.46,3.771 -9.407,6.925 -14.708,9.375c-5.125,2.25 -12.292,-2.083 -8.625,-5.583c3.666,-3.5 7.375,-5.125 14.708,-11.5c3.917,-3.344 7.414,-7.15 10.417,-11.334c-5.141,3.956 -10.589,7.495 -16.292,10.584c-4.452,2.794 -9.619,4.241 -14.875,4.166c-2.708,0 -6,-3.875 -0.917,-7.583c5.084,-3.708 11.75,-5.583 19.459,-13.292c5.625,-5.583 8.791,-10.291 7.208,-10.416c-1.583,-0.125 -4.625,3.416 -11.208,5.5c-6.584,2.083 -13.667,0 -14.5,-3.417c-0.834,-3.417 -0.334,-3.125 5.833,-6.167Z" style="fill:#ffcea9;fill-rule:nonzero;"/><path d="M881.208,339.167c4.167,-26.834 23.5,-47.209 51.167,-45.834c28.159,1.573 50.476,25.173 50.476,53.375c0,1.098 -0.033,2.196 -0.101,3.292c-0.924,16.501 -9.54,31.647 -23.25,40.875c-0.932,4.064 -2.33,8.007 -4.167,11.75c-9.791,11.458 -39.375,18.542 -47.916,17.333c-10.917,-1.583 -16.667,-6.125 -22.042,-18.083c-9.292,-21.25 -6.208,-49.417 -4.167,-62.708Z" style="fill:#ffcea9;fill-rule:nonzero;"/><path d="M959.5,390.708l-2.542,-23.416c0,0 19.167,-49.542 -26.083,-40.042c-29.833,6.292 -37.5,9 -46.417,-11c-8.916,-20 22.959,-38.042 61,-33.042c27.013,2.838 47.6,26.178 47.042,53.334c-0.833,14.75 -5,44.541 -33,54.166Z" style="fill:#1e1e1e;fill-rule:nonzero;"/><path d="M1036.92,525.208c0,0 -24.667,24.542 -53.875,17.459c-4.167,-2.834 -14.209,-60.209 -14.209,-60.209c0,0 0,-31.791 24.375,-30.958c24.375,0.833 43.709,73.708 43.709,73.708Z" style="fill:#ededed;fill-rule:nonzero;"/><path d="M850.542,477.583c0,0 -12.875,-0.625 -18.209,-8.333c0.959,-12.833 17.417,-61.625 50.5,-65.25c-9.069,6.303 -16.268,14.942 -20.833,25c-5.875,14.833 -11.458,48.583 -11.458,48.583Z" style="fill:#ededed;fill-rule:nonzero;"/><path d="M887.75,15.083l0,18.667l16.125,-9.375l-16.125,-9.292Z" style="fill:#e6e9ef;fill-rule:nonzero;"/><path d="M713.042,116.708l0,18.667l16.125,-9.375l-16.125,-9.292Z" style="fill:#e6e9ef;fill-rule:nonzero;"/></g></svg>