<?xml version="1.0" encoding="UTF-8" standalone="no"?><!DOCTYPE svg PUBLIC "-//W3C//DTD SVG 1.1//EN" "http://www.w3.org/Graphics/SVG/1.1/DTD/svg11.dtd"><svg width="100%" height="100%" viewBox="0 0 1993 2084" version="1.1" xmlns="http://www.w3.org/2000/svg" xmlns:xlink="http://www.w3.org/1999/xlink" xml:space="preserve" xmlns:serif="http://www.serif.com/" style="fill-rule:evenodd;clip-rule:evenodd;stroke-linejoin:round;stroke-miterlimit:2;"><g id="Online-Education-Illustration" serif:id="Online Education Illustration"><path d="M1937.71,1434.29l-835.708,-482.459l-1074.13,620.125l-27.875,17.167l856,494.208l1102.92,-636.791l0,-24.459l-21.209,12.209Z" style="fill:#d6d8e5;fill-opacity:0.4;fill-rule:nonzero;"/><g id="book4"><path d="M1971.42,1414.71l-835.709,-482.5l-1081.75,624.542l-21.208,-12.25l0,24.5l856.917,494.75l1102.96,-636.792l0,-24.5l-21.208,12.25Z" style="fill:#0228f4;fill-rule:nonzero;"/><path d="M889.667,2039.25l-856.917,-494.75l1102.96,-636.792l856.917,494.75l-1102.96,636.792Z" style="fill:#1c3ffd;fill-rule:nonzero;"/><path d="M53.958,1556.75c2.647,-0.583 25.459,-14.583 25.459,-14.583l0,-161.875l-25.459,-14.584l0,191.042Z" style="fill:#1c3ffd;fill-rule:nonzero;"/><path d="M890.167,2012.33l-813.25,-468.375l0,-228.458l13.041,-10.708l800.209,457.708l0,249.833Z" style="fill:#e6e9ef;fill-rule:nonzero;"/><path d="M1947.08,1401.83l-1056.92,610.5l0,-249.833l1033.88,-597.167l23.041,14.25l0,222.25Z" style="fill:#f4f6f9;fill-rule:nonzero;"/><path d="M1971.42,1199.17l-835.709,-482.5l-1081.75,624.541l-21.208,-12.25l0,24.5l856.917,494.75l1102.96,-636.791l0,-24.459l-21.208,12.209Z" style="fill:#0228f4;fill-rule:nonzero;"/><path d="M889.667,1823.71l-856.917,-494.75l1102.96,-636.75l856.917,494.75l-1102.96,636.75Z" style="fill:#1c3ffd;fill-rule:nonzero;"/><path d="M32.75,1544.5l0,-215.542l21.208,12.25l0,239.167l-21.208,-35.875Z" style="fill:#0228f4;fill-rule:nonzero;"/></g><g id="book3"><path d="M1903.79,1158.92l-791.959,-457.25l-1025.13,591.833l-20.125,-11.583l0,23.208l812.084,468.833l1045.25,-603.458l0,-23.208l-20.125,11.625Z" style="fill:#d4ab00;fill-rule:nonzero;"/><path d="M878.667,1750.75l-812.084,-468.833l1045.25,-603.459l812.084,468.834l-1045.25,603.458Z" style="fill:#ffd10f;fill-rule:nonzero;"/><path d="M86.708,1293.5c2.459,-0.542 23.917,-13.792 23.917,-13.792l0,-153.416l-23.917,-13.792l0,181Z" style="fill:#ffd10f;fill-rule:nonzero;"/><path d="M879.125,1725.25l-770.667,-443.875l0,-216.458l12.334,-10.167l758.333,433.75l0,236.75Z" style="fill:#e6e9ef;fill-rule:nonzero;"/><path d="M1880.75,1146.71l-1001.63,578.542l0,-236.75l979.792,-565.917l21.833,13.5l0,210.625Z" style="fill:#f4f6f9;fill-rule:nonzero;"/><path d="M1903.79,954.667l-791.959,-457.25l-1025.13,591.833l-20.125,-11.583l0,23.208l812.084,468.833l1045.25,-603.458l0,-23.208l-20.125,11.625Z" style="fill:#d4ab00;fill-rule:nonzero;"/><path d="M878.667,1546.5l-812.084,-468.833l1045.25,-603.459l812.084,468.834l-1045.25,603.458Z" style="fill:#ffd10f;fill-rule:nonzero;"/><path d="M66.583,1281.92l0,-204.25l20.125,11.583l0,226.667l-20.125,-34Z" style="fill:#d4ab00;fill-rule:nonzero;"/></g><g id="book2"><path d="M1863.25,900.917l-756.625,-436.834l-979.375,565.459l-19.208,-11.084l0,22.167l775.833,447.917l998.583,-576.542l0,-22.167l-19.208,11.084Z" style="fill:#121212;fill-rule:nonzero;"/><path d="M883.875,1466.38l-775.833,-447.917l998.583,-576.541l775.833,447.916l-998.583,576.542Z" style="fill:#1e1e1e;fill-rule:nonzero;"/><path d="M127.25,1029.54c2.375,-0.584 22.875,-13.209 22.875,-13.209l0,-146.583l-22.875,-13.167l0,172.959Z" style="fill:#1e1e1e;fill-rule:nonzero;"/><path d="M884.333,1441.96l-736.291,-424l0,-206.833l11.791,-9.708l724.5,414.375l0,226.166Z" style="fill:#e6e9ef;fill-rule:nonzero;"/><path d="M1841.21,889.292l-956.875,552.666l0,-226.166l936.042,-540.667l20.833,12.917l0,201.25Z" style="fill:#f4f6f9;fill-rule:nonzero;"/><path d="M1863.25,705.792l-756.625,-436.834l-979.375,565.417l-19.208,-11.083l0,22.166l775.833,447.959l998.583,-576.542l0,-22.167l-19.208,11.084Z" style="fill:#121212;fill-rule:nonzero;"/><path d="M883.875,1271.21l-775.833,-447.916l998.583,-576.5l775.833,447.916l-998.583,576.5Z" style="fill:#1e1e1e;fill-rule:nonzero;"/><path d="M108.042,1018.46l0,-195.166l19.208,11.083l0,216.542l-19.208,-32.459Z" style="fill:#121212;fill-rule:nonzero;"/></g><g id="book1"><path d="M1901.92,688.708l-796.584,-459.916l-1031.08,595.291l-20.25,-11.666l0,23.375l816.833,471.583l1051.33,-607l0,-23.333l-20.25,11.666Z" style="fill:#d4ab00;fill-rule:nonzero;"/><path d="M870.833,1284l-816.833,-471.583l1051.33,-606.959l816.834,471.584l-1051.33,606.958Z" style="fill:#ffd10f;fill-rule:nonzero;"/><path d="M74.25,824.083c2.458,-0.541 24.042,-13.875 24.042,-13.875l0,-154.166l-24.042,-13.917l0,181.958Z" style="fill:#ffd10f;fill-rule:nonzero;"/><path d="M871.292,1258.33l-775.167,-446.416l0,-217.792l12.417,-10.208l762.75,436.291l0,238.125Z" style="fill:#e6e9ef;fill-rule:nonzero;"/><path d="M1878.75,676.458l-1007.46,581.875l0,-238.125l985.5,-569.208l21.958,13.583l0,211.875Z" style="fill:#f4f6f9;fill-rule:nonzero;"/><path d="M1901.92,483.25l-796.584,-459.917l-1031.08,595.334l-20.25,-11.667l0,23.333l816.833,471.584l1051.33,-607l0,-23.334l-20.25,11.667Z" style="fill:#d4ab00;fill-rule:nonzero;"/><path d="M870.833,1078.58l-816.833,-471.583l1051.33,-607l816.834,471.583l-1051.33,607Z" style="fill:#ffd10f;fill-rule:nonzero;"/><path d="M54,812.417l0,-205.417l20.25,11.667l0,227.958l-20.25,-34.208Z" style="fill:#d4ab00;fill-rule:nonzero;"/><path d="M1472.75,623.542l-658.417,-380.125l67.875,-39.167l658.417,380.125l-67.875,39.167Z" style="fill-opacity:0.1;fill-rule:nonzero;"/><path d="M1258,622.208l-441.333,-254.791l33.958,-19.584l441.333,254.792l-33.958,19.583Z" style="fill-opacity:0.1;fill-rule:nonzero;"/><path d="M1183.83,670.958l-441.333,-254.833l33.917,-19.583l441.333,254.791l-33.917,19.625Z" style="fill-opacity:0.1;fill-rule:nonzero;"/><path d="M1031.63,666.958l-296.417,-171.125l33.959,-19.583l296.375,171.125l-33.917,19.583Z" style="fill-opacity:0.1;fill-rule:nonzero;"/></g><g id="Girl_12"><path id="_Контур_" d="M423.75,470.833c4.167,-7.041 37.792,-11.625 48.75,16.667c4.167,10.708 3.542,38.125 7,55.375c3.458,17.25 11.708,26.958 14.667,40.958c2.958,14 -1.875,37.5 -35.542,41.667c-33.667,4.167 -59.583,-7.667 -67.542,-18.417c-7.958,-10.75 -8.333,-33.583 0,-45.833c8.334,-12.25 14.542,-22.208 14.334,-38.167l18.333,-52.25Z" style="fill:#121212;fill-rule:nonzero;"/><path id="_Контур_2_" serif:id="_Контур_2" d="M445.833,465.875c0,0 -25,-7.25 -40.416,6.333c-10.207,9.444 -14.356,23.82 -10.75,37.25c2.041,7.959 6.125,18.792 12.5,19.375c6.375,0.584 38.666,-62.958 38.666,-62.958Z" style="fill:#121212;fill-rule:nonzero;"/><path id="_Контур_3_" serif:id="_Контур_3" d="M455.417,534.417c0,0 -1.625,28.041 -1.125,30.083c0.5,2.042 11,4.167 13.916,6.5c2.917,2.333 -15.208,30.875 -24.458,35.083c-9.25,4.209 -37.875,-6.541 -39.875,-20.833c-1.833,-13.083 8.333,-23.292 12.083,-26.833c2.618,-0.242 5.249,-0.311 7.875,-0.209l0.834,-13.583c12.541,-3.958 30.75,-10.208 30.75,-10.208Z" style="fill:#ffcea9;fill-rule:nonzero;"/><path id="_Контур_4_" serif:id="_Контур_4" d="M373,683.958c-7.916,10.976 -17.327,20.794 -27.958,29.167c-2.959,2.583 -4.459,5.333 -9.5,11.042c-5.006,5.783 -11.486,10.104 -18.75,12.5c-6.334,1.625 -9,1.208 -10.084,0c-1.083,-1.209 -0.541,-3 2.209,-4.167c4.574,-1.334 8.827,-3.589 12.5,-6.625c3.672,-3.036 -5.875,2.75 -9.584,4.167c-3.359,1.171 -6.865,1.872 -10.416,2.083c-3.459,0 -7.125,-4.167 -4.375,-5.25c2.75,-1.083 5.291,-1.292 10.75,-3.292c2.946,-1.022 5.747,-2.422 8.333,-4.166c-3.787,1.108 -7.662,1.889 -11.583,2.333c-3.246,0.552 -6.583,0.176 -9.625,-1.083c-1.625,-0.709 -3.042,-3.667 0.625,-4.625c4.758,-0.486 9.435,-1.578 13.916,-3.25c4.167,-1.917 6.959,-3.959 6,-4.167c-0.958,-0.208 -3.375,0.917 -7.666,0.583c-4.292,-0.333 -8.334,-3.041 -8.334,-5.333c0,-2.292 0.917,-1.042 5.125,-1.375c4.451,-1.099 8.977,-1.865 13.542,-2.292c4.5,0.175 9,-0.359 13.333,-1.583c4.584,-1.375 14.834,-13.667 22.667,-25c8.562,-12.571 15.335,-26.272 20.125,-40.708c4.708,-15.5 10.333,-44.542 14.333,-54.625c4,-10.084 10.917,-14.709 17.5,-14.917c7.75,-0.25 11.042,9.917 9,18.708c-3.958,15.084 -21.125,74.334 -42.083,101.875Z" style="fill:#ffcea9;fill-rule:nonzero;"/><path id="_Контур_5_" serif:id="_Контур_5" d="M459.25,567.25c7.875,1.208 16.667,5.417 18.125,9.708c1.458,5.042 4.542,28.75 -2.25,46.792c-6.792,18.042 -14.542,50.542 -18.458,58.333c-20.26,2.905 -40.92,-1.056 -58.667,-11.25c-17.747,-10.193 -1.625,-31.375 -1.75,-41.666c-25.333,-22.125 -3.667,-49.375 17.792,-70.584c2.579,-0.207 5.171,-0.207 7.75,0c2.579,0.208 -19.167,22.667 -5.875,35.542c28.541,-8.958 34.083,-21.792 43.333,-26.875Z" style="fill:#f4f4f4;fill-rule:nonzero;"/><path id="_Контур_6_" serif:id="_Контур_6" d="M403.083,499.708c2.834,-18 15.834,-31.583 34.375,-30.5c18.826,1.087 33.729,16.875 33.729,35.732c0,0.701 -0.021,1.402 -0.062,2.102c-0.649,11.076 -6.473,21.225 -15.708,27.375c-0.636,2.731 -1.602,5.376 -2.875,7.875c-6.584,7.666 -24.042,12.5 -29.792,12.5c-5,0 -9.292,-4.584 -13.958,-12.5c-9.709,-15.834 -7.25,-33.667 -5.709,-42.584Z" style="fill:#ffcea9;fill-rule:nonzero;"/><path d="M443.208,469.542c13.042,2.541 23.75,6.208 27.292,19c2.417,8.791 5.583,25.583 2.542,32.666l-1.834,5.084l-15.791,8.125c0,0 -7.375,-6.125 -5.042,-24.084c-0.088,-2.444 -0.868,-4.814 -2.25,-6.833c-0.977,-1.693 -1.707,-3.517 -2.167,-5.417c-1.855,-4.855 -5.513,-8.812 -10.208,-11.041c-11.75,-6.625 -29.167,-0.917 -31.333,1.458c6.78,-14.657 23.061,-22.614 38.791,-18.958Z" style="fill:#121212;fill-rule:nonzero;"/><path d="M371.5,900.458c-6.583,5.334 -16.667,1.625 -17.292,2.125c-6.708,6.709 -16.666,12.5 -24.166,18.459c-4.167,3.208 -10.5,7.541 -9.334,13.75c2.042,11.125 19.834,7.666 26.542,4.166c6.708,-3.5 12.167,-9.041 18.542,-12.958c4.5,-2.833 8.958,-4.167 9.666,-10c0.417,-3.5 -2.75,-15.708 -3.958,-15.542Z" style="fill:#1c3ffd;fill-rule:nonzero;"/><path d="M375.375,913.833c-0.875,5.459 -5.25,6.959 -9.75,9.75c-6.458,4.167 -12.125,9.792 -18.833,13.209c-6.709,3.416 -21.667,6.25 -26,-1.709c2.375,10.709 19.833,7.375 26.458,4.167c6.625,-3.208 12.167,-9.042 18.542,-12.958c4.5,-2.834 8.958,-4.167 9.666,-10c0.086,-0.82 0.058,-1.647 -0.083,-2.459Z" style="fill:#0228f4;fill-rule:nonzero;"/><path d="M339.417,882.417c-6.042,4.916 -15.167,2.166 -15.584,2.625c-7.035,5.974 -14.408,11.539 -22.083,16.666c-3.75,2.959 -9.625,6.917 -8.583,12.5c1.916,10.167 18.208,7.042 24.333,3.917c6.125,-3.125 11.167,-8.333 16.958,-11.875c4.167,-2.583 8.334,-3.917 8.875,-9.125c0.417,-2.917 -2.875,-14.833 -3.916,-14.708Z" style="fill:#1c3ffd;fill-rule:nonzero;"/><path d="M343.292,895.25c-0.834,5 -4.834,6.417 -8.959,8.958c-5.916,3.667 -11.125,8.959 -17.25,12.084c-6.125,3.125 -19.833,5.708 -23.833,-1.542c2.167,9.792 18.167,6.708 24.25,3.625c6.083,-3.083 11.167,-8.333 16.958,-11.875c4.167,-2.583 8.334,-3.917 8.875,-9.125c0.067,-0.708 0.053,-1.421 -0.041,-2.125Z" style="fill:#0228f4;fill-rule:nonzero;"/><path d="M430.667,689c-17.863,2.359 -36.035,-0.266 -52.5,-7.583c0.291,5.541 0.583,10.5 0.583,10.5c-21.375,15.125 -64.25,40.541 -67.042,58.083c2.792,55.458 11.209,134.625 13.625,135.75c6.709,3.208 11.375,2.708 14.542,-0.5c0,0 13.458,-46.958 9.542,-115.875c0,0 75,-33.083 79.666,-51.208c2.181,-7.302 2.875,-14.967 2.042,-22.542c-0.042,-2.208 -0.208,-4.417 -0.458,-6.625Z" style="fill:#ffcea9;fill-rule:nonzero;"/><path d="M455.5,681.792c-14.833,6.916 -28.417,7.791 -45.167,6.041c0,7.417 1.084,21.375 1.084,21.375c-21.375,15.084 -64.25,40.542 -67.084,58.084c2.834,55.416 8,135.708 10.459,136.708c5.845,2.506 12.604,1.711 17.708,-2.083c5.104,-3.795 13.5,-46.375 9.583,-115.25c0,-1.292 64.084,-32.834 72.209,-41.209c8.125,-8.375 9.708,-20.833 9.458,-32.541c-0.612,-10.827 -3.419,-21.417 -8.25,-31.125Z" style="fill:#ffcea9;fill-rule:nonzero;"/><path d="M471.208,693.542c0,0 23.667,41.958 -15.791,63.541c-41.667,22.792 -67.084,28.125 -67.084,28.125l-6.25,1.459c1.97,14.475 1.97,29.15 0,43.625c-1.969,14.475 -29.708,10.375 -67.625,-23l-12.5,-40.459l-1.458,-10.75c-1.473,-7.41 0.897,-15.085 6.292,-20.375c9.125,-8.333 37.958,-29.166 55.875,-41.458c17.916,-12.292 32.041,-23.417 32.041,-23.417l3.167,-2.916c0,0 21.25,16.916 60.125,11.25c5.129,4.07 9.586,8.921 13.208,14.375Z" style="fill:#121212;fill-rule:nonzero;"/><path id="_Контур_7_" serif:id="_Контур_7" d="M447.708,755.833c3.612,-3.268 7.44,-6.288 11.459,-9.041c4.245,-2.18 8.136,-4.99 11.541,-8.334c3.625,-3.625 9,-18.875 11.792,-33.75c2.587,-16.591 2.305,-33.504 -0.833,-50c-4.914,-19.751 -11.551,-39.033 -19.834,-57.625c-5.291,-11.125 -2.291,-17.916 2.5,-22.833c5.667,-5.792 11.542,-5.667 18.25,9.875c9.454,21.763 16.442,44.516 20.834,67.833c2.704,16.927 2.478,34.192 -0.667,51.042c-2.808,14.772 -7.382,29.154 -13.625,42.833c-1.708,4.167 -2,7.417 -4.417,15.459c-2.299,8.045 -6.501,15.42 -12.25,21.5c-5.125,4.791 -7.75,5.708 -9.166,5.083c-1.417,-0.625 -1.667,-2.625 0.416,-5.083c3.587,-3.628 6.507,-7.859 8.625,-12.5c2.119,-4.641 -4.166,5.583 -7.166,8.666c-2.562,2.783 -5.475,5.22 -8.667,7.25c-3.125,1.875 -8.083,-0.333 -6.042,-2.875c2.042,-2.541 4.167,-3.916 8.334,-8.583c2.218,-2.482 4.147,-5.208 5.75,-8.125c-2.977,2.959 -6.196,5.663 -9.625,8.083c-2.642,2.128 -5.837,3.458 -9.209,3.834c-1.75,0 -4.166,-2.042 -1.208,-4.834c4.192,-2.896 8.024,-6.281 11.417,-10.083c3.166,-4.167 4.791,-7.375 3.791,-7.292c-1,0.084 -2.708,2.542 -6.791,4.417c-4.084,1.875 -8.75,1.25 -9.584,-1c-0.833,-2.25 0.667,-1.417 4.375,-3.917Z" style="fill:#ffcea9;fill-rule:nonzero;"/><path d="M492.958,605.083c0,0 -14.375,12.75 -30.375,10.167l-6.208,-26.75c0,0 -4.167,-14.042 7.833,-19.375c12,-5.333 23.542,8.625 28.75,35.958Z" style="fill:#ededed;fill-rule:nonzero;"/><path d="M414.042,558.333c0,0 -15.542,-4.708 -32.084,29.75l6.209,3.709c0,0 16.25,-24.584 25.875,-33.459Z" style="fill:#ededed;fill-rule:nonzero;"/><g id="_Группа_"><g id="_Группа_2_" serif:id="_Группа_2"><path id="_Контур_8_" serif:id="_Контур_8" d="M308.875,710.458l52.208,-30.125c0.925,-0.544 2.076,-0.544 3,0l91.667,52.875l-53.708,31.042l-93.167,-53.792Z" style="fill:#f4f4f4;fill-rule:nonzero;"/><path d="M403.292,752.292l4.166,2.333c0.334,0 0.292,0.5 0,0.708l-3.791,2.209c-0.406,0.207 -0.887,0.207 -1.292,0l-4.167,-2.292c-0.333,-0.208 -0.291,-0.5 0,-0.75l3.834,-2.167c0.383,-0.22 0.852,-0.236 1.25,-0.041Z" style="fill:#121212;fill-rule:nonzero;"/><path d="M397.667,749.042l4.166,2.291c0.292,0.209 0.25,0.542 0,0.75l-3.791,2.209c-0.41,0.189 -0.882,0.189 -1.292,0l-4.167,-2.292c-0.333,-0.208 -0.291,-0.542 0,-0.75l3.792,-2.208c0.405,-0.208 0.886,-0.208 1.292,0Z" style="fill:#121212;fill-rule:nonzero;"/><path d="M391.917,745.833l4.166,2.292c0.334,0.208 0.292,0.5 0,0.75l-3.791,2.167c-0.406,0.207 -0.887,0.207 -1.292,0l-4.167,-2.334c-0.291,0 -0.291,-0.5 0,-0.708l3.792,-2.208c0.409,-0.21 0.897,-0.194 1.292,0.041Z" style="fill:#121212;fill-rule:nonzero;"/><path d="M386.333,742.5l4.167,2.333c0.333,0 0.292,0.5 0,0.709l-3.792,2.208c-0.405,0.208 -0.886,0.208 -1.291,0l-4.167,-2.292c-0.333,0 -0.292,-0.5 0,-0.75l3.833,-2.166c0.384,-0.221 0.853,-0.236 1.25,-0.042Z" style="fill:#121212;fill-rule:nonzero;"/><path d="M380.708,739.25l4.167,2.292c0.292,0.208 0.25,0.541 0,0.75l-3.792,2.208c-0.409,0.189 -0.882,0.189 -1.291,0l-4.167,-2.292c-0.333,0 -0.292,-0.541 0,-0.75l3.792,-2.208c0.405,-0.208 0.886,-0.208 1.291,0Z" style="fill:#121212;fill-rule:nonzero;"/><path d="M375,736l4.167,2.292c0.333,0 0.291,0.5 0,0.75l-3.834,2.166c-0.39,0.208 -0.859,0.208 -1.25,0l-4.166,-2.333c-0.334,0 -0.292,-0.5 0,-0.708l3.791,-2.209c0.412,-0.194 0.894,-0.179 1.292,0.042Z" style="fill:#121212;fill-rule:nonzero;"/><path d="M369.375,732.708l4.167,2.334c0.333,0 0.291,0.5 0,0.708l-3.792,2.208c-0.405,0.208 -0.886,0.208 -1.292,0l-4.166,-2.291c-0.334,0 -0.292,-0.5 0,-0.75l3.833,-2.167c0.384,-0.22 0.853,-0.236 1.25,-0.042Z" style="fill:#121212;fill-rule:nonzero;"/><path d="M363.75,729.458l4.167,2.292c0.333,0 0.291,0.542 0,0.75l-3.792,2.208c-0.41,0.189 -0.882,0.189 -1.292,0l-4.166,-2.291c-0.292,0 -0.25,-0.542 0,-0.75l3.791,-2.209c0.406,-0.207 0.887,-0.207 1.292,0Z" style="fill:#121212;fill-rule:nonzero;"/><path d="M358.083,726.208l4.167,2.292c0.333,0 0.292,0.5 0,0.75l-3.833,2.167c-0.391,0.207 -0.86,0.207 -1.25,0l-4.167,-2.334c-0.333,0 -0.292,-0.5 0,-0.708l3.792,-2.208c0.412,-0.195 0.893,-0.179 1.291,0.041Z" style="fill:#121212;fill-rule:nonzero;"/><path d="M352.417,722.917l4.166,2.333c0.334,0 0.292,0.5 0,0.708l-3.833,2.209c-0.39,0.207 -0.86,0.207 -1.25,0l-4.167,-2.292c-0.333,-0.208 -0.291,-0.5 0,-0.75l3.834,-2.167c0.383,-0.22 0.852,-0.236 1.25,-0.041Z" style="fill:#121212;fill-rule:nonzero;"/><path d="M346.792,719.667l4.166,2.291c0.334,0 0.292,0.542 0,0.75l-3.791,2.209c-0.41,0.189 -0.882,0.189 -1.292,0l-4.167,-2.292c-0.291,-0.208 -0.25,-0.542 0,-0.75l3.792,-2.208c0.405,-0.208 0.886,-0.208 1.292,0Z" style="fill:#121212;fill-rule:nonzero;"/><path d="M341.125,716.417l4.167,2.291c0.333,0 0.291,0.5 0,0.75l-3.834,2.167c-0.39,0.207 -0.859,0.207 -1.25,0l-4.166,-2.333c-0.334,0 -0.292,-0.5 0,-0.709l3.791,-2.208c0.412,-0.195 0.894,-0.179 1.292,0.042Z" style="fill:#121212;fill-rule:nonzero;"/><path d="M335.458,713.125l4.167,2.333c0.333,0 0.292,0.5 0,0.709l-3.833,2.208c-0.391,0.207 -0.86,0.207 -1.25,0l-4.167,-2.292c-0.333,-0.208 -0.292,-0.5 0,-0.75l3.833,-2.166c0.384,-0.221 0.853,-0.236 1.25,-0.042Z" style="fill:#121212;fill-rule:nonzero;"/><path d="M327.083,708.333l6.709,3.875c0.333,0.209 0.291,0.542 0,0.75l-3.792,2.209c-0.41,0.189 -0.882,0.189 -1.292,0l-6.708,-3.875c-0.333,-0.209 -0.292,-0.5 0,-0.75l3.833,-2.209c0.396,-0.187 0.855,-0.187 1.25,0Z" style="fill:#121212;fill-rule:nonzero;"/><path d="M400.417,744.292l4.166,2.333c0.334,0 0.292,0.5 0,0.708l-3.791,2.209c-0.406,0.207 -0.887,0.207 -1.292,0l-4.167,-2.292c-0.291,0 -0.25,-0.542 0,-0.75l3.792,-2.208c0.41,-0.189 0.882,-0.189 1.292,0Z" style="fill:#121212;fill-rule:nonzero;"/><path d="M394.75,741.042l4.167,2.291c0.291,0 0.25,0.5 0,0.75l-3.792,2.167c-0.405,0.208 -0.886,0.208 -1.292,0l-4.166,-2.333c-0.334,0 -0.292,-0.5 0,-0.709l3.791,-2.208c0.412,-0.195 0.894,-0.179 1.292,0.042Z" style="fill:#121212;fill-rule:nonzero;"/><path d="M389.083,737.75l4.167,2.333c0.292,0 0.25,0.5 0,0.709l-3.792,2.208c-0.405,0.208 -0.886,0.208 -1.291,0l-4.167,-2.292c-0.333,-0.208 -0.292,-0.5 0,-0.75l3.792,-2.208c0.409,-0.189 0.882,-0.189 1.291,0Z" style="fill:#121212;fill-rule:nonzero;"/><path d="M383.333,734.5l4.167,2.292c0.333,0 0.292,0.5 0,0.75l-3.833,2.208c-0.396,0.188 -0.855,0.188 -1.25,0l-4.167,-2.333c-0.333,0 -0.292,-0.5 0,-0.709l3.792,-2.208c0.405,-0.208 0.886,-0.208 1.291,0Z" style="fill:#121212;fill-rule:nonzero;"/><path d="M377.792,731.25l4.166,2.292c0.334,0 0.292,0.541 0,0.75l-3.833,2.208c-0.395,0.188 -0.855,0.188 -1.25,0l-4.167,-2.292c-0.333,-0.208 -0.291,-0.541 0,-0.75l3.834,-2.208c0.39,-0.207 0.859,-0.207 1.25,0Z" style="fill:#121212;fill-rule:nonzero;"/><path d="M372.125,727.958l4.167,2.334c0.333,0 0.291,0.5 0,0.708l-3.834,2.208c-0.39,0.208 -0.859,0.208 -1.25,0l-4.166,-2.291c-0.334,0 -0.292,-0.5 0,-0.709l3.833,-2.208c0.389,-0.201 0.848,-0.216 1.25,-0.042Z" style="fill:#121212;fill-rule:nonzero;"/><path d="M366.667,724.708l4.166,2.292c0.334,0.208 0.292,0.542 0,0.75l-3.833,2.208c-0.39,0.208 -0.86,0.208 -1.25,0l-4.167,-2.291c-0.333,-0.209 -0.291,-0.542 0,-0.75l3.834,-2.209c0.39,-0.207 0.859,-0.207 1.25,0Z" style="fill:#121212;fill-rule:nonzero;"/><path d="M360.792,721.458l4.166,2.292c0.334,0 0.292,0.5 0,0.708l-3.791,2.209c-0.411,0.183 -0.881,0.183 -1.292,0l-4.167,-2.334c-0.333,0 -0.291,-0.5 0,-0.708l3.834,-2.208c0.397,-0.195 0.866,-0.179 1.25,0.041Z" style="fill:#121212;fill-rule:nonzero;"/><path d="M355.125,718.167l4.167,2.291c0.333,0.209 0.291,0.542 0,0.75l-3.792,2.209c-0.405,0.207 -0.886,0.207 -1.292,0l-4.166,-2.292c-0.334,-0.208 -0.292,-0.542 0,-0.75l3.833,-2.208c0.395,-0.188 0.855,-0.188 1.25,0Z" style="fill:#121212;fill-rule:nonzero;"/><path d="M349.5,714.917l4.167,2.291c0.333,0 0.291,0.5 0,0.75l-3.792,2.167c-0.405,0.208 -0.886,0.208 -1.292,0l-4.166,-2.333c-0.292,0 -0.25,-0.5 0,-0.709l3.791,-2.208c0.412,-0.195 0.894,-0.179 1.292,0.042Z" style="fill:#121212;fill-rule:nonzero;"/><path d="M343.833,711.625l4.167,2.292c0.333,0 0.292,0.541 0,0.75l-3.792,2.208c-0.405,0.208 -0.886,0.208 -1.291,0l-4.167,-2.292c-0.292,0 -0.25,-0.541 0,-0.75l3.792,-2.208c0.409,-0.189 0.882,-0.189 1.291,0Z" style="fill:#121212;fill-rule:nonzero;"/><path d="M338.167,708.333l4.166,2.292c0.292,0 0.25,0.5 0,0.75l-3.791,2.167c-0.406,0.207 -0.887,0.207 -1.292,0l-4.167,-2.334c-0.333,0 -0.291,-0.5 0,-0.708l3.792,-2.208c0.412,-0.195 0.893,-0.179 1.292,0.041Z" style="fill:#121212;fill-rule:nonzero;"/><path d="M406.083,747.583l6.709,3.875c0.333,0 0.291,0.5 0,0.709l-3.834,2.208c-0.39,0.207 -0.859,0.207 -1.25,0l-6.75,-3.875c-0.291,0 -0.25,-0.5 0,-0.708l3.792,-2.209c0.416,-0.222 0.917,-0.222 1.333,0Z" style="fill:#121212;fill-rule:nonzero;"/><path d="M327.375,708.083l4.167,2.334c0.366,0.185 0.8,0.185 1.166,0l4.167,-2.292c0.333,-0.208 0.333,-0.5 0,-0.708l-0.333,0c-0.131,-0.049 -0.218,-0.174 -0.218,-0.313c0,-0.139 0.087,-0.264 0.218,-0.312l4.166,-2.459c0.334,-0.208 0.334,-0.5 0,-0.708l-2.541,-1.458c-0.386,-0.165 -0.823,-0.165 -1.209,0l-4.166,2.291l-0.834,0.5l-0.583,0.334l-0.625,0.333l-3.417,2c-0.11,0.139 -0.091,0.342 0.042,0.458Z" style="fill:#121212;fill-rule:nonzero;"/><path d="M425.208,739.625l4.167,2.333c0.333,0 0.292,0.5 0,0.709l-3.833,2.208c-0.391,0.207 -0.86,0.207 -1.25,0l-4.167,-2.292c-0.333,0 -0.292,-0.5 0,-0.75l3.792,-2.166c0.398,-0.221 0.879,-0.237 1.291,-0.042Z" style="fill:#121212;fill-rule:nonzero;"/><path d="M419.583,736.375l4.167,2.292c0.333,0.208 0.292,0.541 0,0.75l-3.792,2.208c-0.405,0.208 -0.886,0.208 -1.291,0l-4.167,-2.292c-0.292,0 -0.25,-0.541 0,-0.75l3.792,-2.208c0.409,-0.189 0.882,-0.189 1.291,0Z" style="fill:#121212;fill-rule:nonzero;"/><path d="M413.917,733.333l4.166,2.292c0.334,0.208 0.292,0.542 0,0.75l-3.833,2.208c-0.39,0.208 -0.86,0.208 -1.25,0l-4.167,-2.291c-0.333,0 -0.291,-0.542 0,-0.75l3.667,-2.209c0.44,-0.244 0.977,-0.244 1.417,0Z" style="fill:#121212;fill-rule:nonzero;"/><path d="M365.917,705.417l4.166,2.291c0.334,0.209 0.292,0.542 0,0.75l-3.833,2.209c-0.395,0.187 -0.855,0.187 -1.25,0l-4.167,-2.292c-0.333,-0.208 -0.291,-0.542 0,-0.75l3.834,-2.208c0.39,-0.208 0.859,-0.208 1.25,0Z" style="fill:#121212;fill-rule:nonzero;"/><path d="M360.292,702.167l4.166,2.291c0.292,0.209 0.292,0.5 0,0.75l-3.791,2.167c-0.391,0.207 -0.86,0.207 -1.25,0l-4.167,-2.333c-0.333,0 -0.292,-0.5 0,-0.709l3.792,-2.208c0.4,-0.181 0.862,-0.165 1.25,0.042Z" style="fill:#121212;fill-rule:nonzero;"/><path d="M354.667,698.917l3.958,2.291c0.333,0 0.292,0.5 0,0.75l-3.792,2.167c-0.405,0.208 -0.886,0.208 -1.291,0l-4.167,-2.333c-0.292,0 -0.25,-0.5 0,-0.709l3.792,-2.208c0.466,-0.273 1.049,-0.257 1.5,0.042Z" style="fill:#121212;fill-rule:nonzero;"/><path d="M349,695.833l4.167,2.292c0.333,0 0.291,0.5 0,0.708l-3.834,2.209c-0.395,0.187 -0.854,0.187 -1.25,0l-4.166,-2.334c-0.334,0 -0.292,-0.5 0,-0.708l3.833,-2.208c0.397,-0.195 0.866,-0.179 1.25,0.041Z" style="fill:#121212;fill-rule:nonzero;"/><path d="M406.833,729.167l5.459,3.125c0.333,0.208 0.291,0.541 0,0.75l-3.834,2.208c-0.395,0.188 -0.854,0.188 -1.25,0l-5.458,-3.125c-0.333,-0.208 -0.292,-0.542 0,-0.75l3.833,-2.208c0.391,-0.208 0.86,-0.208 1.25,0Z" style="fill:#121212;fill-rule:nonzero;"/><path d="M371.542,708.667l5.458,3.125c0.333,0 0.292,0.541 0,0.75l-3.833,2.208c-0.391,0.207 -0.86,0.207 -1.25,0l-5.459,-3.125c-0.333,-0.208 -0.291,-0.542 0,-0.75l3.834,-2.208c0.39,-0.208 0.859,-0.208 1.25,0Z" style="fill:#121212;fill-rule:nonzero;"/><path d="M378.667,712.75l26.541,15.333c0.334,0 0.292,0.5 0,0.75l-3.791,2.167c-0.391,0.207 -0.86,0.207 -1.25,0l-26.584,-15.333c-0.291,-0.209 -0.25,-0.542 0,-0.75l3.792,-2.209c0.416,-0.176 0.888,-0.16 1.292,0.042Z" style="fill:#121212;fill-rule:nonzero;"/><path d="M404.167,740.25l4.166,2.292c0.334,0 0.292,0.541 0,0.75l-3.833,2.208c-0.395,0.188 -0.855,0.188 -1.25,0l-4.167,-2.292c-0.333,0 -0.291,-0.541 0,-0.75l3.834,-2.208c0.39,-0.207 0.859,-0.207 1.25,0Z" style="fill:#121212;fill-rule:nonzero;"/><path d="M398.708,737l4.167,2.292c0.292,0 0.25,0.5 0,0.75l-3.792,2.166c-0.405,0.208 -0.886,0.208 -1.291,0l-4.167,-2.333c-0.333,0 -0.292,-0.5 0,-0.708l3.792,-2.209c0.412,-0.194 0.893,-0.179 1.291,0.042Z" style="fill:#121212;fill-rule:nonzero;"/><path d="M393.042,733.708l4.166,2.334c0.334,0 0.292,0.5 0,0.708l-3.833,2.208c-0.39,0.208 -0.86,0.208 -1.25,0l-4.167,-2.291c-0.333,0 -0.291,-0.5 0,-0.709l3.834,-2.208c0.383,-0.22 0.852,-0.236 1.25,-0.042Z" style="fill:#121212;fill-rule:nonzero;"/><path d="M387.5,730.458l4.167,2.334c0.333,0 0.291,0.5 0,0.708l-3.792,2.208c-0.405,0.208 -0.886,0.208 -1.292,0l-4.166,-2.291c-0.292,-0.209 -0.25,-0.542 0,-0.75l3.791,-2.209c0.41,-0.189 0.882,-0.189 1.292,0Z" style="fill:#121212;fill-rule:nonzero;"/><path d="M381.75,727.208l4.167,2.292c0.333,0 0.291,0.542 0,0.75l-3.834,2.208c-0.395,0.188 -0.854,0.188 -1.25,0l-4.166,-2.291c-0.334,-0.209 -0.292,-0.542 0,-0.75l3.833,-2.209c0.39,-0.207 0.86,-0.207 1.25,0Z" style="fill:#121212;fill-rule:nonzero;"/><path d="M376.125,723.958l4.167,2.292c0.333,0 0.291,0.5 0,0.75l-3.792,2.167c-0.405,0.207 -0.886,0.207 -1.292,0l-4.166,-2.334c-0.292,0 -0.25,-0.5 0,-0.708l3.791,-2.208c0.412,-0.195 0.894,-0.179 1.292,0.041Z" style="fill:#121212;fill-rule:nonzero;"/><path d="M370.458,720.833l4.167,2.334c0.333,0 0.292,0.5 0,0.708l-3.833,2.208c-0.391,0.208 -0.86,0.208 -1.25,0l-4.167,-2.291c-0.333,0 -0.292,-0.5 0,-0.709l3.833,-2.208c0.389,-0.201 0.849,-0.216 1.25,-0.042Z" style="fill:#121212;fill-rule:nonzero;"/><path d="M364.833,717.417l4.167,2.333c0.333,0 0.292,0.5 0,0.708l-3.792,2.209c-0.405,0.207 -0.886,0.207 -1.291,0l-4.167,-2.292c-0.292,-0.208 -0.25,-0.542 0,-0.75l3.792,-2.208c0.409,-0.189 0.882,-0.189 1.291,0Z" style="fill:#121212;fill-rule:nonzero;"/><path d="M359.167,714.167l4.166,2.291c0.334,0.209 0.292,0.542 0,0.75l-3.833,2.209c-0.395,0.187 -0.855,0.187 -1.25,0l-4.167,-2.292c-0.333,-0.208 -0.291,-0.542 0,-0.75l3.834,-2.208c0.39,-0.208 0.859,-0.208 1.25,0Z" style="fill:#121212;fill-rule:nonzero;"/><path d="M353.5,710.917l4.167,2.291c0.333,0.209 0.291,0.5 0,0.75l-3.792,2.167c-0.405,0.208 -0.886,0.208 -1.292,0l-4.166,-2.333c-0.292,0 -0.292,-0.5 0,-0.709l3.791,-2.208c0.409,-0.209 0.898,-0.194 1.292,0.042Z" style="fill:#121212;fill-rule:nonzero;"/><path d="M347.875,707.625l4.167,2.333c0.333,0 0.291,0.5 0,0.709l-3.834,2.208c-0.39,0.207 -0.859,0.207 -1.25,0l-4.166,-2.292c-0.334,0 -0.292,-0.5 0,-0.708l3.791,-2.208c0.405,-0.197 0.875,-0.212 1.292,-0.042Z" style="fill:#121212;fill-rule:nonzero;"/><path d="M342.208,704.375l4.167,2.333c0.333,0 0.292,0.5 0,0.709l-3.792,2.208c-0.405,0.208 -0.886,0.208 -1.291,0l-4.167,-2.292c-0.333,-0.208 -0.292,-0.5 0,-0.75l3.833,-2.208c0.396,-0.188 0.855,-0.188 1.25,0Z" style="fill:#121212;fill-rule:nonzero;"/><path d="M410,743.5l8.333,4.792c0.334,0 0.292,0.5 0,0.708l-3.833,2.208c-0.39,0.208 -0.86,0.208 -1.25,0l-8.333,-4.75c-0.334,0 -0.292,-0.541 0,-0.75l3.791,-2.208c0.41,-0.189 0.882,-0.189 1.292,0Z" style="fill:#121212;fill-rule:nonzero;"/><path d="M412.5,738.708l4.167,2.292c0.333,0 0.291,0.542 0,0.75l-3.834,2.208c-0.395,0.188 -0.854,0.188 -1.25,0l-4.166,-2.291c-0.334,0 -0.292,-0.542 0,-0.75l3.791,-2.209c0.406,-0.207 0.887,-0.207 1.292,0Z" style="fill:#121212;fill-rule:nonzero;"/><path d="M406.958,735.458l4.167,2.292c0.333,0 0.292,0.5 0,0.75l-3.792,2.167c-0.405,0.207 -0.886,0.207 -1.291,0l-4.167,-2.334c-0.292,0 -0.25,-0.5 0,-0.708l3.792,-2.208c0.408,-0.21 0.897,-0.194 1.291,0.041Z" style="fill:#121212;fill-rule:nonzero;"/><path d="M401.333,732.167l4.167,2.333c0.333,0 0.292,0.5 0,0.708l-3.833,2.209c-0.391,0.207 -0.86,0.207 -1.25,0l-4.167,-2.292c-0.333,0 -0.292,-0.5 0,-0.75l3.792,-2.167c0.398,-0.22 0.879,-0.236 1.291,-0.041Z" style="fill:#121212;fill-rule:nonzero;"/><path d="M395.833,728.917l4.167,2.291c0.333,0 0.292,0.542 0,0.75l-3.792,2.209c-0.405,0.207 -0.886,0.207 -1.291,0l-4.167,-2.292c-0.292,0 -0.292,-0.542 0,-0.75l3.792,-2.208c0.406,-0.201 0.885,-0.201 1.291,0Z" style="fill:#121212;fill-rule:nonzero;"/><path d="M390.042,725.667l4.166,2.291c0.334,0 0.292,0.542 0,0.75l-3.833,2.209c-0.395,0.187 -0.855,0.187 -1.25,0l-4.167,-2.292c-0.333,0 -0.291,-0.542 0,-0.75l3.792,-2.208c0.405,-0.208 0.886,-0.208 1.292,0Z" style="fill:#121212;fill-rule:nonzero;"/><path d="M384.375,722.417l4.167,2.291c0.333,0 0.291,0.5 0,0.75l-3.792,2.167c-0.405,0.208 -0.886,0.208 -1.292,0l-4.166,-2.333c-0.292,0 -0.292,-0.5 0,-0.709l3.791,-2.208c0.409,-0.209 0.898,-0.194 1.292,0.042Z" style="fill:#121212;fill-rule:nonzero;"/><path d="M378.75,719.125l4.167,2.333c0.333,0 0.291,0.5 0,0.709l-3.834,2.208c-0.39,0.207 -0.859,0.207 -1.25,0l-4.166,-2.292c-0.334,0 -0.292,-0.5 0,-0.708l3.791,-2.208c0.405,-0.197 0.875,-0.212 1.292,-0.042Z" style="fill:#121212;fill-rule:nonzero;"/><path d="M373.083,715.875l4.167,2.333c0.333,0 0.292,0.5 0,0.709l-3.792,2.208c-0.405,0.208 -0.886,0.208 -1.291,0l-4.167,-2.292c-0.292,-0.208 -0.292,-0.541 0,-0.75l3.792,-2.208c0.406,-0.201 0.885,-0.201 1.291,0Z" style="fill:#121212;fill-rule:nonzero;"/><path d="M367.458,712.5l4.167,2.292c0.333,0 0.292,0.541 0,0.75l-3.833,2.208c-0.391,0.207 -0.86,0.207 -1.25,0l-4.167,-2.292c-0.333,-0.208 -0.292,-0.541 0,-0.75l3.792,-2.208c0.405,-0.208 0.886,-0.208 1.291,0Z" style="fill:#121212;fill-rule:nonzero;"/><path d="M361.792,709.375l4.166,2.292c0.334,0 0.292,0.5 0,0.75l-3.791,2.208c-0.41,0.189 -0.882,0.189 -1.292,0l-4.167,-2.333c-0.291,0 -0.291,-0.5 0,-0.709l3.792,-2.208c0.401,-0.222 0.89,-0.222 1.292,0Z" style="fill:#121212;fill-rule:nonzero;"/><path d="M356.167,706.125l4.166,2.292c0.334,0 0.292,0.5 0,0.708l-3.833,2.208c-0.397,0.182 -0.853,0.182 -1.25,0l-4.167,-2.333c-0.333,0 -0.291,-0.5 0,-0.708l3.792,-2.209c0.412,-0.194 0.893,-0.179 1.292,0.042Z" style="fill:#121212;fill-rule:nonzero;"/><path d="M343.542,698.792l10.958,6.375c0.333,0 0.292,0.5 0,0.708l-3.792,2.208c-0.405,0.208 -0.886,0.208 -1.291,0l-10.959,-6.333c-0.333,0 -0.291,-0.5 0,-0.708l3.792,-2.209c0.405,-0.197 0.875,-0.212 1.292,-0.041Z" style="fill:#121212;fill-rule:nonzero;"/><path d="M418.292,741.958l5.416,3.167c0.334,0 0.292,0.5 0,0.708l-3.791,2.209c-0.406,0.207 -0.887,0.207 -1.292,0l-5.458,-3.125c-0.292,0 -0.25,-0.542 0,-0.75l3.791,-2.209c0.422,-0.202 0.912,-0.202 1.334,0Z" style="fill:#121212;fill-rule:nonzero;"/><path d="M321.417,711.583l80.208,46.292c0.292,0 0.25,0.5 0,0.75l-1.875,1.083c-0.405,0.208 -0.886,0.208 -1.292,0l-80.291,-46.25c-0.334,0 -0.292,-0.5 0,-0.75l1.916,-1.083c0.405,-0.251 0.914,-0.267 1.334,-0.042Z" style="fill:#121212;fill-rule:nonzero;"/><path id="_Контур_9_" serif:id="_Контур_9" d="M416.292,714.625l-0.542,0.292l-13.792,7.958l-24.541,-14.167l-0.542,-0.291l14.333,-8.25l25.084,14.458Z" style="fill:#bfbfbf;fill-rule:nonzero;"/><path id="_Контур_10_" serif:id="_Контур_10" d="M415.75,714.917l-13.792,7.958l-24.541,-14.167l13.791,-7.958l24.542,14.167Z" style="fill:#e5e5e5;fill-rule:nonzero;"/><path id="_Контур_11_" serif:id="_Контур_11" d="M455.667,733.333l0,1.25c-0.057,1.726 -1.004,3.305 -2.5,4.167l-48.709,28.125c-1.545,0.892 -3.455,0.892 -5,0l-88.083,-50.833c-1.54,-0.919 -2.491,-2.582 -2.5,-4.375l0,-1.25l93.083,53.75l53.709,-30.834Z" style="fill:#e5e5e5;fill-rule:nonzero;"/><path id="_Контур_12_" serif:id="_Контур_12" d="M401.958,764.208l0,3.375c-0.878,0.012 -1.743,-0.219 -2.5,-0.666l-88.083,-50.834c-1.54,-0.918 -2.491,-2.581 -2.5,-4.375l0,-1.25l93.083,53.75Z" style="fill:#e5e5e5;fill-rule:nonzero;"/><path id="_Контур_13_" serif:id="_Контур_13" d="M400.542,764.958c-1.689,0.669 -3.593,0.531 -5.167,-0.375l-87.5,-50.625c-1.537,-0.883 -2.595,-2.416 -2.875,-4.166l-9.625,-57.25c-0.021,-0.319 -0.021,-0.64 0,-0.959c0.029,-1.569 0.673,-3.066 1.792,-4.166l90.833,52.583c1.171,0.623 1.977,1.77 2.167,3.083l10.375,61.875Z" style="fill:#f4f4f4;fill-rule:nonzero;"/><path id="_Контур_14_" serif:id="_Контур_14" d="M401.958,764.25l-0.625,0.333c-0.251,0.15 -0.516,0.276 -0.791,0.375l-10.375,-61.916c-0.19,-1.314 -0.996,-2.46 -2.167,-3.084l-91.083,-52.625c0.347,-0.373 0.755,-0.683 1.208,-0.916l91.292,52.708c1.13,0.661 1.909,1.792 2.125,3.083l10.416,62.042Z" style="fill:#e5e5e5;fill-rule:nonzero;"/></g></g></g><g id="Men_11"><path id="_Контур_15_" serif:id="_Контур_15" d="M1606.25,530.333c7.228,12.857 15.986,24.791 26.083,35.542c2.834,3.25 24.542,-5.042 20,-7.375c-4.541,-2.333 -18.75,-22.125 -25.875,-35.333c-5.959,-15.757 -11.023,-31.838 -15.166,-48.167c-4.5,-16.167 -8.334,-39.875 -11.584,-51.042c-1.722,-8.421 -8.272,-15.069 -16.666,-16.916c-7.792,-1.792 -12.834,0.333 -11.417,9.791c2.542,16.5 15.5,80.959 34.625,113.5Z" style="fill:#ffcea9;fill-rule:nonzero;"/><path d="M1593.83,782.667c6.709,5.458 16.667,0.458 17.125,0.958c7.952,7.391 16.297,14.345 25,20.833c4.167,3.292 10.75,7.709 9.542,14.042c-2.125,11.375 -20.25,7.875 -27.083,4.417c-6.834,-3.459 -12.5,-9.209 -18.917,-13.25c-4.625,-2.875 -9.167,-4.375 -9.917,-10.209c-0.583,-3.625 3.042,-16.916 4.25,-16.791Z" style="fill:#1c3ffd;fill-rule:nonzero;"/><path d="M1589.54,796.958c0.875,5.584 5.375,7.125 9.958,9.959c6.583,4.166 12.5,10 19.208,13.458c6.709,3.458 22.084,6.375 26.542,-1.708c-2.417,10.916 -20.25,7.5 -27,4.166c-6.75,-3.333 -12.5,-9.208 -18.917,-13.25c-4.625,-2.875 -9.166,-4.375 -9.916,-10.208c-0.037,-0.808 0.005,-1.617 0.125,-2.417Z" style="fill:#0228f4;fill-rule:nonzero;"/><path d="M1662.04,743.375c6.708,5.458 18.5,-0.5 19,0c6.997,7.088 14.398,13.766 22.166,20c4.167,3.292 10.75,7.708 9.542,14.042c-2.083,11.375 -20.25,7.875 -27.083,4.416c-6.834,-3.458 -12.5,-9.208 -18.917,-13.25c-4.625,-2.875 -9.167,-4.375 -9.917,-10.208c-0.416,-3.5 4,-15.125 5.209,-15Z" style="fill:#1c3ffd;fill-rule:nonzero;"/><path d="M1657.04,756.833c0.916,5.584 5.375,7.125 9.958,9.959c6.583,4.166 12.5,10 19.25,13.458c6.75,3.458 22.083,6.417 26.542,-1.708c-2.417,10.958 -20.25,7.5 -27.042,4.166c-6.792,-3.333 -12.5,-9.208 -18.875,-13.25c-4.625,-2.875 -9.167,-4.166 -9.917,-10.166c-0.032,-0.821 -0.005,-1.642 0.084,-2.459Z" style="fill:#0228f4;fill-rule:nonzero;"/><path id="_Контур_16_" serif:id="_Контур_16" d="M1503.88,567.083c-7.417,46.542 13.25,63.959 40.167,73.834c19.291,7.125 46.958,18.083 46.958,18.083c0,0 -0.375,10.208 -0.625,33.333c0,20.209 2.5,93.917 2.5,93.917c0,0 11.125,5.792 20.583,0c0,0 10.834,-56.5 13.125,-81.958c3.125,-34.584 8.334,-57.167 6.667,-64.625c-1.542,-6.542 -39.292,-25 -51.292,-35.042l79.167,26.5c-1.575,8.576 -2.342,17.281 -2.292,26c0.709,27.417 2.25,86.792 2.25,86.792c0,0 10.834,7.833 20.084,0c0,0 19.916,-117.459 17.5,-133.042c-2.292,-14.75 -72,-44.917 -84.292,-55.292c-4.334,-3.533 -9.978,-5.05 -15.5,-4.166l-95,15.666Z" style="fill:#121212;fill-rule:nonzero;"/><g id="_Группа_3_" serif:id="_Группа_3"><g id="_Группа_4_" serif:id="_Группа_4"><path id="_Контур_17_" serif:id="_Контур_17" d="M1693.63,586.458l-53.167,-30.666c-0.94,-0.543 -2.101,-0.543 -3.041,0l-93.292,53.833l54.708,31.583l94.792,-54.75Z" style="fill:#f4f4f4;fill-rule:nonzero;"/><path d="M1596.38,629.917l-4.167,2.333c-0.333,0 -0.291,0.542 0,0.75l3.834,2.25c0.405,0.208 0.886,0.208 1.291,0l4.167,-2.333c0.292,0 0.25,-0.542 0,-0.75l-3.875,-2.25c-0.39,-0.208 -0.86,-0.208 -1.25,0Z" style="fill:#121212;fill-rule:nonzero;"/><path d="M1602.08,626.625l-4.166,2.333c-0.334,0 -0.292,0.5 0,0.75l3.875,2.209c0.405,0.207 0.886,0.207 1.291,0l4.167,-2.334c0.333,0 0.292,-0.5 0,-0.75l-3.875,-2.208c-0.405,-0.208 -0.886,-0.208 -1.292,0Z" style="fill:#121212;fill-rule:nonzero;"/><path d="M1607.88,623.25l-4.167,2.333c-0.333,0.209 -0.291,0.542 0,0.75l3.875,2.25c0.406,0.208 0.887,0.208 1.292,0l4.167,-2.333c0.333,-0.208 0.291,-0.542 0,-0.75l-3.875,-2.25c-0.41,-0.189 -0.882,-0.189 -1.292,0Z" style="fill:#121212;fill-rule:nonzero;"/><path d="M1613.58,620l-4.166,2.333c-0.334,0 -0.292,0.5 0,0.75l3.833,2.209c0.405,0.207 0.886,0.207 1.292,0l4.166,-2.334c0.334,0 0.292,-0.5 0,-0.75l-3.833,-2.208c-0.405,-0.208 -0.886,-0.208 -1.292,0Z" style="fill:#121212;fill-rule:nonzero;"/><path d="M1619.29,616.667l-4.167,2.333c-0.333,0.208 -0.292,0.542 0,0.75l3.875,2.25c0.405,0.208 0.886,0.208 1.292,0l4.166,-2.333c0.334,0 0.292,-0.542 0,-0.75l-3.875,-2.25c-0.405,-0.208 -0.886,-0.208 -1.291,0Z" style="fill:#121212;fill-rule:nonzero;"/><path d="M1625,613.375l-4.167,2.333c-0.333,0 -0.291,0.5 0,0.75l3.875,2.209c0.406,0.207 0.887,0.207 1.292,0l4.167,-2.334c0.333,0 0.291,-0.5 0,-0.75l-3.875,-2.208c-0.406,-0.208 -0.887,-0.208 -1.292,0Z" style="fill:#121212;fill-rule:nonzero;"/><path d="M1630.79,610.042l-4.167,2.333c-0.333,0.208 -0.292,0.542 0,0.75l3.833,2.25c0.406,0.208 0.887,0.208 1.292,0l4.167,-2.333c0.333,0 0.291,-0.542 0,-0.75l-3.834,-2.25c-0.409,-0.189 -0.882,-0.189 -1.291,0Z" style="fill:#121212;fill-rule:nonzero;"/><path d="M1636.5,606.75l-4.167,2.333c-0.333,0 -0.291,0.5 0,0.75l3.875,2.209c0.406,0.207 0.887,0.207 1.292,0l4.167,-2.334c0.333,0 0.291,-0.5 0,-0.75l-3.875,-2.208c-0.406,-0.208 -0.887,-0.208 -1.292,0Z" style="fill:#121212;fill-rule:nonzero;"/><path d="M1642.25,603.417l-4.167,2.333c-0.333,0.208 -0.291,0.542 0,0.75l3.875,2.25c0.406,0.208 0.887,0.208 1.292,0l4.167,-2.333c0.333,-0.209 0.291,-0.542 0,-0.75l-3.875,-2.25c-0.41,-0.189 -0.882,-0.189 -1.292,0Z" style="fill:#121212;fill-rule:nonzero;"/><path d="M1648,600l-4.167,2.333c-0.333,0 -0.291,0.5 0,0.75l3.834,2.209c0.405,0.207 0.886,0.207 1.291,0l4.167,-2.375c0.333,0 0.292,-0.5 0,-0.75l-3.833,-2.209c-0.412,-0.194 -0.894,-0.179 -1.292,0.042Z" style="fill:#121212;fill-rule:nonzero;"/><path d="M1653.71,596.792l-4.166,2.333c-0.334,0.208 -0.292,0.542 0,0.75l3.875,2.25c0.405,0.208 0.886,0.208 1.291,0l4.167,-2.333c0.333,-0.209 0.292,-0.542 0,-0.75l-3.875,-2.25c-0.41,-0.189 -0.882,-0.189 -1.292,0Z" style="fill:#121212;fill-rule:nonzero;"/><path d="M1659.46,593.5l-4.166,2.333c-0.334,0 -0.292,0.5 0,0.75l3.875,2.209c0.405,0.207 0.886,0.207 1.291,0l4.167,-2.375c0.333,0 0.292,-0.5 0,-0.709l-3.875,-2.25c-0.412,-0.194 -0.893,-0.179 -1.292,0.042Z" style="fill:#121212;fill-rule:nonzero;"/><path d="M1665.21,590.167l-4.166,2.333c-0.292,0.208 -0.25,0.542 0,0.75l3.875,2.25c0.39,0.207 0.859,0.207 1.25,0l4.166,-2.333c0.334,-0.209 0.292,-0.542 0,-0.75l-3.875,-2.25c-0.397,-0.177 -0.852,-0.177 -1.25,0Z" style="fill:#121212;fill-rule:nonzero;"/><path d="M1673.71,585.25l-6.833,3.958c-0.333,0 -0.292,0.5 0,0.75l3.875,2.209c0.405,0.207 0.886,0.207 1.292,0l6.833,-3.959c0.333,0 0.292,-0.5 0,-0.75l-3.833,-2.208c-0.417,-0.222 -0.917,-0.222 -1.334,0Z" style="fill:#121212;fill-rule:nonzero;"/><path d="M1599.29,621.792l-4.167,2.333c-0.333,0.208 -0.292,0.542 0,0.75l3.875,2.25c0.405,0.208 0.886,0.208 1.292,0l4.166,-2.333c0.334,-0.209 0.292,-0.542 0,-0.75l-3.875,-2.25c-0.405,-0.208 -0.886,-0.208 -1.291,0Z" style="fill:#121212;fill-rule:nonzero;"/><path d="M1605.04,618.458l-4.167,2.375c-0.333,0 -0.292,0.5 0,0.709l3.875,2.25c0.405,0.207 0.886,0.207 1.292,0l4.166,-2.334c0.334,0 0.292,-0.5 0,-0.75l-3.875,-2.208c-0.398,-0.221 -0.879,-0.236 -1.291,-0.042Z" style="fill:#121212;fill-rule:nonzero;"/><path d="M1610.79,615.167l-4.167,2.333c-0.333,0.208 -0.292,0.542 0,0.75l3.875,2.208c0.405,0.208 0.886,0.208 1.292,0l4.166,-2.333c0.334,-0.208 0.292,-0.542 0,-0.75l-3.875,-2.25c-0.412,-0.195 -0.893,-0.179 -1.291,0.042Z" style="fill:#121212;fill-rule:nonzero;"/><path d="M1616.67,611.833l-4.167,2.334c-0.333,0 -0.292,0.541 0,0.75l3.875,2.25c0.405,0.207 0.886,0.207 1.292,0l4.166,-2.334c0.334,0 0.292,-0.541 0,-0.75l-3.875,-2.25c-0.409,-0.189 -0.882,-0.189 -1.291,0Z" style="fill:#121212;fill-rule:nonzero;"/><path d="M1622.25,608.542l-4.167,2.333c-0.333,0 -0.291,0.542 0,0.75l3.875,2.25c0.406,0.208 0.887,0.208 1.292,0l4.167,-2.333c0.333,-0.209 0.291,-0.542 0,-0.75l-3.875,-2.25c-0.41,-0.189 -0.882,-0.189 -1.292,0Z" style="fill:#121212;fill-rule:nonzero;"/><path d="M1628,605.25l-4.167,2.333c-0.333,0 -0.291,0.5 0,0.75l3.875,2.209c0.406,0.207 0.887,0.207 1.292,0l4.167,-2.334c0.333,0 0.291,-0.5 0,-0.75l-3.875,-2.208c-0.406,-0.208 -0.887,-0.208 -1.292,0Z" style="fill:#121212;fill-rule:nonzero;"/><path d="M1633.75,601.917l-4.167,2.333c-0.291,0 -0.25,0.542 0,0.75l3.875,2.25c0.396,0.188 0.855,0.188 1.25,0l4.167,-2.333c0.333,-0.209 0.292,-0.542 0,-0.75l-3.875,-2.25c-0.394,-0.194 -0.856,-0.194 -1.25,0Z" style="fill:#121212;fill-rule:nonzero;"/><path d="M1639.5,598.583l-4.167,2.334c-0.333,0.208 -0.291,0.541 0,0.75l3.834,2.25c0.405,0.207 0.886,0.207 1.291,0l4.167,-2.334c0.333,0 0.292,-0.541 0,-0.75l-3.833,-2.208c-0.399,-0.221 -0.88,-0.236 -1.292,-0.042Z" style="fill:#121212;fill-rule:nonzero;"/><path d="M1645.25,595.292l-4.167,2.333c-0.333,0 -0.291,0.5 0,0.75l3.834,2.208c0.405,0.208 0.886,0.208 1.291,0l4.167,-2.375c0.333,0 0.292,-0.5 0,-0.708l-3.833,-2.25c-0.412,-0.195 -0.894,-0.179 -1.292,0.042Z" style="fill:#121212;fill-rule:nonzero;"/><path d="M1650.96,591.958l-4.166,2.334c-0.334,0.208 -0.292,0.541 0,0.75l3.875,2.25c0.405,0.207 0.886,0.207 1.291,0l4.167,-2.334c0.333,-0.208 0.292,-0.541 0,-0.75l-3.875,-2.25c-0.405,-0.207 -0.886,-0.207 -1.292,0Z" style="fill:#121212;fill-rule:nonzero;"/><path d="M1656.71,588.625l-4.166,2.375c-0.334,0 -0.292,0.5 0,0.708l3.875,2.25c0.405,0.208 0.886,0.208 1.291,0l4.167,-2.333c0.333,0 0.292,-0.5 0,-0.75l-3.875,-2.208c-0.398,-0.221 -0.88,-0.237 -1.292,-0.042Z" style="fill:#121212;fill-rule:nonzero;"/><path d="M1662.5,585.333l-4.167,2.334c-0.333,0.208 -0.291,0.541 0,0.75l3.875,2.208c0.406,0.208 0.887,0.208 1.292,0l4.167,-2.333c0.333,-0.209 0.291,-0.542 0,-0.75l-3.875,-2.25c-0.412,-0.195 -0.894,-0.179 -1.292,0.041Z" style="fill:#121212;fill-rule:nonzero;"/><path d="M1593.54,625l-6.792,3.917c-0.333,0.208 -0.292,0.541 0,0.75l3.875,2.25c0.41,0.189 0.882,0.189 1.292,0l6.791,-3.959c0.334,0 0.292,-0.5 0,-0.708l-3.875,-2.25c-0.405,-0.208 -0.886,-0.208 -1.291,0Z" style="fill:#121212;fill-rule:nonzero;"/><path d="M1673.42,585.042l-4.167,2.333c-0.376,0.207 -0.833,0.207 -1.208,0l-4.167,-2.333c-0.333,0 -0.333,-0.5 0,-0.709l0.333,0c0.292,0 0.292,-0.5 0,-0.666l-4.166,-2.5c-0.183,0 -0.334,-0.151 -0.334,-0.334c0,-0.183 0.151,-0.333 0.334,-0.333l2.541,-1.5c0.376,-0.207 0.833,-0.207 1.209,0l4.166,2.333l0.834,0.5l0.625,0.334l0.583,0.333l3.5,2.042c0.05,0.06 0.078,0.136 0.078,0.214c0,0.117 -0.061,0.225 -0.161,0.286Z" style="fill:#121212;fill-rule:nonzero;"/><path d="M1574.13,617.083l-4.167,2.334c-0.333,0 -0.291,0.5 0,0.75l3.875,2.208c0.406,0.208 0.887,0.208 1.292,0l4.167,-2.333c0.333,0 0.291,-0.5 0,-0.75l-3.875,-2.209c-0.406,-0.207 -0.887,-0.207 -1.292,0Z" style="fill:#121212;fill-rule:nonzero;"/><path d="M1579.88,613.75l-4.167,2.333c-0.333,0 -0.291,0.542 0,0.75l3.834,2.25c0.405,0.208 0.886,0.208 1.291,0l4.167,-2.333c0.333,-0.208 0.292,-0.542 0,-0.75l-3.833,-2.208c-0.399,-0.221 -0.88,-0.237 -1.292,-0.042Z" style="fill:#121212;fill-rule:nonzero;"/><path d="M1585.58,610.458l-4.166,2.334c-0.334,0.208 -0.292,0.541 0,0.75l3.875,2.25c0.409,0.189 0.882,0.189 1.291,0l4.167,-2.334c0.333,-0.208 0.292,-0.541 0,-0.75l-3.875,-2.25c-0.405,-0.207 -0.886,-0.207 -1.292,0Z" style="fill:#121212;fill-rule:nonzero;"/><path d="M1634.29,582.333l-4.167,2.334c-0.333,0.208 -0.292,0.541 0,0.75l3.875,2.25c0.41,0.189 0.882,0.189 1.292,0l4.166,-2.334c0.334,-0.208 0.292,-0.541 0,-0.75l-3.875,-2.25c-0.405,-0.207 -0.886,-0.207 -1.291,0Z" style="fill:#121212;fill-rule:nonzero;"/><path d="M1640,579.167l-4.167,2.333c-0.333,0 -0.291,0.5 0,0.75l3.875,2.208c0.406,0.208 0.887,0.208 1.292,0l4.167,-2.375c0.333,0 0.291,-0.5 0,-0.708l-3.875,-2.25c-0.412,-0.195 -0.894,-0.179 -1.292,0.042Z" style="fill:#121212;fill-rule:nonzero;"/><path d="M1645.83,575.708l-4.166,2.375c-0.334,0 -0.292,0.5 0,0.709l3.833,2.25c0.405,0.207 0.886,0.207 1.292,0l4.166,-2.334c0.334,0 0.292,-0.5 0,-0.75l-3.833,-2.208c-0.398,-0.221 -0.88,-0.236 -1.292,-0.042Z" style="fill:#121212;fill-rule:nonzero;"/><path d="M1651.46,572.417l-4.166,2.333c-0.334,0.208 -0.292,0.542 0,0.75l3.875,2.25c0.405,0.208 0.886,0.208 1.291,0l4.167,-2.333c0.333,-0.209 0.292,-0.542 0,-0.75l-3.875,-2.25c-0.41,-0.189 -0.882,-0.189 -1.292,0Z" style="fill:#121212;fill-rule:nonzero;"/><path d="M1592.79,606.292l-5.542,3.208c-0.333,0 -0.292,0.5 0,0.75l3.875,2.208c0.405,0.208 0.886,0.208 1.292,0l5.541,-3.208c0.292,-0.208 0.25,-0.542 0,-0.75l-3.875,-2.208c-0.401,-0.223 -0.89,-0.223 -1.291,0Z" style="fill:#121212;fill-rule:nonzero;"/><path d="M1628.58,585.625l-5.541,3.208c-0.334,0 -0.292,0.5 0,0.75l3.875,2.209c0.405,0.207 0.886,0.207 1.291,0l5.542,-3.209c0.333,-0.208 0.292,-0.541 0,-0.75l-3.875,-2.208c-0.405,-0.208 -0.886,-0.208 -1.292,0Z" style="fill:#121212;fill-rule:nonzero;"/><path d="M1621.38,589.792l-26.917,15.541c-0.333,0.209 -0.291,0.542 0,0.75l3.875,2.25c0.406,0.208 0.887,0.208 1.292,0l26.917,-15.541c0.333,-0.209 0.291,-0.542 0,-0.75l-3.875,-2.25c-0.406,-0.208 -0.887,-0.208 -1.292,0Z" style="fill:#121212;fill-rule:nonzero;"/><path d="M1595.29,617.667l-4.167,2.375c-0.333,0 -0.292,0.5 0,0.708l3.875,2.25c0.405,0.208 0.886,0.208 1.292,0l4.166,-2.333c0.334,0 0.292,-0.5 0,-0.75l-3.875,-2.209c-0.398,-0.22 -0.879,-0.236 -1.291,-0.041Z" style="fill:#121212;fill-rule:nonzero;"/><path d="M1601.04,614.375l-4.167,2.333c-0.333,0.209 -0.292,0.542 0,0.75l3.875,2.25c0.41,0.189 0.882,0.189 1.292,0l4.166,-2.333c0.334,-0.208 0.292,-0.542 0,-0.75l-3.875,-2.25c-0.405,-0.208 -0.886,-0.208 -1.291,0Z" style="fill:#121212;fill-rule:nonzero;"/><path d="M1606.75,611.083l-4.167,2.334c-0.333,0 -0.291,0.5 0,0.75l3.875,2.208c0.406,0.208 0.887,0.208 1.292,0l4.167,-2.333c0.333,0 0.291,-0.5 0,-0.75l-3.875,-2.209c-0.406,-0.207 -0.887,-0.207 -1.292,0Z" style="fill:#121212;fill-rule:nonzero;"/><path d="M1612.5,607.75l-4.167,2.333c-0.333,0.209 -0.291,0.542 0,0.75l3.875,2.25c0.406,0.208 0.887,0.208 1.292,0l4.167,-2.333c0.333,-0.208 0.291,-0.542 0,-0.75l-3.875,-2.25c-0.41,-0.189 -0.882,-0.189 -1.292,0Z" style="fill:#121212;fill-rule:nonzero;"/><path d="M1618.21,604.458l-4.166,2.334c-0.334,0.208 -0.292,0.541 0,0.75l3.875,2.208c0.405,0.208 0.886,0.208 1.291,0l4.167,-2.333c0.333,-0.209 0.292,-0.542 0,-0.75l-3.875,-2.25c-0.412,-0.195 -0.893,-0.179 -1.292,0.041Z" style="fill:#121212;fill-rule:nonzero;"/><path d="M1623.96,601.125l-4.166,2.375c-0.334,0 -0.292,0.5 0,0.708l3.875,2.25c0.405,0.208 0.886,0.208 1.291,0l4.167,-2.333c0.333,0 0.292,-0.5 0,-0.75l-3.875,-2.208c-0.398,-0.221 -0.88,-0.237 -1.292,-0.042Z" style="fill:#121212;fill-rule:nonzero;"/><path d="M1629.71,597.833l-4.166,2.334c-0.334,0.208 -0.292,0.541 0,0.75l3.875,2.25c0.409,0.189 0.882,0.189 1.291,0l4.167,-2.334c0.333,-0.208 0.292,-0.541 0,-0.75l-3.875,-2.25c-0.401,-0.222 -0.89,-0.222 -1.292,0Z" style="fill:#121212;fill-rule:nonzero;"/><path d="M1635.42,594.542l-4.167,2.333c-0.333,0 -0.292,0.5 0,0.75l3.875,2.208c0.405,0.208 0.886,0.208 1.292,0l4.166,-2.333c0.334,0 0.292,-0.5 0,-0.75l-3.875,-2.208c-0.405,-0.208 -0.886,-0.208 -1.291,0Z" style="fill:#121212;fill-rule:nonzero;"/><path d="M1641.17,591.208l-4.167,2.334c-0.333,0.208 -0.292,0.541 0,0.75l3.833,2.25c0.406,0.207 0.887,0.207 1.292,0l4.167,-2.334c0.291,-0.208 0.25,-0.541 0,-0.75l-3.834,-2.25c-0.409,-0.189 -0.882,-0.189 -1.291,0Z" style="fill:#121212;fill-rule:nonzero;"/><path d="M1646.88,587.917l-4.167,2.333c-0.333,0.208 -0.291,0.542 0,0.75l3.875,2.208c0.406,0.208 0.887,0.208 1.292,0l4.167,-2.333c0.333,-0.208 0.291,-0.542 0,-0.75l-3.875,-2.25c-0.412,-0.195 -0.894,-0.179 -1.292,0.042Z" style="fill:#121212;fill-rule:nonzero;"/><path d="M1652.63,584.583l-4.167,2.375c-0.333,0 -0.291,0.5 0,0.709l3.834,2.25c0.405,0.207 0.886,0.207 1.291,0l4.167,-2.334c0.333,0 0.292,-0.5 0,-0.75l-3.833,-2.208c-0.399,-0.221 -0.88,-0.236 -1.292,-0.042Z" style="fill:#121212;fill-rule:nonzero;"/><path d="M1658.33,581.292l-4.166,2.333c-0.334,0.208 -0.292,0.542 0,0.75l3.875,2.25c0.409,0.189 0.882,0.189 1.291,0l4.167,-2.333c0.333,-0.209 0.292,-0.542 0,-0.75l-3.875,-2.25c-0.405,-0.208 -0.886,-0.208 -1.292,0Z" style="fill:#121212;fill-rule:nonzero;"/><path d="M1589.58,620.833l-8.333,4.834c-0.333,0.208 -0.292,0.541 0,0.75l3.875,2.208c0.405,0.208 0.886,0.208 1.292,0l8.333,-4.833c0.333,-0.209 0.292,-0.542 0,-0.75l-3.875,-2.25c-0.412,-0.195 -0.893,-0.179 -1.292,0.041Z" style="fill:#121212;fill-rule:nonzero;"/><path d="M1586.92,616.125l-4.167,2.333c-0.333,0 -0.292,0.542 0,0.75l3.833,2.209c0.406,0.207 0.887,0.207 1.292,0l4.167,-2.334c0.333,0 0.291,-0.541 0,-0.75l-3.834,-2.25c-0.412,-0.194 -0.893,-0.179 -1.291,0.042Z" style="fill:#121212;fill-rule:nonzero;"/><path d="M1592.63,612.792l-4.167,2.375c-0.333,0 -0.291,0.5 0,0.708l3.875,2.25c0.406,0.208 0.887,0.208 1.292,0l4.167,-2.333c0.333,0 0.291,-0.5 0,-0.75l-3.875,-2.209c-0.399,-0.22 -0.88,-0.236 -1.292,-0.041Z" style="fill:#121212;fill-rule:nonzero;"/><path d="M1598.38,609.5l-4.167,2.333c-0.333,0 -0.291,0.542 0,0.75l3.834,2.25c0.409,0.189 0.882,0.189 1.291,0l4.167,-2.333c0.333,0 0.292,-0.542 0,-0.75l-3.833,-2.25c-0.406,-0.208 -0.887,-0.208 -1.292,0Z" style="fill:#121212;fill-rule:nonzero;"/><path d="M1604.17,606.208l-4.167,2.334c-0.333,0 -0.292,0.5 0,0.75l3.875,2.208c0.399,0.23 0.893,0.23 1.292,0l4.166,-2.333c0.334,0 0.292,-0.5 0,-0.75l-3.875,-2.209c-0.405,-0.207 -0.886,-0.207 -1.291,0Z" style="fill:#121212;fill-rule:nonzero;"/><path d="M1609.83,602.875l-4.166,2.333c-0.334,0.209 -0.292,0.542 0,0.75l3.833,2.25c0.405,0.208 0.886,0.208 1.292,0l4.166,-2.333c0.334,0 0.292,-0.542 0,-0.75l-3.833,-2.25c-0.41,-0.189 -0.882,-0.189 -1.292,0Z" style="fill:#121212;fill-rule:nonzero;"/><path d="M1615.54,599.583l-4.167,2.334c-0.333,0 -0.292,0.541 0,0.75l3.875,2.208c0.405,0.208 0.886,0.208 1.292,0l4.166,-2.333c0.334,0 0.292,-0.542 0,-0.75l-3.875,-2.25c-0.412,-0.195 -0.893,-0.179 -1.291,0.041Z" style="fill:#121212;fill-rule:nonzero;"/><path d="M1621.29,596.25l-4.167,2.375c-0.333,0 -0.292,0.5 0,0.708l3.833,2.25c0.406,0.208 0.887,0.208 1.292,0l4.167,-2.333c0.333,0 0.291,-0.5 0,-0.75l-3.834,-2.208c-0.398,-0.221 -0.879,-0.237 -1.291,-0.042Z" style="fill:#121212;fill-rule:nonzero;"/><path d="M1627,592.958l-4.167,2.334c-0.333,0 -0.291,0.541 0,0.75l3.875,2.25c0.406,0.207 0.887,0.207 1.292,0l4.167,-2.334c0.333,0 0.291,-0.541 0,-0.75l-3.875,-2.25c-0.406,-0.207 -0.887,-0.207 -1.292,0Z" style="fill:#121212;fill-rule:nonzero;"/><path d="M1632.75,589.667l-4.167,2.333c-0.333,0 -0.291,0.5 0,0.75l3.834,2.208c0.405,0.208 0.886,0.208 1.291,0l4.167,-2.375c0.333,0 0.292,-0.5 0,-0.708l-3.833,-2.25c-0.412,-0.195 -0.894,-0.179 -1.292,0.042Z" style="fill:#121212;fill-rule:nonzero;"/><path d="M1638.46,586.333l-4.166,2.334c-0.334,0.208 -0.292,0.541 0,0.75l3.875,2.25c0.405,0.207 0.886,0.207 1.291,0l4.167,-2.334c0.333,0 0.292,-0.541 0,-0.75l-3.875,-2.208c-0.398,-0.221 -0.88,-0.236 -1.292,-0.042Z" style="fill:#121212;fill-rule:nonzero;"/><path d="M1644.21,583.042l-4.166,2.333c-0.334,0 -0.292,0.542 0,0.75l3.833,2.208c0.405,0.208 0.886,0.208 1.292,0l4.166,-2.333c0.334,0 0.292,-0.542 0,-0.75l-3.833,-2.25c-0.412,-0.195 -0.893,-0.179 -1.292,0.042Z" style="fill:#121212;fill-rule:nonzero;"/><path d="M1657,575.625l-11.167,6.458c-0.333,0 -0.291,0.5 0,0.75l3.875,2.209c0.406,0.207 0.887,0.207 1.292,0l11.125,-6.417c0.333,0 0.292,-0.542 0,-0.75l-3.875,-2.208c-0.387,-0.207 -0.85,-0.223 -1.25,-0.042Z" style="fill:#121212;fill-rule:nonzero;"/><path d="M1581.17,619.417l-5.542,3.208c-0.292,0 -0.25,0.5 0,0.75l3.875,2.208c0.39,0.208 0.86,0.208 1.25,0l5.542,-3.166c0.333,0 0.291,-0.542 0,-0.75l-3.875,-2.25c-0.398,-0.177 -0.853,-0.177 -1.25,0Z" style="fill:#121212;fill-rule:nonzero;"/><path d="M1679.46,588.583l-81.375,47c-0.333,0 -0.291,0.5 0,0.75l1.959,1.084c0.405,0.207 0.886,0.207 1.291,0l81.334,-47c0.333,-0.209 0.291,-0.542 0,-0.75l-1.917,-1.125c-0.416,-0.176 -0.888,-0.161 -1.292,0.041Z" style="fill:#121212;fill-rule:nonzero;"/><path id="_Контур_18_" serif:id="_Контур_18" d="M1584.25,590.667l0.542,0.333l14.041,8.125l25,-14.458l0.5,-0.292l-14.583,-8.417l-25.5,14.709Z" style="fill:#bfbfbf;fill-rule:nonzero;"/><path id="_Контур_19_" serif:id="_Контур_19" d="M1584.79,591l14.041,8.125l25,-14.458l-14.083,-8.125l-24.958,14.458Z" style="fill:#e5e5e5;fill-rule:nonzero;"/><path id="_Контур_20_" serif:id="_Контур_20" d="M1544.13,609.625l0,1.25c0.006,1.838 0.992,3.539 2.583,4.458l49.542,28.584c0.777,0.474 1.673,0.72 2.583,0.708c0.898,0.011 1.78,-0.235 2.542,-0.708l89.667,-51.75c1.604,-0.906 2.595,-2.616 2.583,-4.459l0,-1.25l-94.792,54.75l-54.708,-31.583Z" style="fill:#e5e5e5;fill-rule:nonzero;"/><path id="_Контур_21_" serif:id="_Контур_21" d="M1600.29,641.958c1.705,0.677 3.632,0.522 5.208,-0.416l89.292,-51.542c1.553,-0.882 2.637,-2.41 2.958,-4.167l9.75,-58.333c0.04,-0.332 0.04,-0.668 0,-1c-0.029,-1.569 -0.673,-3.066 -1.792,-4.167l-92.791,53.584c-1.133,0.686 -1.921,1.823 -2.167,3.125l-10.458,62.916Z" style="fill:#f4f4f4;fill-rule:nonzero;"/><path id="_Контур_22_" serif:id="_Контур_22" d="M1598.83,641.208l0.625,0.334l0.834,0.416l10.541,-63.083c0.246,-1.301 1.034,-2.439 2.167,-3.125l92.792,-53.583c-0.372,-0.375 -0.792,-0.697 -1.25,-0.959l-92.959,53.792c-1.182,0.632 -1.989,1.796 -2.166,3.125l-10.584,63.083Z" style="fill:#e5e5e5;fill-rule:nonzero;"/></g></g><path id="_Контур_23_" serif:id="_Контур_23" d="M1531.46,391.667c0,0 1.125,22.208 0.625,24.166c-0.5,1.959 -10.166,8.334 -13,10.792c-2.833,2.458 15.334,20.25 24.167,24.292c8.833,4.041 36.792,-6.625 37.292,-20.375c0.5,-13.75 -4.792,-25.25 -9.084,-25.875c-4.291,-0.625 -40,-13 -40,-13Z" style="fill:#ffcea9;fill-rule:nonzero;"/><path id="_Контур_24_" serif:id="_Контур_24" d="M1529.17,419.75c0,0 16.083,23.958 38.541,26.25c7.084,-7 7.75,-31.833 -2.083,-39.75c0,0 9,-7.292 15.167,-5.875c6.632,4.007 11.57,10.31 13.875,17.708c5.723,16.491 8.405,33.885 7.916,51.334c-0.375,23.5 0,83 0,83c-2.666,14.198 -11.286,26.597 -23.666,34.041c-16.174,9.147 -35.243,11.785 -53.292,7.375c-11.375,-2.666 -15.625,-9.041 -19.542,-17.291c1.042,-16.667 7.542,-50.417 4.834,-71.167c-2.709,-20.75 -7.167,-36.208 -8.334,-53c-1.166,-16.792 2.209,-16.417 10.625,-22.375c5.067,-3.795 10.4,-7.221 15.959,-10.25Z" style="fill:#f4f4f4;fill-rule:nonzero;"/><path id="_Контур_25_" serif:id="_Контур_25" d="M1554.75,610.875c-4.002,-2.678 -8.178,-5.086 -12.5,-7.208c-4.069,-1.286 -7.77,-3.53 -10.792,-6.542c-3.958,-3.875 -10.416,-18.5 -15.041,-32.75c-4.603,-16.073 -6.435,-32.812 -5.417,-49.5c1.958,-20 9.167,-48 11,-59.5c1.833,-11.5 -1.917,-16.083 -7.25,-20.292c-6.292,-5 -14.958,-2.791 -19.583,13.334c-5.986,22.294 -9.479,45.185 -10.417,68.25c-0.207,17.137 2.44,34.19 7.833,50.458c4.769,13.94 11.22,27.246 19.209,39.625c2.208,3.75 2.916,7.042 6.291,14.625c3.259,7.625 8.321,14.346 14.75,19.583c5.625,4.167 8.334,4.625 9.625,3.875c1.292,-0.75 1.334,-2.791 -1.041,-4.958c-4.004,-3.108 -7.407,-6.921 -10.042,-11.25c-2.635,-4.329 4.917,4.958 8.333,7.667c2.879,2.381 6.042,4.396 9.417,6c3.333,1.416 7.875,-1.375 5.583,-3.584c-2.291,-2.208 -4.75,-3.291 -9.458,-7.375c-2.507,-2.138 -4.745,-4.573 -6.667,-7.25c3.304,2.52 6.801,4.777 10.459,6.75c2.8,1.692 6.021,2.558 9.291,2.5c1.75,0 3.875,-2.5 0.625,-4.875c-4.484,-2.268 -8.681,-5.066 -12.5,-8.333c-3.583,-3.583 -5.625,-6.625 -4.625,-6.667c1,-0.041 2.959,2.167 7.209,3.5c4.25,1.334 8.75,0 9.291,-2.208c0.542,-2.208 0.375,-1.917 -3.583,-3.875Z" style="fill:#ffcea9;fill-rule:nonzero;"/><path id="_Контур_26_" serif:id="_Контур_26" d="M1581.63,358.708c-2.625,-17.208 -15.042,-30.25 -32.792,-29.166c-18.661,1.133 -33.132,17.329 -32.166,36c0.575,10.523 6.036,20.196 14.75,26.125c0.637,2.607 1.559,5.136 2.75,7.541c6.291,7.334 25.291,11.875 30.75,11.084c6.638,-0.53 12.307,-5.089 14.25,-11.459c5.75,-13.541 3.916,-31.625 2.458,-40.125Z" style="fill:#ffcea9;fill-rule:nonzero;"/><path d="M1531.42,391.667l1.666,-15c0,0 -12.291,-31.792 16.667,-25.667c19.125,4.167 23.958,5.75 29.75,-7.083c5.792,-12.834 -14.708,-24.375 -39.083,-21.167c-17.332,1.808 -30.541,16.787 -30.167,34.208c0.667,9.709 3.167,28.625 21.167,34.709Z" style="fill:#121212;fill-rule:nonzero;"/><path d="M1481.79,478c0,0 15.833,15.708 34.541,11.208c2.709,-1.833 9.125,-38.625 9.125,-38.625c0,0 0,-20.375 -15.625,-19.833c-15.625,0.542 -28.041,47.25 -28.041,47.25Z" style="fill:#ededed;fill-rule:nonzero;"/><path d="M1601.29,447.458c4.422,-0.181 8.612,-2.045 11.708,-5.208c-0.625,-8.333 -11.167,-39.542 -32.417,-41.667c5.794,4.035 10.388,9.565 13.292,16c3.253,10.089 5.732,20.41 7.417,30.875Z" style="fill:#ededed;fill-rule:nonzero;"/></g></g></svg>