<svg width="261" height="261" viewBox="0 0 261 261" fill="none" xmlns="http://www.w3.org/2000/svg">
<path d="M90.4955 171.355C105.349 171.355 117.391 159.314 117.391 144.46C117.391 129.606 105.349 117.565 90.4955 117.565C75.6417 117.565 63.6003 129.606 63.6003 144.46C63.6003 159.314 75.6417 171.355 90.4955 171.355Z" fill="#FF7B7B"/>
<path d="M100.917 169.236C97.6004 170.639 94.0361 171.362 90.4353 171.362C75.6752 171.362 63.5295 159.216 63.5295 144.456C63.5295 134.414 69.1518 125.174 78.0709 120.56C73.0638 125.921 70.2762 132.99 70.2762 140.327C70.2762 156.212 83.3459 169.285 99.2312 169.288C99.8157 169.283 100.364 169.268 100.917 169.236Z" fill="#E26D6D"/>
<path d="M97.9892 130.432C99.3956 130.432 100.536 129.292 100.536 127.885C100.536 126.479 99.3956 125.339 97.9892 125.339C96.5828 125.339 95.4427 126.479 95.4427 127.885C95.4427 129.292 96.5828 130.432 97.9892 130.432Z" fill="#E26D6D"/>
<path d="M74.9611 132.088C76.3675 132.088 77.5076 130.948 77.5076 129.542C77.5076 128.135 76.3675 126.995 74.9611 126.995C73.5547 126.995 72.4146 128.135 72.4146 129.542C72.4146 130.948 73.5547 132.088 74.9611 132.088Z" fill="#F4F6F9"/>
<path d="M84.0569 129.796C85.1117 129.796 85.9668 128.941 85.9668 127.886C85.9668 126.831 85.1117 125.976 84.0569 125.976C83.002 125.976 82.1469 126.831 82.1469 127.886C82.1469 128.941 83.002 129.796 84.0569 129.796Z" fill="#F4F6F9"/>
<path d="M87.5474 145.909C89.902 145.909 91.8108 144 91.8108 141.645C91.8108 139.291 89.902 137.382 87.5474 137.382C85.1928 137.382 83.284 139.291 83.284 141.645C83.284 144 85.1928 145.909 87.5474 145.909Z" fill="#E26D6D"/>
<path d="M73.2281 154.384C75.5828 154.384 77.4916 152.475 77.4916 150.12C77.4916 147.765 75.5828 145.857 73.2281 145.857C70.8735 145.857 68.9647 147.765 68.9647 150.12C68.9647 152.475 70.8735 154.384 73.2281 154.384Z" fill="#F4F6F9"/>
<path d="M93.0005 161.074C95.3551 161.074 97.2639 159.165 97.2639 156.811C97.2639 154.456 95.3551 152.547 93.0005 152.547C90.6459 152.547 88.7371 154.456 88.7371 156.811C88.7371 159.165 90.6459 161.074 93.0005 161.074Z" fill="#E26D6D"/>
<path d="M106.584 156.812C107.991 156.812 109.131 155.672 109.131 154.265C109.131 152.859 107.991 151.719 106.584 151.719C105.178 151.719 104.038 152.859 104.038 154.265C104.038 155.672 105.178 156.812 106.584 156.812Z" fill="#D16969"/>
<path d="M80.0544 164.269C81.1092 164.269 81.9643 163.413 81.9643 162.359C81.9643 161.304 81.1092 160.449 80.0544 160.449C78.9996 160.449 78.1445 161.304 78.1445 162.359C78.1445 163.413 78.9996 164.269 80.0544 164.269Z" fill="#D16969"/>
<path d="M73.985 142.667C75.0398 142.667 75.8949 141.812 75.8949 140.757C75.8949 139.703 75.0398 138.847 73.985 138.847C72.9302 138.847 72.0751 139.703 72.0751 140.757C72.0751 141.812 72.9302 142.667 73.985 142.667Z" fill="#D16969"/>
<path d="M104.038 141.455C105.444 141.455 106.584 140.315 106.584 138.909C106.584 137.502 105.444 136.362 104.038 136.362C102.631 136.362 101.491 137.502 101.491 138.909C101.491 140.315 102.631 141.455 104.038 141.455Z" fill="#D16969"/>
<path d="M87.5473 117.727C89.6972 113.171 89.4416 105.203 89.4416 105.203H91.6854C91.6854 105.203 91.962 114.027 93.6318 117.727" fill="#FF7B7B"/>
<path d="M91.7165 105.907H91.6801C90.9192 105.95 90.158 105.83 89.4466 105.558C88.7351 105.285 89.4466 105.203 89.4466 105.203H91.6905C91.6905 105.203 91.7009 105.61 91.7165 105.907Z" fill="#E26D6D"/>
<path d="M90.5899 105.413C92.0107 105.413 93.1626 104.838 93.1626 104.129C93.1626 103.42 92.0107 102.845 90.5899 102.845C89.169 102.845 88.0172 103.42 88.0172 104.129C88.0172 104.838 89.169 105.413 90.5899 105.413Z" fill="#FF7B7B"/>
<path fill-rule="evenodd" clip-rule="evenodd" d="M89.1872 103.319C89.4508 103.257 89.6872 103.303 89.7148 103.42C89.7424 103.538 89.5508 103.684 89.2871 103.746C89.0235 103.807 88.7872 103.762 88.7596 103.644C88.732 103.526 88.9236 103.381 89.1872 103.319Z" fill="#F4F6F9"/>
<path d="M96.7838 118.848C99.5234 116.119 101.407 110.301 101.407 110.301L103.03 110.885C103.03 110.885 100.943 117.33 101.178 120.445" fill="#FF7B7B"/>
<path d="M102.868 111.391C102.31 111.221 101.793 110.937 101.35 110.556L101.433 110.301L103.056 110.885C103.056 110.885 102.947 111.172 102.868 111.391Z" fill="#E26D6D"/>
<path fill-rule="evenodd" clip-rule="evenodd" d="M100.669 109.119C100.853 108.607 101.835 108.49 102.859 108.859C103.883 109.228 104.565 109.944 104.381 110.456C104.196 110.968 103.215 111.084 102.191 110.715C101.166 110.346 100.485 109.631 100.669 109.119Z" fill="#FF7B7B"/>
<path fill-rule="evenodd" clip-rule="evenodd" d="M101.324 108.963C101.335 108.872 101.511 108.817 101.717 108.841C101.923 108.864 102.081 108.958 102.071 109.05C102.06 109.141 101.884 109.196 101.678 109.172C101.472 109.148 101.314 109.055 101.324 108.963Z" fill="#F4F6F9"/>
<path d="M102.576 121.316C105.415 119.578 108.165 115.08 108.165 115.08L109.402 115.894C109.402 115.894 106.354 120.872 105.937 123.533" fill="#FF7B7B"/>
<path d="M109.167 116.343C108.731 116.09 108.354 115.747 108.06 115.336L108.186 115.143L109.422 115.957L109.167 116.343Z" fill="#E26D6D"/>
<path fill-rule="evenodd" clip-rule="evenodd" d="M107.775 113.982C108.032 113.589 108.879 113.688 109.664 114.203C110.449 114.718 110.878 115.454 110.62 115.847C110.363 116.24 109.516 116.14 108.731 115.626C107.946 115.111 107.517 114.374 107.775 113.982Z" fill="#FF7B7B"/>
<path fill-rule="evenodd" clip-rule="evenodd" d="M108.354 113.998C108.382 113.922 108.541 113.911 108.708 113.972C108.876 114.033 108.99 114.144 108.962 114.22C108.934 114.296 108.776 114.308 108.608 114.246C108.44 114.185 108.327 114.074 108.354 113.998Z" fill="#F4F6F9"/>
<path d="M79.7301 120.677C80.1111 117.369 78.2689 112.432 78.2689 112.432L79.6728 111.957C79.6728 111.957 81.713 117.431 83.5499 119.404" fill="#FF7B7B"/>
<path d="M79.8399 112.401C79.3728 112.588 78.871 112.674 78.3683 112.651C77.8656 112.629 78.29 112.432 78.29 112.432L79.6937 111.957L79.8399 112.401Z" fill="#E26D6D"/>
<path fill-rule="evenodd" clip-rule="evenodd" d="M78.4837 110.722C79.3731 110.422 80.2174 110.539 80.3675 110.984C80.5177 111.428 79.9174 112.033 79.028 112.334C78.1384 112.634 77.2943 112.517 77.144 112.072C76.9938 111.627 77.5941 111.022 78.4837 110.722Z" fill="#FF7B7B"/>
<path fill-rule="evenodd" clip-rule="evenodd" d="M77.7018 111.279C77.8534 111.185 78.0111 111.164 78.0537 111.233C78.0963 111.302 78.0076 111.434 77.8559 111.528C77.7043 111.622 77.5465 111.643 77.504 111.574C77.4614 111.506 77.5501 111.374 77.7018 111.279Z" fill="#F4F6F9"/>
<path d="M116.019 138.975C119.15 140.05 124.368 139.283 124.368 139.283L124.535 140.76C124.535 140.76 118.758 141.6 116.441 142.977" fill="#FF7B7B"/>
<path d="M124.096 140.843V140.817C124.013 140.321 124.036 139.812 124.164 139.325L124.394 139.293L124.561 140.77L124.096 140.843Z" fill="#E26D6D"/>
<path fill-rule="evenodd" clip-rule="evenodd" d="M124.992 138.277C125.458 138.224 125.923 138.938 126.029 139.871C126.135 140.804 125.843 141.604 125.376 141.657C124.91 141.71 124.445 140.996 124.339 140.063C124.233 139.13 124.525 138.33 124.992 138.277Z" fill="#FF7B7B"/>
<path fill-rule="evenodd" clip-rule="evenodd" d="M125.375 138.724C125.451 138.697 125.562 138.811 125.622 138.979C125.682 139.148 125.669 139.306 125.593 139.333C125.517 139.36 125.407 139.246 125.347 139.078C125.286 138.91 125.299 138.751 125.375 138.724Z" fill="#F4F6F9"/>
<path d="M116.608 144.519C119.463 146.241 124.718 146.606 124.718 146.606L124.566 148.083C124.566 148.083 118.743 147.676 116.186 148.526" fill="#FF7B7B"/>
<path d="M124.102 148.067C124.123 147.563 124.253 147.07 124.483 146.621H124.713L124.561 148.098L124.102 148.067Z" fill="#E26D6D"/>
<path fill-rule="evenodd" clip-rule="evenodd" d="M124.509 147.401C124.604 146.467 125.061 145.747 125.528 145.795C125.995 145.843 126.297 146.64 126.201 147.574C126.106 148.508 125.649 149.228 125.182 149.18C124.715 149.132 124.414 148.335 124.509 147.401Z" fill="#FF7B7B"/>
<path fill-rule="evenodd" clip-rule="evenodd" d="M125.921 145.794C126.001 145.783 126.085 145.918 126.108 146.095C126.131 146.272 126.085 146.424 126.005 146.434C125.926 146.445 125.842 146.31 125.819 146.133C125.795 145.956 125.841 145.804 125.921 145.794Z" fill="#F4F6F9"/>
<path d="M114.26 155.287C116.149 158.032 120.788 160.532 120.788 160.532L120.042 161.816C120.042 161.816 114.907 159.039 112.214 158.763" fill="#FF7B7B"/>
<path d="M119.646 161.612C119.875 161.162 120.197 160.766 120.59 160.449L120.794 160.564L120.047 161.847L119.646 161.612Z" fill="#E26D6D"/>
<path fill-rule="evenodd" clip-rule="evenodd" d="M120.296 161.107C120.767 160.296 121.48 159.828 121.886 160.064C122.292 160.3 122.238 161.151 121.766 161.962C121.294 162.774 120.582 163.241 120.176 163.005C119.77 162.77 119.824 161.919 120.296 161.107Z" fill="#FF7B7B"/>
<path fill-rule="evenodd" clip-rule="evenodd" d="M121.686 160.973C121.738 160.803 121.843 160.683 121.92 160.707C121.997 160.73 122.017 160.888 121.965 161.059C121.913 161.229 121.808 161.349 121.731 161.325C121.654 161.302 121.634 161.144 121.686 160.973Z" fill="#F4F6F9"/>
<path d="M114.188 132.786C118.039 133.125 123.706 130.819 123.706 130.819L124.306 132.436C124.306 132.436 118.044 134.983 115.79 137.175" fill="#FF7B7B"/>
<path d="M123.821 132.619C123.587 132.083 123.471 131.503 123.481 130.918L123.732 130.819L124.332 132.436L123.821 132.619Z" fill="#E26D6D"/>
<path fill-rule="evenodd" clip-rule="evenodd" d="M124.118 129.512C124.628 129.323 125.349 129.999 125.726 131.021C126.103 132.042 125.995 133.024 125.485 133.213C124.974 133.401 124.253 132.725 123.876 131.704C123.499 130.683 123.607 129.701 124.118 129.512Z" fill="#FF7B7B"/>
<path fill-rule="evenodd" clip-rule="evenodd" d="M124.664 129.876C124.741 129.825 124.896 129.924 125.011 130.098C125.125 130.271 125.155 130.452 125.078 130.503C125.002 130.554 124.846 130.455 124.732 130.282C124.618 130.109 124.587 129.927 124.664 129.876Z" fill="#F4F6F9"/>
<path d="M116.285 150.317C119.067 153.005 124.922 154.779 124.922 154.779L124.368 156.412C124.368 156.412 117.887 154.44 114.772 154.742" fill="#FF7B7B"/>
<path d="M123.851 156.189C124.01 155.625 124.285 155.101 124.66 154.65L124.916 154.734L124.362 156.367L123.851 156.189Z" fill="#E26D6D"/>
<path fill-rule="evenodd" clip-rule="evenodd" d="M124.497 155.528C124.846 154.497 125.548 153.802 126.064 153.976C126.579 154.151 126.714 155.129 126.365 156.161C126.016 157.192 125.314 157.887 124.799 157.713C124.283 157.538 124.148 156.559 124.497 155.528Z" fill="#FF7B7B"/>
<path fill-rule="evenodd" clip-rule="evenodd" d="M126.041 155.008C126.061 154.802 126.152 154.642 126.244 154.65C126.336 154.659 126.394 154.834 126.374 155.04C126.354 155.247 126.263 155.407 126.172 155.398C126.08 155.39 126.022 155.215 126.041 155.008Z" fill="#F4F6F9"/>
<path d="M106.077 165.865C106.401 169.716 109.631 174.914 109.631 174.914L108.139 175.775C108.139 175.775 104.564 170.034 102.023 168.192" fill="#FF7B7B"/>
<path d="M107.847 175.285C108.337 174.965 108.888 174.752 109.465 174.658L109.606 174.893L108.113 175.754L107.847 175.285Z" fill="#E26D6D"/>
<path fill-rule="evenodd" clip-rule="evenodd" d="M108.786 175.238C109.729 174.692 110.715 174.632 110.988 175.103C111.26 175.574 110.717 176.4 109.775 176.945C108.832 177.49 107.846 177.551 107.573 177.079C107.301 176.608 107.844 175.783 108.786 175.238Z" fill="#FF7B7B"/>
<path fill-rule="evenodd" clip-rule="evenodd" d="M110.305 175.777C110.456 175.635 110.63 175.574 110.693 175.642C110.756 175.709 110.684 175.879 110.533 176.021C110.382 176.163 110.208 176.224 110.145 176.156C110.082 176.089 110.154 175.919 110.305 175.777Z" fill="#F4F6F9"/>
<path d="M108.551 124.575C113.383 123.171 119.176 117.692 119.176 117.692L120.668 119.372C120.668 119.372 114.244 125.426 112.575 129.141" fill="#FF7B7B"/>
<path d="M120.167 119.864C119.632 119.322 119.218 118.672 118.952 117.959C118.685 117.245 119.207 117.719 119.207 117.719L120.7 119.399L120.167 119.864Z" fill="#E26D6D"/>
<path fill-rule="evenodd" clip-rule="evenodd" d="M119.049 115.897C119.58 115.427 120.775 115.908 121.716 116.971C122.658 118.034 122.992 119.278 122.461 119.748C121.931 120.218 120.736 119.737 119.794 118.674C118.853 117.611 118.519 116.367 119.049 115.897Z" fill="#FF7B7B"/>
<path fill-rule="evenodd" clip-rule="evenodd" d="M119.91 116.087C119.98 115.988 120.216 116.035 120.437 116.192C120.658 116.348 120.781 116.555 120.711 116.654C120.641 116.753 120.405 116.706 120.184 116.549C119.963 116.393 119.84 116.186 119.91 116.087Z" fill="#F4F6F9"/>
<path d="M112.993 159.238C115.132 163.799 121.436 168.668 121.436 168.668L120.006 170.4C120.006 170.4 113.029 164.994 109.1 163.919" fill="#FF7B7B"/>
<path d="M119.447 169.998V169.972C119.897 169.357 120.474 168.846 121.138 168.474C121.802 168.101 121.415 168.688 121.415 168.688L119.985 170.42L119.447 169.998Z" fill="#E26D6D"/>
<path fill-rule="evenodd" clip-rule="evenodd" d="M120.554 169.424C121.458 168.329 122.636 167.806 123.182 168.257C123.728 168.708 123.438 169.964 122.534 171.059C121.63 172.153 120.453 172.676 119.907 172.225C119.36 171.774 119.65 170.519 120.554 169.424Z" fill="#FF7B7B"/>
<path fill-rule="evenodd" clip-rule="evenodd" d="M122.679 169.531C122.799 169.289 122.985 169.135 123.093 169.189C123.201 169.243 123.192 169.484 123.071 169.726C122.951 169.969 122.765 170.122 122.657 170.068C122.549 170.014 122.558 169.774 122.679 169.531Z" fill="#F4F6F9"/>
<path d="M85.8982 170.969C82.5637 174.747 80.5964 182.45 80.5964 182.45L78.4412 181.824C78.4412 181.824 80.6278 173.276 80.0537 169.242" fill="#E26D6D"/>
<path d="M78.6083 181.158H78.6396C79.3834 181.329 80.0823 181.657 80.6904 182.118L80.5965 182.457L78.4412 181.831L78.6083 181.158Z" fill="#D16969"/>
<path fill-rule="evenodd" clip-rule="evenodd" d="M76.7188 182.506C76.9157 181.825 78.183 181.593 79.5468 181.988C80.9108 182.382 81.8581 183.255 81.6612 183.936C81.4642 184.616 80.1971 184.848 78.8331 184.454C77.4692 184.059 76.5218 183.186 76.7188 182.506Z" fill="#E26D6D"/>
<path fill-rule="evenodd" clip-rule="evenodd" d="M79.8362 184.157C79.8425 184.036 80.067 183.949 80.3374 183.963C80.6078 183.977 80.8222 184.087 80.816 184.207C80.8097 184.328 80.5851 184.415 80.3148 184.401C80.0445 184.387 79.8299 184.278 79.8362 184.157Z" fill="#F4F6F9"/>
<path d="M67.2217 157.998C62.1912 157.863 55.0109 161.312 55.0109 161.312L54.1029 159.261C54.1029 159.261 62.0609 155.446 64.7848 152.42" fill="#E26D6D"/>
<path d="M54.735 158.919V158.951C55.0795 159.631 55.2768 160.376 55.3143 161.137L54.9959 161.283L54.0879 159.233L54.735 158.919Z" fill="#D16969"/>
<path fill-rule="evenodd" clip-rule="evenodd" d="M52.5161 158.339C53.1642 158.053 54.1559 158.875 54.7291 160.174C55.3023 161.474 55.2414 162.76 54.5932 163.046C53.9451 163.332 52.9534 162.51 52.3802 161.211C51.807 159.912 51.8679 158.625 52.5161 158.339Z" fill="#E26D6D"/>
<path fill-rule="evenodd" clip-rule="evenodd" d="M53.2419 161.809C53.3385 161.736 53.5491 161.852 53.712 162.069C53.8749 162.285 53.9286 162.52 53.832 162.592C53.7353 162.665 53.5247 162.549 53.3619 162.332C53.1991 162.116 53.1452 161.881 53.2419 161.809Z" fill="#F4F6F9"/>
<path d="M66.3773 132.566C63.7003 128.303 56.8538 124.217 56.8538 124.217L58.0698 122.344C58.0698 122.344 65.6519 126.863 69.6858 127.453" fill="#E26D6D"/>
<path d="M58.6691 122.693V122.725C58.2952 123.39 57.7826 123.966 57.1662 124.415L56.8687 124.233L58.069 122.344L58.6691 122.693Z" fill="#D16969"/>
<path fill-rule="evenodd" clip-rule="evenodd" d="M55.4715 122.017C56.236 120.82 57.3415 120.159 57.9385 120.54C58.5355 120.922 58.3994 122.203 57.6349 123.399C56.8704 124.596 55.7649 125.257 55.1678 124.876C54.5708 124.494 54.707 123.213 55.4715 122.017Z" fill="#E26D6D"/>
<path fill-rule="evenodd" clip-rule="evenodd" d="M55.1052 123.44C55.1951 123.185 55.3606 123.01 55.4749 123.05C55.5889 123.091 55.6085 123.33 55.5186 123.586C55.4286 123.841 55.2631 124.016 55.149 123.976C55.0349 123.936 55.0152 123.696 55.1052 123.44Z" fill="#F4F6F9"/>
<path d="M72.681 125.314C71.8043 121.526 67.8436 116.824 67.8436 116.824L69.2005 115.781C69.2005 115.781 73.589 120.999 76.3809 122.439" fill="#E26D6D"/>
<path d="M69.5757 116.182C69.1348 116.569 68.6173 116.859 68.0572 117.033C67.4968 117.207 67.8849 116.824 67.8849 116.824L69.2417 115.781L69.5757 116.182Z" fill="#D16969"/>
<path fill-rule="evenodd" clip-rule="evenodd" d="M67.417 114.864C68.2759 114.186 69.2485 113.984 69.5877 114.413C69.9268 114.843 69.5049 115.742 68.646 116.42C67.7871 117.098 66.8145 117.3 66.4754 116.871C66.1362 116.442 66.5581 115.542 67.417 114.864Z" fill="#E26D6D"/>
<path fill-rule="evenodd" clip-rule="evenodd" d="M66.794 115.801C66.925 115.637 67.0899 115.55 67.162 115.607C67.234 115.664 67.1863 115.845 67.0554 116.009C66.9244 116.174 66.7596 116.261 66.6875 116.203C66.6153 116.146 66.6632 115.966 66.794 115.801Z" fill="#F4F6F9"/>
<path d="M64.853 149.444C61.2002 148.186 55.0895 149.063 55.0895 149.063L54.8964 147.346C54.8964 147.346 61.6176 146.376 64.3312 144.773" fill="#E26D6D"/>
<path d="M55.4129 147.259V147.285C55.5119 147.864 55.4853 148.459 55.3346 149.028L55.0685 149.059L54.8755 147.342L55.4129 147.259Z" fill="#D16969"/>
<path fill-rule="evenodd" clip-rule="evenodd" d="M53.9156 146.306C54.4595 146.245 54.9997 147.079 55.1213 148.166C55.2429 149.254 54.9003 150.186 54.3563 150.247C53.8126 150.308 53.2723 149.474 53.1507 148.387C53.0291 147.299 53.3718 146.367 53.9156 146.306Z" fill="#E26D6D"/>
<path fill-rule="evenodd" clip-rule="evenodd" d="M53.6483 149.047C53.735 149.016 53.8627 149.152 53.9331 149.35C54.0034 149.548 53.99 149.734 53.9031 149.765C53.8163 149.796 53.6887 149.66 53.6183 149.462C53.5479 149.264 53.5613 149.078 53.6483 149.047Z" fill="#F4F6F9"/>
<path d="M78.1758 167.525C74.8778 169.586 71.7259 174.862 71.7259 174.862L70.27 173.928C70.27 173.928 73.7716 168.083 74.2307 164.973" fill="#E26D6D"/>
<path d="M70.5413 173.511C71.0539 173.8 71.4987 174.195 71.8459 174.67L71.705 174.9L70.2491 173.965L70.5413 173.511Z" fill="#D16969"/>
<path fill-rule="evenodd" clip-rule="evenodd" d="M68.5871 174.052C68.8825 173.592 69.8688 173.699 70.7882 174.29C71.7074 174.881 72.2139 175.734 71.9184 176.194C71.6229 176.653 70.6366 176.547 69.7173 175.956C68.798 175.365 68.2915 174.512 68.5871 174.052Z" fill="#E26D6D"/>
<path fill-rule="evenodd" clip-rule="evenodd" d="M70.7951 175.944C70.8259 175.857 71.0117 175.844 71.21 175.914C71.4081 175.984 71.544 176.112 71.5132 176.199C71.4824 176.286 71.2964 176.299 71.0983 176.229C70.9002 176.159 70.7643 176.031 70.7951 175.944Z" fill="#F4F6F9"/>
<path d="M97.2072 169.497C96.5028 172.55 97.729 177.351 97.729 177.351L96.3619 177.648C96.3619 177.648 95.0312 172.325 93.5231 170.29" fill="#E26D6D"/>
<path d="M96.2253 177.267C96.6818 177.138 97.1606 177.11 97.6291 177.183L97.6812 177.397L96.3141 177.694C96.3141 177.694 96.2775 177.454 96.2253 177.267Z" fill="#D16969"/>
<path fill-rule="evenodd" clip-rule="evenodd" d="M96.9638 177.406C97.8248 177.218 98.6002 177.415 98.694 177.846C98.7878 178.276 98.1647 178.778 97.3037 178.966C96.4425 179.154 95.6673 178.956 95.5735 178.526C95.4797 178.095 96.1026 177.593 96.9638 177.406Z" fill="#E26D6D"/>
<path fill-rule="evenodd" clip-rule="evenodd" d="M97.9913 178.221C98.1447 178.148 98.2953 178.143 98.3275 178.211C98.3597 178.279 98.2613 178.393 98.1079 178.466C97.9546 178.539 97.8038 178.543 97.7716 178.476C97.7394 178.408 97.8378 178.294 97.9913 178.221Z" fill="#F4F6F9"/>
<path d="M92.9537 170.517C91.3465 174.055 91.6283 180.197 91.6283 180.197L89.8958 180.223C89.8958 180.223 89.5878 173.439 88.2572 170.569" fill="#E26D6D"/>
<path d="M89.8644 179.703C90.451 179.66 91.0402 179.744 91.5916 179.949C92.1431 180.153 91.5916 180.22 91.5916 180.22L89.8591 180.246C89.8591 180.246 89.9008 179.943 89.8644 179.703Z" fill="#D16969"/>
<path fill-rule="evenodd" clip-rule="evenodd" d="M90.7437 180.075C91.8381 180.06 92.7328 180.491 92.7405 181.038C92.7483 181.586 91.8661 182.042 90.7718 182.058C89.6774 182.073 88.7827 181.642 88.7749 181.095C88.7673 180.547 89.6494 180.091 90.7437 180.075Z" fill="#E26D6D"/>
<path fill-rule="evenodd" clip-rule="evenodd" d="M91.7826 181.31C91.9867 181.259 92.1704 181.29 92.1927 181.38C92.215 181.469 92.0674 181.583 91.8634 181.634C91.6594 181.685 91.4757 181.653 91.4534 181.564C91.4311 181.474 91.5786 181.36 91.7826 181.31Z" fill="#F4F6F9"/>
<path d="M64.1744 139.228C61.68 137.376 56.8269 136.572 56.8269 136.572L57.0983 135.215C57.0983 135.215 62.4731 136.113 64.9258 135.544" fill="#E26D6D"/>
<path d="M57.5473 135.299C57.4855 135.766 57.3216 136.213 57.0672 136.609C56.8127 137.005 56.8532 136.572 56.8532 136.572L57.1246 135.215L57.5473 135.299Z" fill="#D16969"/>
<path fill-rule="evenodd" clip-rule="evenodd" d="M55.5225 135.604C55.6936 134.746 56.1812 134.118 56.6105 134.204C57.0398 134.289 57.2495 135.056 57.0784 135.914C56.9072 136.773 56.4197 137.401 55.9904 137.315C55.5611 137.23 55.3514 136.463 55.5225 135.604Z" fill="#E26D6D"/>
<path fill-rule="evenodd" clip-rule="evenodd" d="M55.773 136.171C55.8479 136.169 55.9131 136.302 55.9187 136.469C55.9243 136.636 55.868 136.774 55.7931 136.776C55.7184 136.779 55.6531 136.645 55.6475 136.478C55.642 136.311 55.6982 136.174 55.773 136.171Z" fill="#F4F6F9"/>
<path d="M72.9887 163.408C69.8055 164.451 66.0587 168.167 66.0587 168.167L65.015 167.076C65.015 167.076 69.1897 162.943 70.2334 160.449" fill="#E26D6D"/>
<path d="M65.3751 166.757C65.7489 167.118 66.0392 167.556 66.2257 168.041L66.0587 168.208L65.015 167.117C65.015 167.117 65.2289 166.908 65.3751 166.757Z" fill="#D16969"/>
<path fill-rule="evenodd" clip-rule="evenodd" d="M63.8429 166.888C64.1878 166.565 64.9903 166.861 65.6336 167.549C66.277 168.237 66.5193 169.057 66.1744 169.38C65.8294 169.703 65.0271 169.406 64.3836 168.718C63.7402 168.031 63.498 167.21 63.8429 166.888Z" fill="#E26D6D"/>
<path fill-rule="evenodd" clip-rule="evenodd" d="M65.0619 168.833C65.1067 168.766 65.2636 168.792 65.4122 168.891C65.5606 168.991 65.6449 169.126 65.6 169.193C65.5553 169.26 65.3984 169.234 65.2499 169.135C65.1013 169.035 65.0172 168.9 65.0619 168.833Z" fill="#F4F6F9"/>
<path d="M134.231 93.2345C142.065 93.2345 148.415 86.8844 148.415 79.0511C148.415 71.2178 142.065 64.8677 134.231 64.8677C126.398 64.8677 120.048 71.2178 120.048 79.0511C120.048 86.8844 126.398 93.2345 134.231 93.2345Z" fill="#FF7B7B"/>
<path d="M139.726 92.0763C137.941 92.8525 136.015 93.2532 134.068 93.2532C126.285 93.2532 119.88 86.8481 119.88 79.0645C119.88 73.717 122.903 68.8057 127.677 66.397C125.035 69.2248 123.565 72.9535 123.565 76.8232C123.565 85.2022 130.46 92.0972 138.839 92.0972C139.136 92.0972 139.434 92.0919 139.726 92.0763Z" fill="#E26D6D"/>
<path d="M138.181 71.6279C138.922 71.6279 139.522 71.0275 139.522 70.2869C139.522 69.5462 138.922 68.9458 138.181 68.9458C137.441 68.9458 136.84 69.5462 136.84 70.2869C136.84 71.0275 137.441 71.6279 138.181 71.6279Z" fill="#E26D6D"/>
<path d="M126.038 72.52C126.778 72.52 127.379 71.9196 127.379 71.179C127.379 70.4383 126.778 69.8379 126.038 69.8379C125.297 69.8379 124.696 70.4383 124.696 71.179C124.696 71.9196 125.297 72.52 126.038 72.52Z" fill="#F4F6F9"/>
<path d="M130.834 71.2788C131.39 71.2788 131.841 70.8278 131.841 70.2716C131.841 69.7153 131.39 69.2644 130.834 69.2644C130.278 69.2644 129.827 69.7153 129.827 70.2716C129.827 70.8278 130.278 71.2788 130.834 71.2788Z" fill="#F4F6F9"/>
<path d="M132.675 79.7525C133.918 79.7525 134.924 78.7456 134.924 77.5035C134.924 76.2613 133.918 75.2544 132.675 75.2544C131.433 75.2544 130.426 76.2613 130.426 77.5035C130.426 78.7456 131.433 79.7525 132.675 79.7525Z" fill="#E26D6D"/>
<path d="M125.124 84.2764C126.367 84.2764 127.374 83.2695 127.374 82.0274C127.374 80.7853 126.367 79.7783 125.124 79.7783C123.882 79.7783 122.875 80.7853 122.875 82.0274C122.875 83.2695 123.882 84.2764 125.124 84.2764Z" fill="#F4F6F9"/>
<path d="M135.551 87.7811C136.793 87.7811 137.8 86.7741 137.8 85.532C137.8 84.2899 136.793 83.283 135.551 83.283C134.309 83.283 133.302 84.2899 133.302 85.532C133.302 86.7741 134.309 87.7811 135.551 87.7811Z" fill="#E26D6D"/>
<path d="M142.715 85.5191C143.456 85.5191 144.056 84.9186 144.056 84.178C144.056 83.4373 143.456 82.8369 142.715 82.8369C141.975 82.8369 141.374 83.4373 141.374 84.178C141.374 84.9186 141.975 85.5191 142.715 85.5191Z" fill="#D16969"/>
<path d="M128.725 89.4392C129.282 89.4392 129.733 88.9882 129.733 88.432C129.733 87.8757 129.282 87.4248 128.725 87.4248C128.169 87.4248 127.718 87.8757 127.718 88.432C127.718 88.9882 128.169 89.4392 128.725 89.4392Z" fill="#D16969"/>
<path d="M125.521 78.0969C126.078 78.0969 126.529 77.6459 126.529 77.0897C126.529 76.5334 126.078 76.0825 125.521 76.0825C124.965 76.0825 124.514 76.5334 124.514 77.0897C124.514 77.6459 124.965 78.0969 125.521 78.0969Z" fill="#D16969"/>
<path d="M141.374 77.4265C142.115 77.4265 142.715 76.8261 142.715 76.0855C142.715 75.3448 142.115 74.7444 141.374 74.7444C140.634 74.7444 140.033 75.3448 140.033 76.0855C140.033 76.8261 140.634 77.4265 141.374 77.4265Z" fill="#D16969"/>
<path d="M132.691 64.9693C133.824 62.569 133.688 58.3682 133.688 58.3682H134.873C134.873 58.3682 135.019 63.023 135.916 64.9798" fill="#FF7B7B"/>
<path d="M134.873 58.7386C134.472 58.7617 134.07 58.6994 133.694 58.556C133.318 58.4126 133.694 58.3682 133.694 58.3682H134.878C134.878 58.3682 134.868 58.5769 134.873 58.7386Z" fill="#E26D6D"/>
<path d="M134.278 58.4506C135.027 58.4506 135.635 58.1469 135.635 57.7722C135.635 57.3975 135.027 57.0938 134.278 57.0938C133.529 57.0938 132.921 57.3975 132.921 57.7722C132.921 58.1469 133.529 58.4506 134.278 58.4506Z" fill="#FF7B7B"/>
<path fill-rule="evenodd" clip-rule="evenodd" d="M133.537 57.3635C133.677 57.3307 133.803 57.3541 133.817 57.4158C133.832 57.4774 133.729 57.5542 133.589 57.587C133.449 57.6198 133.323 57.5964 133.309 57.5348C133.295 57.4731 133.397 57.3963 133.537 57.3635Z" fill="#F4F6F9"/>
<path d="M137.544 65.4894C138.99 64.0491 139.986 60.9807 139.986 60.9807L140.842 61.2887C140.842 61.2887 139.736 64.6858 139.861 66.3347" fill="#FF7B7B"/>
<path d="M140.753 61.5548C140.457 61.4676 140.183 61.3181 139.95 61.1165L139.997 60.9807L140.852 61.2887C140.852 61.2887 140.79 61.44 140.753 61.5548Z" fill="#E26D6D"/>
<path fill-rule="evenodd" clip-rule="evenodd" d="M139.585 60.4036C139.683 60.1327 140.202 60.0712 140.744 60.2664C141.286 60.4616 141.647 60.8401 141.549 61.1111C141.451 61.382 140.932 61.4435 140.39 61.2482C139.848 61.0531 139.488 60.6746 139.585 60.4036Z" fill="#FF7B7B"/>
<path fill-rule="evenodd" clip-rule="evenodd" d="M139.937 60.2841C139.943 60.2355 140.035 60.2064 140.144 60.219C140.253 60.2315 140.337 60.2814 140.331 60.33C140.325 60.3786 140.232 60.4079 140.124 60.3952C140.015 60.3826 139.931 60.3329 139.937 60.2841Z" fill="#F4F6F9"/>
<path d="M140.603 66.8222C142.1 65.9038 143.546 63.5295 143.546 63.5295L144.203 63.9574C144.203 63.9574 142.596 66.5666 142.372 67.9912" fill="#FF7B7B"/>
<path d="M144.078 64.1557C143.848 64.0245 143.649 63.8466 143.493 63.6339L143.556 63.5295L144.213 63.9575L144.078 64.1557Z" fill="#E26D6D"/>
<path fill-rule="evenodd" clip-rule="evenodd" d="M143.345 62.9553C143.481 62.7482 143.928 62.8005 144.342 63.0722C144.756 63.3437 144.982 63.7324 144.846 63.9396C144.711 64.1467 144.264 64.0944 143.85 63.8227C143.436 63.5511 143.209 63.1625 143.345 62.9553Z" fill="#FF7B7B"/>
<path fill-rule="evenodd" clip-rule="evenodd" d="M143.652 62.9275C143.666 62.8869 143.751 62.8806 143.84 62.9131C143.929 62.9458 143.99 63.0052 143.975 63.0457C143.96 63.0863 143.876 63.0928 143.787 63.0601C143.697 63.0276 143.637 62.9681 143.652 62.9275Z" fill="#F4F6F9"/>
<path d="M128.553 66.5338C128.752 64.7909 127.781 62.187 127.781 62.187L128.522 61.9365C128.522 61.9365 129.597 64.8222 130.568 65.8607" fill="#FF7B7B"/>
<path d="M128.61 62.1661C128.364 62.2667 128.099 62.3129 127.833 62.3017L127.791 62.187L128.532 61.9365L128.61 62.1661Z" fill="#E26D6D"/>
<path fill-rule="evenodd" clip-rule="evenodd" d="M127.895 61.2597C128.364 61.1013 128.809 61.163 128.888 61.3977C128.968 61.6324 128.651 61.9517 128.182 62.1101C127.712 62.2686 127.267 62.2068 127.188 61.9721C127.108 61.7374 127.425 61.4183 127.895 61.2597Z" fill="#FF7B7B"/>
<path fill-rule="evenodd" clip-rule="evenodd" d="M127.479 61.5365C127.56 61.4864 127.644 61.4755 127.667 61.5122C127.69 61.5489 127.643 61.6194 127.562 61.6695C127.481 61.7197 127.397 61.7306 127.374 61.6939C127.352 61.6572 127.399 61.5867 127.479 61.5365Z" fill="#F4F6F9"/>
<path d="M147.689 76.1462C149.353 76.7151 152.103 76.3133 152.103 76.3133L152.192 77.0908C152.192 77.0908 149.145 77.5344 147.923 78.2597" fill="#FF7B7B"/>
<path d="M151.952 77.1254C151.907 76.8632 151.919 76.5943 151.988 76.3374H152.108L152.197 77.1149L151.952 77.1254Z" fill="#E26D6D"/>
<path fill-rule="evenodd" clip-rule="evenodd" d="M152.423 75.7654C152.669 75.7373 152.915 76.1142 152.971 76.6064C153.027 77.0986 152.872 77.521 152.626 77.5489C152.38 77.577 152.135 77.2 152.079 76.7078C152.023 76.2156 152.177 75.7933 152.423 75.7654Z" fill="#FF7B7B"/>
<path fill-rule="evenodd" clip-rule="evenodd" d="M152.625 76.0209C152.666 76.0064 152.725 76.0673 152.757 76.1567C152.789 76.2462 152.782 76.3307 152.741 76.3453C152.7 76.3598 152.641 76.299 152.609 76.2094C152.577 76.12 152.584 76.0355 152.625 76.0209Z" fill="#F4F6F9"/>
<path d="M148.002 79.0774C149.505 79.9854 152.281 80.1785 152.281 80.1785L152.197 80.956C152.197 80.956 149.129 80.7368 147.777 81.1857" fill="#FF7B7B"/>
<path d="M151.952 80.9225C151.962 80.6572 152.03 80.3972 152.15 80.1606H152.275L152.192 80.9381L151.952 80.9225Z" fill="#E26D6D"/>
<path fill-rule="evenodd" clip-rule="evenodd" d="M152.168 80.563C152.219 80.0702 152.46 79.6906 152.706 79.7158C152.952 79.741 153.112 80.1614 153.061 80.6542C153.011 81.147 152.77 81.5268 152.524 81.5016C152.277 81.4764 152.118 81.0559 152.168 80.563Z" fill="#FF7B7B"/>
<path fill-rule="evenodd" clip-rule="evenodd" d="M152.855 79.9698C152.898 79.9642 152.942 80.0363 152.955 80.1305C152.967 80.2248 152.942 80.3058 152.899 80.3113C152.856 80.3168 152.811 80.2448 152.799 80.1505C152.787 80.0563 152.812 79.9753 152.855 79.9698Z" fill="#F4F6F9"/>
<path d="M146.781 84.7485C147.778 86.1941 150.22 87.5142 150.22 87.5142L149.829 88.1926C149.829 88.1926 147.12 86.7263 145.706 86.5802" fill="#FF7B7B"/>
<path d="M149.593 88.0991C149.718 87.8581 149.897 87.6491 150.115 87.4885L150.22 87.546L149.828 88.2243L149.593 88.0991Z" fill="#E26D6D"/>
<path fill-rule="evenodd" clip-rule="evenodd" d="M149.946 87.8163C150.195 87.388 150.571 87.1414 150.785 87.2659C150.999 87.3904 150.971 87.8391 150.722 88.2675C150.473 88.6957 150.097 88.9424 149.882 88.8179C149.668 88.6934 149.697 88.2447 149.946 87.8163Z" fill="#FF7B7B"/>
<path fill-rule="evenodd" clip-rule="evenodd" d="M150.672 87.6957C150.7 87.6048 150.756 87.5413 150.797 87.5538C150.838 87.5665 150.849 87.6505 150.822 87.7414C150.794 87.8324 150.738 87.8959 150.697 87.8832C150.655 87.8707 150.644 87.7865 150.672 87.6957Z" fill="#F4F6F9"/>
<path d="M146.723 72.8569C148.753 73.0343 151.743 71.8132 151.743 71.8132L152.061 72.6639C152.061 72.6639 148.748 74.0049 147.568 75.1634" fill="#FF7B7B"/>
<path d="M151.795 72.8267C151.672 72.5419 151.612 72.234 151.618 71.9239L151.748 71.877L152.067 72.7275L151.795 72.8267Z" fill="#E26D6D"/>
<path fill-rule="evenodd" clip-rule="evenodd" d="M151.962 71.129C152.232 71.0292 152.613 71.3869 152.813 71.9273C153.013 72.4676 152.955 72.9873 152.685 73.0871C152.415 73.1868 152.033 72.8291 151.834 72.2889C151.634 71.7484 151.692 71.2288 151.962 71.129Z" fill="#FF7B7B"/>
<path fill-rule="evenodd" clip-rule="evenodd" d="M152.251 71.3743C152.292 71.3473 152.374 71.3996 152.435 71.4909C152.495 71.5822 152.511 71.6782 152.47 71.7052C152.429 71.7322 152.347 71.68 152.287 71.5887C152.226 71.4973 152.211 71.4013 152.251 71.3743Z" fill="#F4F6F9"/>
<path d="M147.824 82.0723C149.29 83.4916 152.38 84.4257 152.38 84.4257L152.087 85.2867C152.087 85.2867 148.669 84.243 147.026 84.4049" fill="#FF7B7B"/>
<path d="M151.822 85.2387C151.901 84.9413 152.045 84.665 152.244 84.4299L152.38 84.4716L152.088 85.3327L151.822 85.2387Z" fill="#E26D6D"/>
<path fill-rule="evenodd" clip-rule="evenodd" d="M152.166 84.8831C152.351 84.3374 152.722 83.9695 152.995 84.0618C153.268 84.1541 153.339 84.6721 153.155 85.2176C152.97 85.7633 152.599 86.1313 152.326 86.0389C152.053 85.9466 151.981 85.4287 152.166 84.8831Z" fill="#FF7B7B"/>
<path fill-rule="evenodd" clip-rule="evenodd" d="M152.977 84.5553C152.987 84.4463 153.035 84.3616 153.084 84.3664C153.133 84.3712 153.164 84.4633 153.153 84.5723C153.143 84.6813 153.095 84.7659 153.046 84.7612C152.997 84.7564 152.966 84.6642 152.977 84.5553Z" fill="#F4F6F9"/>
<path d="M142.445 90.2922C142.617 92.3274 144.318 95.067 144.318 95.067L143.535 95.521C143.535 95.521 141.646 92.4839 140.305 91.5238" fill="#FF7B7B"/>
<path d="M143.379 95.2779C143.635 95.1067 143.925 94.9928 144.229 94.9438L144.302 95.0691L143.519 95.5231L143.379 95.2779Z" fill="#E26D6D"/>
<path fill-rule="evenodd" clip-rule="evenodd" d="M143.878 95.2467C144.377 94.9581 144.899 94.9262 145.043 95.1756C145.187 95.4248 144.9 95.8614 144.401 96.1499C143.903 96.4385 143.381 96.4704 143.237 96.2211C143.092 95.9718 143.38 95.5353 143.878 95.2467Z" fill="#FF7B7B"/>
<path fill-rule="evenodd" clip-rule="evenodd" d="M144.675 95.5394C144.755 95.4645 144.847 95.4325 144.881 95.4682C144.914 95.5039 144.877 95.5937 144.797 95.6686C144.717 95.7436 144.625 95.7756 144.592 95.7399C144.558 95.7042 144.595 95.6144 144.675 95.5394Z" fill="#F4F6F9"/>
<path d="M143.754 68.5204C146.301 67.7795 149.358 64.8677 149.358 64.8677L150.141 65.7548C150.141 65.7548 146.781 68.9744 145.873 70.9575" fill="#FF7B7B"/>
<path d="M149.876 66.0586C149.591 65.7746 149.37 65.433 149.229 65.0566L149.37 64.9314L150.153 65.8185L149.876 66.0586Z" fill="#E26D6D"/>
<path fill-rule="evenodd" clip-rule="evenodd" d="M149.287 63.9435C149.567 63.6952 150.198 63.9486 150.694 64.5092C151.191 65.0696 151.366 65.7262 151.086 65.9745C150.806 66.2228 150.175 65.9693 149.679 65.4089C149.182 64.8483 149.006 64.1918 149.287 63.9435Z" fill="#FF7B7B"/>
<path fill-rule="evenodd" clip-rule="evenodd" d="M149.738 64.0661C149.774 64.0143 149.9 64.0399 150.017 64.123C150.135 64.2062 150.2 64.3157 150.164 64.3674C150.127 64.4191 150.002 64.3937 149.885 64.3104C149.767 64.2272 149.701 64.1178 149.738 64.0661Z" fill="#F4F6F9"/>
<path d="M146.092 86.8513C147.224 89.2569 150.548 91.8243 150.548 91.8243L149.797 92.7376C149.797 92.7376 146.113 89.8884 144.057 89.3195" fill="#FF7B7B"/>
<path d="M149.5 92.4821C149.737 92.1581 150.041 91.8893 150.392 91.6941L150.538 91.8089L149.787 92.7222L149.5 92.4821Z" fill="#E26D6D"/>
<path fill-rule="evenodd" clip-rule="evenodd" d="M150.08 92.2032C150.557 91.6257 151.178 91.3504 151.467 91.5887C151.756 91.8271 151.603 92.4895 151.126 93.0669C150.65 93.6444 150.028 93.9197 149.739 93.6814C149.451 93.443 149.603 92.7806 150.08 92.2032Z" fill="#FF7B7B"/>
<path fill-rule="evenodd" clip-rule="evenodd" d="M151.213 92.2648C151.277 92.1358 151.376 92.0539 151.432 92.0819C151.489 92.1101 151.483 92.2377 151.419 92.3667C151.355 92.4957 151.257 92.5776 151.2 92.5494C151.144 92.5214 151.15 92.3938 151.213 92.2648Z" fill="#F4F6F9"/>
<path d="M131.804 93.043C130.046 95.0363 129.007 99.1066 129.007 99.1066L127.87 98.7779C127.87 98.7779 129.028 94.2692 128.72 92.1401" fill="#E26D6D"/>
<path d="M127.958 98.3848C128.351 98.4801 128.72 98.658 129.038 98.9066C129.357 99.1553 128.986 99.0893 128.986 99.0893L127.849 98.7605C127.849 98.7605 127.922 98.5413 127.958 98.3848Z" fill="#D16969"/>
<path fill-rule="evenodd" clip-rule="evenodd" d="M126.96 99.0792C127.064 98.7195 127.733 98.5965 128.452 98.8046C129.171 99.0128 129.671 99.4738 129.567 99.8335C129.463 100.193 128.794 100.316 128.075 100.108C127.356 99.8997 126.856 99.4389 126.96 99.0792Z" fill="#E26D6D"/>
<path fill-rule="evenodd" clip-rule="evenodd" d="M128.6 99.9523C128.604 99.8891 128.723 99.8437 128.867 99.8511C129.011 99.8586 129.125 99.916 129.122 99.9793C129.118 100.043 128.999 100.088 128.855 100.08C128.711 100.073 128.597 100.016 128.6 99.9523Z" fill="#F4F6F9"/>
<path d="M121.957 86.1624C119.301 86.0945 115.513 87.9105 115.513 87.9105L115.038 86.8303C115.038 86.8303 119.212 84.816 120.668 83.2192" fill="#E26D6D"/>
<path d="M115.366 86.6602C115.546 87.0192 115.65 87.4121 115.669 87.8134C115.688 88.2148 115.502 87.8917 115.502 87.8917L115.027 86.8114L115.366 86.6602Z" fill="#D16969"/>
<path fill-rule="evenodd" clip-rule="evenodd" d="M113.415 86.2438C113.756 86.094 114.276 86.5257 114.575 87.2071C114.875 87.8884 114.841 88.5634 114.501 88.7131C114.16 88.8628 113.64 88.4312 113.341 87.7498C113.041 87.0684 113.075 86.3936 113.415 86.2438Z" fill="#E26D6D"/>
<path fill-rule="evenodd" clip-rule="evenodd" d="M114.582 88.2007C114.632 88.1625 114.744 88.225 114.83 88.3401C114.917 88.455 114.946 88.5794 114.896 88.6175C114.845 88.6557 114.734 88.5932 114.647 88.4781C114.56 88.3631 114.531 88.2387 114.582 88.2007Z" fill="#F4F6F9"/>
<path d="M121.508 72.7538C120.099 70.5047 116.514 68.3494 116.514 68.3494L117.151 67.3528C117.151 67.3528 121.148 69.7323 123.272 70.0454" fill="#E26D6D"/>
<path d="M117.443 67.5459C117.249 67.8975 116.98 68.2022 116.655 68.4382L116.514 68.3494L117.151 67.3528L117.443 67.5459Z" fill="#D16969"/>
<path fill-rule="evenodd" clip-rule="evenodd" d="M115.757 67.1683C116.16 66.5374 116.744 66.1888 117.059 66.3904C117.375 66.592 117.303 67.268 116.9 67.899C116.497 68.5299 115.914 68.8786 115.598 68.677C115.283 68.4753 115.354 67.7994 115.757 67.1683Z" fill="#E26D6D"/>
<path fill-rule="evenodd" clip-rule="evenodd" d="M115.56 67.946C115.608 67.8102 115.695 67.717 115.755 67.7381C115.815 67.7591 115.824 67.8865 115.777 68.0222C115.729 68.1581 115.641 68.2513 115.582 68.2303C115.522 68.2092 115.512 68.0819 115.56 67.946Z" fill="#F4F6F9"/>
<path d="M124.864 68.958C124.404 66.9593 122.312 64.4807 122.312 64.4807L123.032 63.9119C123.032 63.9119 125.344 66.6619 126.815 67.4238" fill="#E26D6D"/>
<path d="M123.194 64.1363C122.963 64.3428 122.691 64.4976 122.395 64.5903C122.1 64.683 122.301 64.4807 122.301 64.4807L123.021 63.9119L123.194 64.1363Z" fill="#D16969"/>
<path fill-rule="evenodd" clip-rule="evenodd" d="M122.059 63.4423C122.513 63.0834 123.027 62.9757 123.205 63.2017C123.384 63.4277 123.16 63.9025 122.705 64.2613C122.251 64.6201 121.737 64.7278 121.559 64.5019C121.38 64.2759 121.604 63.8011 122.059 63.4423Z" fill="#E26D6D"/>
<path fill-rule="evenodd" clip-rule="evenodd" d="M121.728 63.8939C121.796 63.8083 121.883 63.7635 121.921 63.794C121.959 63.8245 121.935 63.9187 121.867 64.0044C121.799 64.09 121.712 64.1348 121.674 64.1043C121.636 64.0738 121.66 63.9796 121.728 63.8939Z" fill="#F4F6F9"/>
<path d="M120.69 81.6679C118.748 81.0052 115.539 81.4697 115.539 81.4697L115.44 80.5617C115.44 80.5617 118.994 80.0398 120.424 79.2048" fill="#E26D6D"/>
<path d="M115.727 80.543C115.778 80.8486 115.764 81.1617 115.685 81.4614H115.544L115.445 80.5534L115.727 80.543Z" fill="#D16969"/>
<path fill-rule="evenodd" clip-rule="evenodd" d="M114.938 80.0348C115.224 80.0029 115.509 80.444 115.573 81.0192C115.638 81.5946 115.457 82.0876 115.171 82.1196C114.885 82.1516 114.6 81.7105 114.536 81.1352C114.472 80.56 114.652 80.0669 114.938 80.0348Z" fill="#E26D6D"/>
<path fill-rule="evenodd" clip-rule="evenodd" d="M114.795 81.4374C114.842 81.421 114.909 81.4914 114.945 81.5946C114.982 81.6977 114.974 81.7947 114.928 81.8112C114.882 81.8274 114.815 81.757 114.778 81.654C114.741 81.5508 114.749 81.4537 114.795 81.4374Z" fill="#F4F6F9"/>
<path d="M127.734 91.1925C125.991 92.2778 124.332 95.0644 124.332 95.0644L123.559 94.5427C123.559 94.5427 125.407 91.4587 125.647 89.8462" fill="#E26D6D"/>
<path d="M123.705 94.3704C123.975 94.5237 124.209 94.7317 124.394 94.9809L124.321 95.1061L123.548 94.5843L123.705 94.3704Z" fill="#D16969"/>
<path fill-rule="evenodd" clip-rule="evenodd" d="M122.815 94.6479C122.971 94.4055 123.492 94.4628 123.98 94.7756C124.467 95.0885 124.736 95.5392 124.58 95.7815C124.424 96.0239 123.903 95.9667 123.416 95.6538C122.928 95.341 122.659 94.8902 122.815 94.6479Z" fill="#E26D6D"/>
<path fill-rule="evenodd" clip-rule="evenodd" d="M123.846 95.6215C123.862 95.5753 123.959 95.5675 124.062 95.6042C124.165 95.6408 124.236 95.7079 124.219 95.754C124.203 95.8002 124.106 95.808 124.003 95.7714C123.9 95.7348 123.829 95.6676 123.846 95.6215Z" fill="#F4F6F9"/>
<path d="M137.763 92.2676C137.393 93.8748 138.029 96.4056 138.029 96.4056L137.309 96.5622C137.309 96.5622 136.605 93.7548 135.812 92.685" fill="#E26D6D"/>
<path d="M137.252 96.2835C137.493 96.2141 137.746 96.1999 137.993 96.2417V96.3513L137.273 96.5078L137.252 96.2835Z" fill="#D16969"/>
<path fill-rule="evenodd" clip-rule="evenodd" d="M137.642 96.3833C138.098 96.2839 138.508 96.3884 138.558 96.6163C138.608 96.8443 138.278 97.1099 137.822 97.2092C137.366 97.3085 136.956 97.2041 136.906 96.9762C136.856 96.7482 137.186 96.4826 137.642 96.3833Z" fill="#E26D6D"/>
<path fill-rule="evenodd" clip-rule="evenodd" d="M138.177 96.8217C138.258 96.7832 138.337 96.7816 138.354 96.8181C138.372 96.8544 138.32 96.9151 138.24 96.9536C138.159 96.9919 138.08 96.9935 138.062 96.9572C138.045 96.9208 138.096 96.86 138.177 96.8217Z" fill="#F4F6F9"/>
<path d="M135.525 92.7773C134.674 94.6403 134.825 97.8809 134.825 97.8809H133.912C133.912 97.8809 133.75 94.2906 133.046 92.7877" fill="#E26D6D"/>
<path d="M133.896 97.6255C134.205 97.6038 134.514 97.6482 134.804 97.756C134.807 97.8028 134.807 97.8499 134.804 97.8969H133.891C133.891 97.8969 133.907 97.7507 133.896 97.6255Z" fill="#D16969"/>
<path fill-rule="evenodd" clip-rule="evenodd" d="M134.365 97.8115C134.944 97.8034 135.417 98.0305 135.421 98.3185C135.425 98.6064 134.959 98.8468 134.38 98.8551C133.801 98.8633 133.328 98.6361 133.324 98.3481C133.32 98.0601 133.786 97.8198 134.365 97.8115Z" fill="#E26D6D"/>
<path fill-rule="evenodd" clip-rule="evenodd" d="M134.904 98.461C135.01 98.4344 135.106 98.4516 135.118 98.4991C135.129 98.5465 135.053 98.6066 134.947 98.6331C134.84 98.6595 134.745 98.6425 134.733 98.595C134.721 98.5474 134.797 98.4874 134.904 98.461Z" fill="#F4F6F9"/>
<path d="M120.35 76.2896C119.03 75.3137 116.473 74.891 116.473 74.891L116.613 74.1709C116.613 74.1709 119.452 74.6458 120.741 74.3484" fill="#E26D6D"/>
<path d="M116.844 74.1969C116.81 74.4434 116.725 74.68 116.593 74.891H116.478L116.619 74.1709L116.844 74.1969Z" fill="#D16969"/>
<path fill-rule="evenodd" clip-rule="evenodd" d="M115.784 74.3388C115.874 73.8868 116.131 73.5564 116.357 73.6015C116.583 73.6465 116.693 74.05 116.603 74.5019C116.513 74.9539 116.256 75.2843 116.03 75.2392C115.804 75.1942 115.694 74.7907 115.784 74.3388Z" fill="#E26D6D"/>
<path fill-rule="evenodd" clip-rule="evenodd" d="M115.918 74.6807C115.958 74.6793 115.993 74.7507 115.996 74.84C115.999 74.9292 115.969 75.0027 115.929 75.004C115.888 75.0054 115.853 74.934 115.85 74.8449C115.847 74.7556 115.878 74.6821 115.918 74.6807Z" fill="#F4F6F9"/>
<path d="M124.994 89.054C123.314 89.5759 121.341 91.5588 121.341 91.5588L120.819 90.9848C120.819 90.9848 123.011 88.8088 123.559 87.4885" fill="#E26D6D"/>
<path d="M120.976 90.802C121.167 90.9889 121.318 91.2125 121.42 91.4595L121.331 91.5431L120.809 90.9689L120.976 90.802Z" fill="#D16969"/>
<path fill-rule="evenodd" clip-rule="evenodd" d="M120.177 90.8702C120.358 90.701 120.779 90.8573 121.118 91.2192C121.456 91.5808 121.584 92.0119 121.403 92.1811C121.222 92.3503 120.801 92.194 120.462 91.8323C120.124 91.4705 119.996 91.0394 120.177 90.8702Z" fill="#E26D6D"/>
<path fill-rule="evenodd" clip-rule="evenodd" d="M120.813 91.9053C120.837 91.8694 120.921 91.883 121 91.9358C121.079 91.9886 121.123 92.0606 121.099 92.0966C121.075 92.1325 120.992 92.1187 120.913 92.066C120.834 92.0133 120.789 91.9413 120.813 91.9053Z" fill="#F4F6F9"/>
<path d="M159.998 152.622C167.832 152.622 174.182 146.272 174.182 138.439C174.182 130.605 167.832 124.255 159.998 124.255C152.165 124.255 145.815 130.605 145.815 138.439C145.815 146.272 152.165 152.622 159.998 152.622Z" fill="#FF7B7B"/>
<path d="M165.5 151.523C163.724 152.289 161.811 152.684 159.877 152.684C152.093 152.684 145.688 146.279 145.688 138.496C145.688 133.164 148.693 128.265 153.445 125.848C150.804 128.676 149.333 132.405 149.333 136.275C149.333 144.654 156.228 151.549 164.607 151.549C164.905 151.549 165.202 151.538 165.5 151.523Z" fill="#E26D6D"/>
<path d="M163.955 131.079C164.696 131.079 165.296 130.479 165.296 129.738C165.296 128.998 164.696 128.397 163.955 128.397C163.215 128.397 162.614 128.998 162.614 129.738C162.614 130.479 163.215 131.079 163.955 131.079Z" fill="#E26D6D"/>
<path d="M151.807 131.908C152.547 131.908 153.148 131.307 153.148 130.567C153.148 129.826 152.547 129.226 151.807 129.226C151.066 129.226 150.465 129.826 150.465 130.567C150.465 131.307 151.066 131.908 151.807 131.908Z" fill="#F4F6F9"/>
<path d="M156.607 130.73C157.163 130.73 157.614 130.279 157.614 129.723C157.614 129.167 157.163 128.716 156.607 128.716C156.051 128.716 155.6 129.167 155.6 129.723C155.6 130.279 156.051 130.73 156.607 130.73Z" fill="#F4F6F9"/>
<path d="M158.444 139.204C159.687 139.204 160.693 138.197 160.693 136.955C160.693 135.713 159.687 134.706 158.444 134.706C157.202 134.706 156.195 135.713 156.195 136.955C156.195 138.197 157.202 139.204 158.444 139.204Z" fill="#E26D6D"/>
<path d="M150.893 143.664C152.135 143.664 153.142 142.657 153.142 141.415C153.142 140.173 152.135 139.166 150.893 139.166C149.65 139.166 148.643 140.173 148.643 141.415C148.643 142.657 149.65 143.664 150.893 143.664Z" fill="#F4F6F9"/>
<path d="M161.319 147.232C162.561 147.232 163.568 146.226 163.568 144.983C163.568 143.741 162.561 142.734 161.319 142.734C160.077 142.734 159.07 143.741 159.07 144.983C159.07 146.226 160.077 147.232 161.319 147.232Z" fill="#E26D6D"/>
<path d="M168.483 144.97C169.224 144.97 169.825 144.37 169.825 143.629C169.825 142.889 169.224 142.288 168.483 142.288C167.743 142.288 167.142 142.889 167.142 143.629C167.142 144.37 167.743 144.97 168.483 144.97Z" fill="#D16969"/>
<path d="M154.493 148.891C155.05 148.891 155.501 148.44 155.501 147.883C155.501 147.327 155.05 146.876 154.493 146.876C153.937 146.876 153.486 147.327 153.486 147.883C153.486 148.44 153.937 148.891 154.493 148.891Z" fill="#D16969"/>
<path d="M151.294 137.485C151.851 137.485 152.302 137.034 152.302 136.477C152.302 135.921 151.851 135.47 151.294 135.47C150.738 135.47 150.287 135.921 150.287 136.477C150.287 137.034 150.738 137.485 151.294 137.485Z" fill="#D16969"/>
<path d="M167.142 136.814C167.883 136.814 168.483 136.214 168.483 135.473C168.483 134.733 167.883 134.132 167.142 134.132C166.402 134.132 165.801 134.733 165.801 135.473C165.801 136.214 166.402 136.814 167.142 136.814Z" fill="#D16969"/>
<path d="M158.445 124.357C159.577 121.957 159.441 117.756 159.441 117.756H160.626C160.626 117.756 160.772 122.405 161.669 124.367" fill="#FF7B7B"/>
<path d="M160.641 118.126C160.239 118.15 159.837 118.086 159.462 117.938V117.756H160.647C160.647 117.756 160.636 117.965 160.641 118.126Z" fill="#E26D6D"/>
<path d="M160.051 117.838C160.8 117.838 161.408 117.535 161.408 117.16C161.408 116.785 160.8 116.481 160.051 116.481C159.302 116.481 158.694 116.785 158.694 117.16C158.694 117.535 159.302 117.838 160.051 117.838Z" fill="#FF7B7B"/>
<path fill-rule="evenodd" clip-rule="evenodd" d="M159.311 116.751C159.451 116.718 159.577 116.742 159.591 116.804C159.606 116.865 159.504 116.942 159.363 116.975C159.223 117.008 159.097 116.984 159.083 116.922C159.069 116.861 159.171 116.784 159.311 116.751Z" fill="#F4F6F9"/>
<path d="M163.317 124.946C164.757 123.506 165.754 120.432 165.754 120.432L166.61 120.745C166.61 120.745 165.504 124.142 165.634 125.786" fill="#FF7B7B"/>
<path d="M166.527 121.011C166.231 120.922 165.957 120.771 165.724 120.568L165.771 120.432L166.626 120.745L166.527 121.011Z" fill="#E26D6D"/>
<path fill-rule="evenodd" clip-rule="evenodd" d="M165.359 119.791C165.457 119.52 165.976 119.459 166.518 119.654C167.06 119.849 167.421 120.228 167.323 120.499C167.225 120.77 166.706 120.831 166.164 120.636C165.622 120.441 165.262 120.062 165.359 119.791Z" fill="#FF7B7B"/>
<path fill-rule="evenodd" clip-rule="evenodd" d="M165.701 119.736C165.707 119.687 165.8 119.658 165.908 119.67C166.017 119.683 166.101 119.733 166.095 119.781C166.089 119.83 165.996 119.859 165.888 119.847C165.779 119.834 165.695 119.784 165.701 119.736Z" fill="#F4F6F9"/>
<path d="M166.371 126.269C167.868 125.35 169.319 122.981 169.319 122.981L169.971 123.409C169.971 123.409 168.364 126.018 168.145 127.443" fill="#FF7B7B"/>
<path d="M169.847 123.607C169.616 123.478 169.417 123.3 169.262 123.085L169.33 122.981L169.982 123.409L169.847 123.607Z" fill="#E26D6D"/>
<path fill-rule="evenodd" clip-rule="evenodd" d="M169.116 122.407C169.252 122.2 169.699 122.252 170.113 122.524C170.527 122.795 170.753 123.184 170.618 123.391C170.482 123.598 170.035 123.546 169.621 123.274C169.207 123.003 168.981 122.614 169.116 122.407Z" fill="#FF7B7B"/>
<path fill-rule="evenodd" clip-rule="evenodd" d="M169.422 122.379C169.436 122.338 169.521 122.332 169.61 122.365C169.7 122.397 169.76 122.457 169.745 122.497C169.73 122.538 169.646 122.544 169.557 122.512C169.467 122.479 169.407 122.42 169.422 122.379Z" fill="#F4F6F9"/>
<path d="M154.321 125.906C154.525 124.184 153.565 121.575 153.565 121.575L154.306 121.324C154.306 121.324 155.381 124.21 156.351 125.254" fill="#FF7B7B"/>
<path d="M154.379 121.533C154.132 121.632 153.867 121.677 153.601 121.663L153.565 121.575L154.306 121.324L154.379 121.533Z" fill="#E26D6D"/>
<path fill-rule="evenodd" clip-rule="evenodd" d="M153.671 120.647C154.14 120.489 154.585 120.551 154.665 120.785C154.744 121.02 154.427 121.339 153.958 121.498C153.488 121.656 153.043 121.594 152.964 121.36C152.884 121.125 153.201 120.806 153.671 120.647Z" fill="#FF7B7B"/>
<path fill-rule="evenodd" clip-rule="evenodd" d="M153.252 120.924C153.333 120.874 153.417 120.863 153.44 120.9C153.463 120.937 153.416 121.007 153.335 121.057C153.254 121.107 153.17 121.118 153.147 121.082C153.125 121.045 153.172 120.974 153.252 120.924Z" fill="#F4F6F9"/>
<path d="M173.462 135.534C175.126 136.098 177.876 135.696 177.876 135.696L177.965 136.473C177.965 136.473 174.918 136.917 173.691 137.647" fill="#FF7B7B"/>
<path d="M177.72 136.513C177.676 136.251 177.686 135.983 177.751 135.725H177.876L177.965 136.503L177.72 136.513Z" fill="#E26D6D"/>
<path fill-rule="evenodd" clip-rule="evenodd" d="M178.192 135.217C178.438 135.189 178.684 135.566 178.74 136.058C178.796 136.55 178.641 136.972 178.395 137C178.149 137.028 177.904 136.651 177.848 136.159C177.792 135.667 177.946 135.245 178.192 135.217Z" fill="#FF7B7B"/>
<path fill-rule="evenodd" clip-rule="evenodd" d="M178.395 135.409C178.436 135.394 178.495 135.455 178.527 135.545C178.559 135.634 178.552 135.718 178.511 135.733C178.47 135.748 178.411 135.687 178.379 135.597C178.347 135.508 178.354 135.423 178.395 135.409Z" fill="#F4F6F9"/>
<path d="M173.77 138.465C175.273 139.373 178.05 139.566 178.05 139.566L177.971 140.349C177.971 140.349 174.898 140.13 173.551 140.579" fill="#FF7B7B"/>
<path d="M177.725 140.379C177.736 140.112 177.803 139.851 177.923 139.612H178.049L177.97 140.395L177.725 140.379Z" fill="#E26D6D"/>
<path fill-rule="evenodd" clip-rule="evenodd" d="M177.935 140.014C177.986 139.522 178.227 139.142 178.473 139.167C178.72 139.192 178.879 139.613 178.828 140.106C178.778 140.598 178.537 140.978 178.291 140.953C178.044 140.928 177.885 140.507 177.935 140.014Z" fill="#FF7B7B"/>
<path fill-rule="evenodd" clip-rule="evenodd" d="M178.628 139.421C178.671 139.416 178.716 139.488 178.728 139.582C178.74 139.676 178.715 139.757 178.672 139.763C178.629 139.768 178.585 139.696 178.572 139.602C178.56 139.508 178.585 139.427 178.628 139.421Z" fill="#F4F6F9"/>
<path d="M172.534 144.2C173.531 145.645 175.978 146.966 175.978 146.966L175.582 147.639C175.582 147.639 172.874 146.178 171.459 146.032" fill="#FF7B7B"/>
<path d="M175.367 147.492C175.488 147.254 175.657 147.045 175.863 146.876L175.973 146.939L175.576 147.612L175.367 147.492Z" fill="#E26D6D"/>
<path fill-rule="evenodd" clip-rule="evenodd" d="M175.715 147.268C175.964 146.839 176.34 146.593 176.554 146.717C176.768 146.842 176.74 147.291 176.491 147.719C176.242 148.147 175.866 148.394 175.652 148.269C175.437 148.145 175.466 147.696 175.715 147.268Z" fill="#FF7B7B"/>
<path fill-rule="evenodd" clip-rule="evenodd" d="M176.441 147.147C176.469 147.056 176.525 146.993 176.566 147.005C176.608 147.018 176.619 147.102 176.591 147.193C176.563 147.284 176.507 147.347 176.466 147.335C176.424 147.322 176.413 147.238 176.441 147.147Z" fill="#F4F6F9"/>
<path d="M172.491 132.308C174.526 132.486 177.516 131.265 177.516 131.265L177.829 132.12C177.829 132.12 174.516 133.461 173.341 134.62" fill="#FF7B7B"/>
<path d="M177.568 132.214C177.444 131.932 177.382 131.626 177.386 131.317L177.521 131.265L177.834 132.121L177.568 132.214Z" fill="#E26D6D"/>
<path fill-rule="evenodd" clip-rule="evenodd" d="M177.733 130.517C178.003 130.417 178.384 130.775 178.584 131.315C178.784 131.855 178.726 132.375 178.456 132.475C178.186 132.575 177.805 132.217 177.605 131.677C177.405 131.136 177.463 130.617 177.733 130.517Z" fill="#FF7B7B"/>
<path fill-rule="evenodd" clip-rule="evenodd" d="M178.019 130.762C178.059 130.735 178.141 130.787 178.202 130.879C178.262 130.97 178.278 131.066 178.237 131.093C178.196 131.12 178.114 131.068 178.054 130.976C177.993 130.885 177.978 130.789 178.019 130.762Z" fill="#F4F6F9"/>
<path d="M173.603 141.524C175.07 142.938 178.154 143.877 178.154 143.877L177.867 144.738C177.867 144.738 174.443 143.695 172.8 143.856" fill="#FF7B7B"/>
<path d="M177.569 144.632C177.651 144.334 177.795 144.056 177.991 143.818L178.127 143.865L177.84 144.726L177.569 144.632Z" fill="#E26D6D"/>
<path fill-rule="evenodd" clip-rule="evenodd" d="M178.238 143.764C178.422 143.217 178.794 142.847 179.068 142.94C179.341 143.032 179.414 143.551 179.23 144.098C179.045 144.645 178.674 145.015 178.4 144.923C178.126 144.83 178.054 144.311 178.238 143.764Z" fill="#FF7B7B"/>
<path fill-rule="evenodd" clip-rule="evenodd" d="M180.017 143.816C180.028 143.707 180.077 143.622 180.126 143.627C180.175 143.632 180.206 143.724 180.195 143.834C180.184 143.943 180.135 144.028 180.086 144.023C180.037 144.018 180.006 143.925 180.017 143.816Z" fill="#F4F6F9"/>
<path d="M168.213 149.744C168.386 151.779 170.092 154.513 170.092 154.513L169.304 154.972C169.304 154.972 167.415 151.935 166.079 150.97" fill="#FF7B7B"/>
<path d="M169.153 154.724C169.411 154.554 169.703 154.442 170.008 154.395L170.081 154.515L169.293 154.975L169.153 154.724Z" fill="#E26D6D"/>
<path fill-rule="evenodd" clip-rule="evenodd" d="M169.645 154.634C170.143 154.346 170.665 154.314 170.809 154.563C170.954 154.813 170.666 155.249 170.167 155.538C169.669 155.826 169.147 155.858 169.003 155.609C168.858 155.36 169.146 154.923 169.645 154.634Z" fill="#FF7B7B"/>
<path fill-rule="evenodd" clip-rule="evenodd" d="M170.448 154.991C170.528 154.916 170.62 154.884 170.654 154.92C170.687 154.955 170.65 155.045 170.57 155.12C170.49 155.195 170.398 155.227 170.365 155.191C170.331 155.156 170.369 155.066 170.448 154.991Z" fill="#F4F6F9"/>
<path d="M169.522 127.946C172.074 127.205 175.126 124.319 175.126 124.319L175.909 125.201C175.909 125.201 172.523 128.395 171.646 130.357" fill="#FF7B7B"/>
<path d="M175.644 125.446C175.361 125.162 175.142 124.82 175.002 124.444L175.138 124.319L175.92 125.201L175.644 125.446Z" fill="#E26D6D"/>
<path fill-rule="evenodd" clip-rule="evenodd" d="M175.059 123.395C175.339 123.147 175.97 123.4 176.466 123.961C176.963 124.521 177.138 125.178 176.858 125.426C176.578 125.674 175.947 125.421 175.451 124.86C174.954 124.3 174.778 123.643 175.059 123.395Z" fill="#FF7B7B"/>
<path fill-rule="evenodd" clip-rule="evenodd" d="M175.501 123.454C175.538 123.402 175.663 123.428 175.78 123.511C175.898 123.594 175.964 123.703 175.927 123.755C175.89 123.807 175.765 123.781 175.648 123.698C175.53 123.615 175.464 123.505 175.501 123.454Z" fill="#F4F6F9"/>
<path d="M171.865 146.239C172.992 148.639 176.316 151.212 176.316 151.212L175.565 152.12C175.565 152.12 171.886 149.271 169.825 148.707" fill="#FF7B7B"/>
<path d="M175.268 151.875C175.506 151.551 175.81 151.281 176.16 151.082L176.306 151.202L175.555 152.11L175.268 151.875Z" fill="#E26D6D"/>
<path fill-rule="evenodd" clip-rule="evenodd" d="M175.85 151.591C176.327 151.013 176.948 150.738 177.237 150.976C177.526 151.215 177.373 151.877 176.896 152.455C176.42 153.032 175.798 153.307 175.509 153.069C175.221 152.831 175.373 152.168 175.85 151.591Z" fill="#FF7B7B"/>
<path fill-rule="evenodd" clip-rule="evenodd" d="M176.977 151.652C177.041 151.523 177.139 151.441 177.195 151.47C177.252 151.498 177.246 151.625 177.182 151.754C177.118 151.883 177.02 151.965 176.964 151.937C176.907 151.909 176.913 151.782 176.977 151.652Z" fill="#F4F6F9"/>
<path d="M157.573 152.431C155.814 154.419 154.781 158.489 154.781 158.489L153.644 158.16C153.644 158.16 154.797 153.652 154.494 151.528" fill="#E26D6D"/>
<path d="M153.732 157.836C154.125 157.931 154.493 158.109 154.812 158.358C155.131 158.607 154.765 158.536 154.765 158.536L153.628 158.207C153.628 158.207 153.69 157.998 153.732 157.836Z" fill="#D16969"/>
<path fill-rule="evenodd" clip-rule="evenodd" d="M152.727 158.531C152.831 158.171 153.5 158.048 154.219 158.256C154.939 158.464 155.438 158.925 155.334 159.285C155.23 159.645 154.561 159.768 153.842 159.559C153.123 159.351 152.623 158.89 152.727 158.531Z" fill="#E26D6D"/>
<path fill-rule="evenodd" clip-rule="evenodd" d="M154.367 159.404C154.371 159.341 154.49 159.295 154.634 159.303C154.778 159.31 154.892 159.367 154.889 159.431C154.885 159.494 154.766 159.539 154.622 159.532C154.478 159.524 154.364 159.467 154.367 159.404Z" fill="#F4F6F9"/>
<path d="M147.725 145.614C145.069 145.541 141.286 147.362 141.286 147.362L140.806 146.277C140.806 146.277 144.98 144.267 146.442 142.671" fill="#E26D6D"/>
<path d="M141.14 146.112C141.325 146.469 141.43 146.863 141.448 147.265L141.281 147.343L140.801 146.258L141.14 146.112Z" fill="#D16969"/>
<path fill-rule="evenodd" clip-rule="evenodd" d="M139.97 145.759C140.312 145.608 140.836 146.042 141.138 146.727C141.44 147.412 141.408 148.091 141.065 148.242C140.723 148.393 140.199 147.96 139.897 147.274C139.594 146.589 139.627 145.91 139.97 145.759Z" fill="#E26D6D"/>
<path fill-rule="evenodd" clip-rule="evenodd" d="M140.346 147.588C140.396 147.55 140.508 147.613 140.595 147.728C140.681 147.843 140.71 147.967 140.66 148.005C140.609 148.043 140.498 147.981 140.411 147.866C140.324 147.751 140.295 147.626 140.346 147.588Z" fill="#F4F6F9"/>
<path d="M147.303 132.2C145.888 129.951 142.277 127.806 142.277 127.806L142.914 126.804C142.914 126.804 146.911 129.189 149.04 129.502" fill="#E26D6D"/>
<path d="M143.217 126.944C143.02 127.295 142.749 127.599 142.424 127.836L142.267 127.742L142.904 126.74C142.904 126.74 143.071 126.866 143.217 126.944Z" fill="#D16969"/>
<path fill-rule="evenodd" clip-rule="evenodd" d="M141.375 127.125C141.779 126.496 142.363 126.15 142.678 126.352C142.992 126.554 142.919 127.229 142.515 127.858C142.11 128.487 141.527 128.834 141.212 128.631C140.898 128.429 140.971 127.754 141.375 127.125Z" fill="#E26D6D"/>
<path fill-rule="evenodd" clip-rule="evenodd" d="M141.327 127.334C141.375 127.198 141.462 127.105 141.522 127.126C141.582 127.147 141.591 127.274 141.544 127.41C141.496 127.546 141.408 127.639 141.349 127.618C141.289 127.597 141.279 127.47 141.327 127.334Z" fill="#F4F6F9"/>
<path d="M150.617 128.34C150.152 126.342 148.065 123.863 148.065 123.863L148.78 123.3C148.78 123.3 151.092 126.05 152.563 126.812" fill="#E26D6D"/>
<path d="M148.967 123.524C148.735 123.731 148.461 123.886 148.164 123.978L148.075 123.863L148.79 123.3L148.967 123.524Z" fill="#D16969"/>
<path fill-rule="evenodd" clip-rule="evenodd" d="M147.832 122.83C148.286 122.471 148.8 122.363 148.978 122.589C149.157 122.815 148.933 123.29 148.479 123.649C148.024 124.008 147.51 124.116 147.332 123.89C147.153 123.664 147.377 123.189 147.832 122.83Z" fill="#E26D6D"/>
<path fill-rule="evenodd" clip-rule="evenodd" d="M147.5 123.345C147.568 123.26 147.655 123.215 147.693 123.245C147.731 123.276 147.707 123.37 147.639 123.456C147.571 123.541 147.484 123.586 147.446 123.556C147.408 123.525 147.432 123.431 147.5 123.345Z" fill="#F4F6F9"/>
<path d="M146.463 141.119C144.521 140.451 141.312 140.916 141.312 140.916L141.213 140.008C141.213 140.008 144.767 139.486 146.196 138.656" fill="#E26D6D"/>
<path d="M141.495 139.931C141.548 140.238 141.535 140.552 141.458 140.854H141.312L141.213 139.946L141.495 139.931Z" fill="#D16969"/>
<path fill-rule="evenodd" clip-rule="evenodd" d="M140.715 139.423C141.001 139.391 141.286 139.832 141.35 140.407C141.415 140.982 141.234 141.475 140.948 141.507C140.662 141.539 140.377 141.098 140.313 140.523C140.249 139.948 140.429 139.455 140.715 139.423Z" fill="#E26D6D"/>
<path fill-rule="evenodd" clip-rule="evenodd" d="M140.565 140.889C140.612 140.873 140.679 140.943 140.715 141.046C140.752 141.149 140.744 141.246 140.698 141.263C140.652 141.279 140.585 141.209 140.548 141.105C140.512 141.002 140.519 140.905 140.565 140.889Z" fill="#F4F6F9"/>
<path d="M153.503 150.644C151.765 151.729 150.101 154.511 150.101 154.511L149.333 154.02C149.333 154.02 151.181 150.936 151.421 149.298" fill="#E26D6D"/>
<path d="M149.473 153.758C149.742 153.91 149.975 154.118 150.157 154.369L150.084 154.489L149.317 153.998L149.473 153.758Z" fill="#D16969"/>
<path fill-rule="evenodd" clip-rule="evenodd" d="M148.585 154.036C148.741 153.793 149.263 153.85 149.75 154.163C150.237 154.476 150.506 154.927 150.35 155.169C150.195 155.412 149.673 155.354 149.186 155.041C148.699 154.729 148.429 154.278 148.585 154.036Z" fill="#E26D6D"/>
<path fill-rule="evenodd" clip-rule="evenodd" d="M149.613 155.073C149.629 155.027 149.726 155.019 149.829 155.056C149.932 155.092 150.003 155.159 149.986 155.205C149.97 155.252 149.873 155.259 149.77 155.223C149.667 155.186 149.596 155.119 149.613 155.073Z" fill="#F4F6F9"/>
<path d="M163.531 151.655C163.161 153.268 163.798 155.799 163.798 155.799L163.077 155.955C163.077 155.955 162.378 153.148 161.58 152.078" fill="#E26D6D"/>
<path d="M163.02 155.736C163.261 155.668 163.514 155.652 163.761 155.689L163.788 155.804L163.067 155.961L163.02 155.736Z" fill="#D16969"/>
<path fill-rule="evenodd" clip-rule="evenodd" d="M163.406 155.835C163.862 155.735 164.272 155.84 164.322 156.068C164.372 156.296 164.042 156.561 163.586 156.661C163.13 156.76 162.72 156.656 162.67 156.428C162.62 156.2 162.95 155.934 163.406 155.835Z" fill="#E26D6D"/>
<path fill-rule="evenodd" clip-rule="evenodd" d="M163.951 156.273C164.032 156.235 164.111 156.233 164.128 156.269C164.146 156.306 164.094 156.367 164.014 156.405C163.933 156.443 163.854 156.445 163.836 156.409C163.819 156.372 163.87 156.311 163.951 156.273Z" fill="#F4F6F9"/>
<path d="M161.299 152.165C160.448 154.028 160.599 157.269 160.599 157.269H159.686C159.686 157.269 159.519 153.684 158.82 152.181" fill="#E26D6D"/>
<path d="M159.665 157.015C159.976 156.989 160.287 157.034 160.578 157.145V157.286H159.665C159.665 157.286 159.676 157.14 159.665 157.015Z" fill="#D16969"/>
<path fill-rule="evenodd" clip-rule="evenodd" d="M160.135 157.199C160.714 157.191 161.187 157.418 161.191 157.706C161.195 157.994 160.729 158.235 160.15 158.243C159.571 158.251 159.098 158.024 159.094 157.736C159.09 157.448 159.556 157.207 160.135 157.199Z" fill="#E26D6D"/>
<path fill-rule="evenodd" clip-rule="evenodd" d="M160.683 157.912C160.789 157.886 160.885 157.903 160.897 157.951C160.908 157.998 160.832 158.058 160.726 158.085C160.619 158.111 160.524 158.094 160.512 158.046C160.5 157.999 160.576 157.939 160.683 157.912Z" fill="#F4F6F9"/>
<path d="M146.119 135.677C144.804 134.701 142.242 134.273 142.242 134.273L142.388 133.559C142.388 133.559 145.221 134.033 146.515 133.736" fill="#E26D6D"/>
<path d="M142.606 133.585C142.57 133.83 142.483 134.064 142.35 134.274H142.236L142.382 133.559L142.606 133.585Z" fill="#D16969"/>
<path fill-rule="evenodd" clip-rule="evenodd" d="M141.556 133.79C141.646 133.338 141.903 133.008 142.129 133.053C142.355 133.098 142.465 133.501 142.375 133.953C142.285 134.405 142.028 134.736 141.802 134.691C141.576 134.646 141.466 134.242 141.556 133.79Z" fill="#E26D6D"/>
<path fill-rule="evenodd" clip-rule="evenodd" d="M141.69 134.068C141.73 134.067 141.765 134.138 141.768 134.228C141.771 134.317 141.741 134.39 141.701 134.392C141.661 134.393 141.625 134.322 141.622 134.233C141.619 134.143 141.65 134.07 141.69 134.068Z" fill="#F4F6F9"/>
<path d="M150.762 148.436C149.087 148.958 147.109 150.947 147.109 150.947L146.587 150.372C146.587 150.372 148.774 148.191 149.322 146.876" fill="#E26D6D"/>
<path d="M146.749 150.19C146.946 150.372 147.098 150.597 147.193 150.847L147.104 150.931L146.583 150.357L146.749 150.19Z" fill="#D16969"/>
<path fill-rule="evenodd" clip-rule="evenodd" d="M145.942 150.258C146.123 150.089 146.544 150.245 146.883 150.607C147.221 150.969 147.349 151.4 147.168 151.569C146.987 151.738 146.566 151.582 146.227 151.22C145.889 150.858 145.761 150.427 145.942 150.258Z" fill="#E26D6D"/>
<path fill-rule="evenodd" clip-rule="evenodd" d="M146.588 151.293C146.612 151.257 146.696 151.271 146.775 151.324C146.854 151.376 146.898 151.448 146.874 151.484C146.85 151.52 146.767 151.507 146.688 151.454C146.609 151.401 146.564 151.329 146.588 151.293Z" fill="#F4F6F9"/>
<path d="M90.486 204.006C105.346 204.006 117.392 201.63 117.392 198.699C117.392 195.768 105.346 193.392 90.486 193.392C75.6264 193.392 63.5803 195.768 63.5803 198.699C63.5803 201.63 75.6264 204.006 90.486 204.006Z" fill="#D6D8E5" fill-opacity="0.4"/>
<path d="M159.983 179.128C167.828 179.128 174.188 177.757 174.188 176.065C174.188 174.373 167.828 173.002 159.983 173.002C152.139 173.002 145.779 174.373 145.779 176.065C145.779 177.757 152.139 179.128 159.983 179.128Z" fill="#D6D8E5" fill-opacity="0.4"/>
<path d="M134.367 114.451C142.211 114.451 148.571 113.08 148.571 111.388C148.571 109.697 142.211 108.325 134.367 108.325C126.522 108.325 120.162 109.697 120.162 111.388C120.162 113.08 126.522 114.451 134.367 114.451Z" fill="#D6D8E5" fill-opacity="0.4"/>
<path d="M37.5507 111.038C47.2573 111.038 55.126 106.493 55.126 100.888C55.126 95.2825 47.2573 90.7383 37.5507 90.7383C27.8442 90.7383 19.9754 95.2825 19.9754 100.888C19.9754 106.493 27.8442 111.038 37.5507 111.038Z" fill="#D6D8E5" fill-opacity="0.4"/>
<path d="M28.5234 99.1498C29.8175 100.193 31.7327 99.2385 31.8266 99.3377C33.3496 100.751 34.9469 102.082 36.6118 103.324C37.4155 103.961 38.6992 104.812 38.4487 106.033C38.0417 108.214 34.5454 107.546 33.2303 106.878C31.9153 106.21 30.8351 105.099 29.5776 104.326C28.6853 103.773 27.8086 103.486 27.6728 102.359C27.5945 101.665 28.2939 99.1132 28.5234 99.1498Z" fill="#1C3FFD"/>
<path d="M27.6929 101.889C27.8651 102.97 28.7365 103.267 29.6132 103.815C30.8813 104.603 31.998 105.741 33.3183 106.424C34.5341 107.04 37.5765 107.65 38.4322 106.09C37.9678 108.177 34.5289 107.536 33.2139 106.878C31.8988 106.221 30.8186 105.099 29.5611 104.326C28.6688 103.773 27.7921 103.486 27.6563 102.359C27.6502 102.202 27.6623 102.044 27.6929 101.889Z" fill="#0228F4"/>
<path d="M39.7684 94.9494C41.0678 95.9932 43.3325 94.8555 43.4212 94.9494C44.7677 96.3206 46.1949 97.61 47.695 98.8111C48.4986 99.4424 49.7824 100.293 49.5319 101.514C49.1248 103.701 45.6285 103.027 44.3135 102.359C42.9985 101.692 41.9183 100.585 40.6608 99.8077C39.7684 99.2598 38.8917 98.9728 38.756 97.8456C38.6882 97.1464 39.5387 94.9025 39.7684 94.9494Z" fill="#1C3FFD"/>
<path d="M38.8083 97.5564C38.9805 98.6313 39.8519 98.9288 40.7286 99.4767C41.9966 100.265 43.1134 101.402 44.4337 102.086C45.6495 102.702 48.6918 103.317 49.5476 101.757C49.0832 103.844 45.6495 103.203 44.3292 102.54C43.0091 101.877 41.934 100.766 40.6765 99.9881C39.7842 99.435 38.9075 99.1479 38.7717 98.026C38.7653 97.8686 38.7776 97.7109 38.8083 97.5564Z" fill="#0228F4"/>
<path d="M48.4306 23.3488C48.4306 23.3488 48.3889 25.4361 48.6446 30.6857C48.7382 34.5964 48.5638 38.5089 48.1228 42.3957C47.7368 45.4713 46.898 48.4731 45.6336 51.3034C44.7047 46.8313 45.7849 46.0433 45.7849 46.0433L45.2631 36.5407C45.2631 36.5407 45.7849 27.3669 45.5814 24.1054C45.4457 22.0389 48.4306 23.3488 48.4306 23.3488Z" fill="#FFCEA9"/>
<path d="M28.4818 51.2931C28.5444 53.25 29.155 61.761 29.4262 66.2696C29.6976 70.7783 29.7602 76.2992 29.7602 76.2992C29.7602 76.2992 28.9827 79.5816 28.4818 83.4379C27.9808 87.2943 28.4818 99.4739 28.4818 99.4739C29.4903 100.124 30.792 100.124 31.8006 99.4739C32.8092 98.8238 33.8879 89.7261 34.8325 85.3374C35.777 80.9488 35.9596 78.4179 36.4606 75.694C37.0607 72.4011 38.3601 57.0385 38.3601 57.0385H38.8818L40.27 74.3842C39.8427 75.6619 39.5489 76.9805 39.3933 78.3187C39.0176 81.1471 39.7951 95.3619 39.7951 95.3619C40.9214 95.9877 42.3084 95.9311 43.3801 95.2157C44.4518 94.5004 46.8451 76.388 46.8451 73.5232C46.8451 71.6289 46.5215 46.6436 46.5215 46.6436L28.4818 51.2931Z" fill="#FFD10F"/>
<path d="M33.1774 13.3813C33.1774 13.3813 33.3966 17.6552 33.3027 18.036C33.2088 18.417 31.3405 19.6641 30.7979 20.1234C30.2551 20.5826 33.7514 24.0215 35.4526 24.8199C37.1538 25.6183 42.5443 23.5153 42.6382 20.8644C42.7321 18.2135 41.7146 15.9957 40.8901 15.8756C40.0656 15.7556 33.1774 13.3813 33.1774 13.3813Z" fill="#FFCEA9"/>
<path d="M32.7034 18.8041C32.7034 18.8041 35.8031 23.4224 40.1291 23.8607C41.4911 22.5144 41.6163 17.7292 39.7272 16.2002C39.7272 16.2002 41.4649 14.8017 42.6496 15.073C44.0581 15.8307 45.137 17.0844 45.6761 18.5902C46.4745 21.0272 46.9234 23.8398 46.8502 28.3693C46.7772 32.8989 46.8502 46.7587 46.8502 46.7587C46.8502 46.7587 46.2397 49.6862 42.3259 51.8675C38.4122 54.0488 35.5056 54.2627 32.8547 53.6418C30.663 53.1199 28.8523 52.3581 28.0956 50.7716C28.2939 47.5937 29.7133 39.2913 29.181 35.3045C28.6487 31.3177 27.8034 28.3171 27.5946 25.0661C27.3859 21.8152 28.0225 21.9038 29.6403 20.7506C30.6134 20.0292 31.6371 19.3789 32.7034 18.8041Z" fill="#F4F4F4"/>
<path d="M30.9654 53.1158C30.3236 52.3956 29.2121 48.4193 28.5755 45.8728C27.9621 43.0306 27.8386 40.1045 28.2102 37.2207C28.7841 33.7766 30.3602 29.0071 30.8193 27.0346C31.2785 25.062 30.6784 24.2219 29.7757 23.4235C28.732 22.4894 27.2135 22.766 26.222 25.5108C24.9242 29.3108 24.0545 33.2436 23.6285 37.2364C23.3939 40.2154 23.6532 43.2129 24.3956 46.1076C25.0583 48.7846 26.0289 50.7415 27.2709 53.2044C27.61 53.8776 28.3824 55.7511 28.8781 57.1078C29.3739 58.4645 31.5551 53.7733 30.9654 53.1158Z" fill="#FFCEA9"/>
<path d="M23.6284 30.0084C23.6284 30.0084 26.6812 33.0403 30.2869 32.1636C30.8088 31.814 32.0403 24.7275 32.0403 24.7275C32.0403 24.7275 32.0403 20.7981 29.0294 20.9024C26.0184 21.0068 23.6284 30.0084 23.6284 30.0084Z" fill="#EDEDED"/>
<path d="M46.855 26.007C46.855 26.007 48.8275 26.2575 49.4903 25.3285C49.3651 23.763 46.7402 15.4868 42.6491 15.0381C43.6452 15.9358 44.5064 16.9728 45.206 18.1169C46.6358 20.5381 46.855 26.007 46.855 26.007Z" fill="#EDEDED"/>
<path d="M43.2025 10.0105C43.2728 11.6129 43.008 13.2126 42.425 14.707C42.1677 15.4404 41.6807 16.0717 41.037 16.5073C40.6251 16.7396 40.1709 16.8869 39.7011 16.9404C38.6575 17.0866 35.0046 16.215 33.7782 14.8009C33.5494 14.3389 33.3743 13.8521 33.2565 13.3501C31.4585 12.1271 30.3798 10.0884 30.3798 7.91385C30.3798 4.4382 33.1358 1.53213 36.6067 1.34803C40.0246 1.16017 42.4147 3.67022 42.9364 6.98908C43.0998 7.98825 43.1888 8.99806 43.2025 10.0105Z" fill="#FFCEA9"/>
<path fill-rule="evenodd" clip-rule="evenodd" d="M33.4029 10.3865L33.3588 10.5959L37.2753 11.4206L37.3194 11.2112L33.4029 10.3865Z" fill="white"/>
<path fill-rule="evenodd" clip-rule="evenodd" d="M33.2505 12.3618L33.1726 12.5611L36.3269 13.7941L36.4048 13.5948L33.2505 12.3618Z" fill="white"/>
<path d="M33.2511 13.3925L33.5642 10.4963C33.5642 10.4963 31.2003 4.37524 36.7891 5.54937C40.4733 6.32686 41.4021 6.66087 42.5292 4.18738C43.6564 1.7139 39.6853 -0.519633 34.9888 0.106566C31.6504 0.456612 29.106 3.34139 29.1755 6.69732C29.2956 8.51856 29.7809 12.2027 33.2511 13.3925Z" fill="#1E1E1E"/>
<path d="M43.2024 10.0613C43.2727 11.6637 43.0079 13.2634 42.4249 14.7578C42.1676 15.4912 41.6806 16.1225 41.0369 16.5581C39.4088 16.4223 36.1525 13.8185 36.1525 13.7349C36.3427 12.849 36.6333 11.9876 37.0187 11.1675C38.9965 11.1675 41.1935 9.68555 41.6474 9.68555C42.1722 9.78261 42.6913 9.90797 43.2024 10.0613Z" fill="#F4F4F4"/>
<path d="M223.449 260.909C233.155 260.909 241.024 256.365 241.024 250.759C241.024 245.154 233.155 240.609 223.449 240.609C213.742 240.609 205.874 245.154 205.874 250.759C205.874 256.365 213.742 260.909 223.449 260.909Z" fill="#D6D8E5" fill-opacity="0.4"/>
<path d="M237.977 173.448C238.18 175.201 240.273 182.778 239.824 185.372C239.375 187.965 232.242 192.307 232.242 192.307L231.276 187.861L235.237 184.004L234.167 176.641L237.977 173.448Z" fill="#FFCEA9"/>
<path d="M232.44 166.027C233.874 165.361 235.599 165.88 236.427 167.227C237.471 168.975 238.577 174.945 238.671 175.973C238.671 175.973 237.194 178.019 234.982 177.674L232.44 166.027Z" fill="#EDEDED"/>
<path d="M224.273 250.449C222.716 250.878 221.05 250.677 219.639 249.891C218.522 249.922 212.469 247.334 211.645 249.51C210.925 251.441 213.544 253.163 214.948 253.517C218.006 254.264 220.255 255.787 221.497 256.043C222.415 256.236 223.584 256.367 224.33 255.646C225.202 254.759 225.129 251.566 224.273 250.449Z" fill="#FFD10F"/>
<path d="M221.497 255.538C220.27 255.277 218.006 253.753 214.948 253.012C213.774 252.73 211.749 251.447 211.545 249.913C211.274 251.666 213.633 253.226 214.948 253.539C218.006 254.286 220.255 255.809 221.497 256.065C222.415 256.258 223.584 256.389 224.33 255.668C224.519 255.457 224.656 255.205 224.732 254.933C223.809 255.631 222.61 255.856 221.497 255.538Z" fill="#D4AB00"/>
<path d="M234.094 246.056C232.537 246.488 230.871 246.287 229.46 245.498C228.344 245.529 222.29 242.936 221.471 245.112C220.746 247.022 223.371 248.765 224.769 249.125C227.827 249.866 230.076 251.395 231.318 251.656C232.237 251.849 233.406 251.974 234.152 251.254C235.023 250.388 234.971 247.194 234.094 246.056Z" fill="#FFD10F"/>
<path d="M231.318 251.141C230.091 250.88 227.826 249.356 224.768 248.616C223.594 248.334 221.57 247.05 221.392 245.516C221.121 247.269 223.48 248.829 224.768 249.143C227.826 249.884 230.075 251.413 231.318 251.673C232.236 251.867 233.405 251.992 234.151 251.272C234.338 251.059 234.475 250.808 234.553 250.536C233.63 251.234 232.43 251.459 231.318 251.141Z" fill="#D4AB00"/>
<path d="M234.215 229.636C233.954 227.389 233.485 225.171 232.816 223.009C232.148 220.848 233.234 217.269 233.443 211.852C233.677 205.695 235.817 200.273 234.126 195.368L215.142 199.579C215.142 199.579 216.29 224.131 216.551 227.085C216.688 229.396 216.972 231.697 217.402 233.973C218.268 238.743 219.677 250.077 219.677 250.077C221.686 251.246 224.321 250.598 224.321 250.598C224.321 250.598 224.18 236.264 224.05 232.825C223.893 228.65 223.763 228.969 223.763 228.969L224.389 218.532L224.801 213.34C224.801 213.34 225.323 217.154 225.667 220.577C225.97 223.547 226.685 226.234 227.489 231.76C228.183 236.556 229.31 246.194 229.31 246.194C231.319 247.363 234.048 246.393 234.048 246.393C234.048 246.393 234.753 233.811 234.215 229.636Z" fill="#1C3FFD"/>
<path d="M231.438 166.132C229.992 166.205 228.912 166.576 228.73 166.132C228.578 165.384 228.468 164.628 228.401 163.867C228.568 163.45 228.714 163.001 228.714 163.001C230.53 161.879 231.125 159.917 231.323 157.631C231.73 153.718 229.617 150.326 225.708 149.908C222.029 149.527 219.331 152.11 218.611 155.648C218.22 157.402 217.448 160.705 218.496 163.591C219.076 165.198 219.832 166.482 220.584 166.722C221.312 166.701 222.039 166.638 222.76 166.534C223.481 166.43 222.958 167.619 223.089 168.313C223.219 169.007 223.172 169.357 221.784 170.244C220.396 171.131 223.871 172.853 226.157 172.686C228.443 172.519 230.984 171.121 231.704 169.665C232.502 168.021 232.435 166.085 231.438 166.132Z" fill="#FFCEA9"/>
<path d="M229.346 166.313C229.747 167.31 228.725 168.531 226.011 169.387C223.298 170.242 223.047 169.141 223.047 169.141C223.047 169.141 219.06 170.957 217.761 171.86C216.133 173.003 215.413 176.301 215.188 181.874C214.933 188.319 214.917 197.879 215.126 199.533C215.126 199.533 218.178 202.57 222.077 202.246C225.975 201.923 232.513 198.479 234.141 195.812C234.094 190.161 233.437 189.237 234.35 185.986C236.437 178.529 237.549 175.482 236.531 170.545C235.691 166.459 234.512 165.953 232.878 165.995C231.696 166.036 230.517 166.142 229.346 166.313Z" fill="#F4F4F4"/>
<path d="M209.078 188.289C212.282 189.098 213.028 187.078 213.456 185.393C214.5 181.349 215.022 177.675 215.778 175.4C216.671 172.686 217.61 172.269 218.909 171.747C220.475 171.131 221.806 172.436 221.268 175.885C220.663 179.961 219.859 182.831 218.335 187.653C217.939 188.915 217.046 191.154 215.726 192.234C214.077 193.57 211.593 193.513 207.826 192.579C206.218 192.177 204.449 191.222 201.423 189.802C200.609 189.422 199.977 189.171 198.412 188.44C196.841 187.736 195.464 186.662 194.399 185.309C193.574 184.12 193.47 183.561 193.637 183.29C193.804 183.019 194.216 183.024 194.681 183.53C195.316 184.371 196.097 185.09 196.987 185.654C197.877 186.218 195.975 184.61 195.422 183.932C194.93 183.331 194.522 182.665 194.211 181.954C193.919 181.265 194.514 180.326 194.968 180.816C195.422 181.307 195.641 181.813 196.47 182.805C196.896 183.326 197.383 183.794 197.921 184.198C197.408 183.501 196.951 182.765 196.554 181.996C196.21 181.391 196.042 180.703 196.069 180.008C196.069 179.648 196.59 179.214 197.112 179.903C197.634 180.592 197.822 181.469 198.834 182.512C199.56 183.274 200.186 183.707 200.202 183.499C200.217 183.29 199.758 182.872 199.497 181.991C199.236 181.109 199.497 180.169 199.982 180.06C200.468 179.95 200.379 179.982 200.77 180.811C201.162 181.641 201.762 182.262 202.216 183.457C202.463 184.308 202.914 185.086 203.531 185.722C204.277 186.593 206.015 187.522 209.078 188.289Z" fill="#FFCEA9"/>
<path d="M220.093 171.213C217.954 170.889 216.441 171.855 215.501 175.069C214.562 178.284 213.904 180.982 213.904 180.982C214.752 182.203 216.035 183.055 217.489 183.361C220.046 183.977 220.96 182.761 220.96 182.761C220.96 182.761 221.669 179.38 222.113 177.052C222.557 174.725 222.739 171.594 220.093 171.213Z" fill="#EDEDED"/>
<path d="M220.887 161.249L224.545 160.179L224.436 159.939L220.772 161.009L220.887 161.249Z" fill="white"/>
<path d="M221.179 162.991L221.153 163.252L224.205 163.195L224.232 162.934L221.179 162.991Z" fill="white"/>
<path d="M220.776 166.739C219.806 166.739 219.002 165.2 218.397 163.608C217.994 162.486 217.808 161.298 217.849 160.107C217.851 160.014 217.928 159.939 218.021 159.939C218.046 159.939 218.071 159.945 218.094 159.955C219.052 160.547 220.157 160.858 221.282 160.853L221.804 163.337C221.804 163.337 220.881 166.614 220.776 166.739Z" fill="#EDEDED"/>
<path d="M218.752 155.137C218.752 155.137 215.376 150.003 222.692 148.959C227.973 148.202 231.381 151.568 231.756 155.273C232.132 158.785 229.967 162.443 228.401 163.889C227.639 164.165 225.99 164.316 223.845 163.367C223.753 162.404 223.719 161.437 223.741 160.47C223.764 159.504 226.314 155.049 218.752 155.137Z" fill="#1E1E1E"/>
<path d="M236.05 177.844L215.14 197.34L213.919 234.829C213.919 234.829 219.785 237.694 226.443 236.144L227.664 221.751L229.512 234.797L229.293 235.194C232.451 233.779 235.159 231.522 237.12 228.671L236.05 177.844Z" fill="#F4F4F4"/>
<path d="M213.905 180.967L212.861 185.491C212.861 185.491 211.984 188.659 209.73 187.855C207.608 186.962 205.54 185.946 203.536 184.813L200.833 190.36L206.422 192.969C206.422 192.969 214.181 195.735 216.336 192.969C218.492 190.203 220.913 182.736 220.913 182.736L213.905 180.967Z" fill="#EDEDED"/>
</svg>
